<svg xmlns="http://www.w3.org/2000/svg" xmlns:xlink="http://www.w3.org/1999/xlink" width="140" height="155" viewBox="0 0 140 155">
  <defs>
    <clipPath id="clip-path">
      <rect id="Rect치ngulo_56263" data-name="Rect치ngulo 56263" width="69.189" height="63.281" fill="#00a3be"/>
    </clipPath>
  </defs>
  <g id="Grupo_181589" data-name="Grupo 181589" transform="translate(-915 -672)">
    <path id="Trazado_209377" data-name="Trazado 209377" d="M37.856,140.381h64.288A37.907,37.907,0,0,0,140,102.422V37.959A37.907,37.907,0,0,0,102.144,0H37.856A37.908,37.908,0,0,0,0,37.959v64.463a37.908,37.908,0,0,0,37.856,37.959" transform="translate(915 672)" fill="#00a3be"/>
    <path id="Trazado_209378" data-name="Trazado 209378" d="M155.686,128.309V64.319a26.693,26.693,0,0,0-26.78-26.6H64.494a26.693,26.693,0,0,0-26.78,26.6v63.99a26.693,26.693,0,0,0,26.78,26.6h64.412a26.693,26.693,0,0,0,26.78-26.6" transform="translate(888.3 645.043)" fill="#fff"/>
    <rect id="Rect치ngulo_56256" data-name="Rect치ngulo 56256" width="140" height="155" transform="translate(915 672)" fill="none"/>
    <g id="Grupo_181047" data-name="Grupo 181047" transform="translate(953.283 716.688)">
      <g id="Grupo_181046" data-name="Grupo 181046" transform="translate(0 0)" clip-path="url(#clip-path)">
        <path id="Trazado_209394" data-name="Trazado 209394" d="M21.019,25.024l5.051,5.051L3.138,31.909,4.972,8.977l5.051,5.051c15.168-16.288,48.079-20.4,59.6,12.1C58.308,12.137,31.568,5.761,21.019,25.024Z" transform="translate(-1.367 -0.721)" fill="#00a3be"/>
        <path id="Trazado_209395" data-name="Trazado 209395" d="M50.258,63.736l-5.051-5.051,22.932-1.835L66.3,79.784l-5.051-5.051c-15.168,16.289-48.079,20.4-59.6-12.1C12.969,76.623,39.709,83,50.258,63.736Z" transform="translate(-0.721 -24.758)" fill="#00a3be"/>
      </g>
    </g>
  </g>
</svg>
