<svg xmlns="http://www.w3.org/2000/svg" xmlns:xlink="http://www.w3.org/1999/xlink" width="190" height="208" viewBox="0 0 190 208">
  <defs>
    <clipPath id="clip-path">
      <rect id="Rect치ngulo_56253" data-name="Rect치ngulo 56253" width="190" height="208" fill="none"/>
    </clipPath>
    <clipPath id="clip-path-2">
      <rect id="Rect치ngulo_56267" data-name="Rect치ngulo 56267" width="125.151" height="110.059" transform="translate(0 0)" fill="#f37f4c"/>
    </clipPath>
  </defs>
  <g id="Grupo_181411" data-name="Grupo 181411" transform="translate(-600 -1003)">
    <g id="Grupo_181044" data-name="Grupo 181044" transform="translate(600 1003)">
      <g id="Grupo_181026" data-name="Grupo 181026" clip-path="url(#clip-path)">
        <path id="Trazado_209367" data-name="Trazado 209367" d="M138.624,239.083H51.376A51.241,51.241,0,0,1,0,187.978V101.189A51.241,51.241,0,0,1,51.376,50.083h87.248A51.241,51.241,0,0,1,190,101.189v86.789a51.241,51.241,0,0,1-51.376,51.106" transform="translate(0 -30.618)" fill="#e5683c"/>
        <path id="Trazado_209368" data-name="Trazado 209368" d="M138.624,189H51.376A51.241,51.241,0,0,1,0,137.895V51.105A51.241,51.241,0,0,1,51.376,0h87.248A51.241,51.241,0,0,1,190,51.105v86.789A51.241,51.241,0,0,1,138.624,189" fill="#f37f4c"/>
        <path id="Trazado_209369" data-name="Trazado 209369" d="M37.715,161.151V73.964A36.345,36.345,0,0,1,74.156,37.715H161.8a36.345,36.345,0,0,1,36.441,36.249v87.187A36.345,36.345,0,0,1,161.8,197.4H74.156a36.345,36.345,0,0,1-36.441-36.249" transform="translate(-22.98 -23.057)" fill="#fff"/>
      </g>
    </g>
    <g id="Grupo_181052" data-name="Grupo 181052" transform="translate(629.849 1039.692)">
      <g id="Grupo_181051" data-name="Grupo 181051" clip-path="url(#clip-path-2)">
        <path id="Trazado_209405" data-name="Trazado 209405" d="M70.122,1.624A53.056,53.056,0,0,0,32.358,17.266L45.9,30.807a34.261,34.261,0,1,1-5.964,40.4h16.7L29.133,38.914,1.624,71.206h17.6A53.4,53.4,0,1,0,70.122,1.624Z" fill="#f37f4c"/>
      </g>
    </g>
  </g>
</svg>
