<svg xmlns="http://www.w3.org/2000/svg" xmlns:xlink="http://www.w3.org/1999/xlink" width="139.333" height="151.61" viewBox="0 0 139.333 151.61">
  <defs>
    <clipPath id="clip-path">
      <rect id="Rectángulo_56267" data-name="Rectángulo 56267" width="77.645" height="68.282" fill="#00a3be"/>
    </clipPath>
  </defs>
  <g id="Grupo_181593" data-name="Grupo 181593" transform="translate(-810 -946)">
    <g id="Grupo_181407" data-name="Grupo 181407" transform="translate(210 -128.742)">
      <path id="Trazado_209368" data-name="Trazado 209368" d="M101.657,151.61H37.675C16.868,151.61,0,133.256,0,110.615V41C0,18.354,16.868,0,37.675,0h63.982c20.808,0,37.676,18.354,37.676,41v69.62c0,22.641-16.868,41-37.676,41" transform="translate(600 1074.742)" fill="#00a3be"/>
      <path id="Trazado_209369" data-name="Trazado 209369" d="M37.715,140.851V68c0-16.727,12.3-30.287,27.478-30.287h66.092c15.176,0,27.478,13.56,27.478,30.287v72.848c0,16.727-12.3,30.287-27.478,30.287H65.193c-15.176,0-27.478-13.56-27.478-30.287" transform="translate(571.427 1046.122)" fill="#fff"/>
      <g id="Grupo_181052" data-name="Grupo 181052" transform="translate(628.394 1113.474)">
        <g id="Grupo_181051" data-name="Grupo 181051" transform="translate(0 0)" clip-path="url(#clip-path)">
          <path id="Trazado_209405" data-name="Trazado 209405" d="M44.121,1.624a32.916,32.916,0,0,0-23.429,9.7l8.4,8.4a21.256,21.256,0,1,1-3.7,25.064H35.757L18.691,24.759,1.624,44.793H12.546A33.132,33.132,0,1,0,44.121,1.624Z" transform="translate(-0.616 -0.616)" fill="#00a3be"/>
        </g>
      </g>
      <path id="Trazado_209385" data-name="Trazado 209385" d="M20.766,19.886c-.605-.216-1.595-.227-2.033-.395a2.872,2.872,0,0,1-.941-.438,5.813,5.813,0,0,1-.157-1.541,2.489,2.489,0,0,0,.535-.757,8.412,8.412,0,0,0,.259-1.487s.357.151.5-.562c.119-.616.346-.941.287-1.395s-.314-.346-.314-.346a4.048,4.048,0,0,0,.314-2.022,3.235,3.235,0,0,0-3.492-3.2,3.246,3.246,0,0,0-3.5,3.2,4.108,4.108,0,0,0,.308,2.022s-.254-.108-.314.346.162.779.287,1.395c.141.719.5.562.5.562a8.493,8.493,0,0,0,.259,1.487,2.489,2.489,0,0,0,.535.757,5.813,5.813,0,0,1-.157,1.541,2.764,2.764,0,0,1-.941.433c-.432.168-1.422.189-2.033.405a3.815,3.815,0,0,0-2.476,3.633H23.237A3.808,3.808,0,0,0,20.766,19.886Z" transform="translate(655.546 1135.326)" fill="#00a3be"/>
      <path id="Trazado_209387" data-name="Trazado 209387" d="M25.613,18.052a3.67,3.67,0,0,1-1.806-.5c.838-1.27.384-2.752.557-4.136a2.281,2.281,0,0,1,2.525-2.206h.022a2.288,2.288,0,0,1,2.5,2.206c.173,1.379-.308,3.028.551,4.136A3.4,3.4,0,0,1,28.154,18h0a2.738,2.738,0,0,0,.054.908,1.365,1.365,0,0,0,.649.3,12.544,12.544,0,0,1,1.4.389A2.276,2.276,0,0,1,31.479,21.6H27.138a3.884,3.884,0,0,0-1.73-1.611,3.63,3.63,0,0,0-1.335-.281s-.205-.324.47-.449a4.608,4.608,0,0,0,1.038-.362C25.684,18.782,25.613,18.052,25.613,18.052Z" transform="translate(653.539 1134.512)" fill="#00a3be"/>
    </g>
  </g>
</svg>
