<svg xmlns="http://www.w3.org/2000/svg" xmlns:xlink="http://www.w3.org/1999/xlink" width="190" height="191.385" viewBox="0 0 190 191.385">
  <defs>
    <clipPath id="clip-path">
      <rect id="Rectángulo_56256" data-name="Rectángulo 56256" width="190" height="191.385" fill="none"/>
    </clipPath>
    <clipPath id="clip-path-2">
      <rect id="Rectángulo_56266" data-name="Rectángulo 56266" width="66.847" height="89.782" fill="none" stroke="#00a3be" stroke-width="1"/>
    </clipPath>
  </defs>
  <g id="Grupo_181409" data-name="Grupo 181409" transform="translate(-390 -911)">
    <g id="Grupo_181041" data-name="Grupo 181041" transform="translate(390 911)">
      <g id="Grupo_181032" data-name="Grupo 181032" clip-path="url(#clip-path)">
        <path id="Trazado_209376" data-name="Trazado 209376" d="M51.376,223.6h87.248C167,223.6,190,202.592,190,176.679V97c0-25.913-23-46.918-51.376-46.918H51.376C23,50.083,0,71.089,0,97v79.678C0,202.592,23,223.6,51.376,223.6" transform="translate(0 -32.213)" fill="#036872"/>
        <path id="Trazado_209377" data-name="Trazado 209377" d="M51.376,173.515h87.248C167,173.515,190,152.509,190,126.6V46.918C190,21.006,167,0,138.624,0H51.376C23,0,0,21.006,0,46.918V126.6c0,25.912,23,46.918,51.376,46.918" transform="translate(0)" fill="#00a3be"/>
        <path id="Trazado_209378" data-name="Trazado 209378" d="M198.244,151.038V70.994c0-18.379-16.315-33.279-36.441-33.279H74.155c-20.126,0-36.441,14.9-36.441,33.279v80.044c0,18.379,16.315,33.279,36.441,33.279H161.8c20.126,0,36.441-14.9,36.441-33.279" transform="translate(-22.979 -24.258)" fill="#fff"/>
      </g>
    </g>
    <g id="Grupo_181050" data-name="Grupo 181050" transform="translate(451.576 954.109)">
      <path id="Trazado_209396" data-name="Trazado 209396" d="M61.13,20.231,76.438,35.2H56.613V20.231" transform="translate(-15.121 -5.404)" fill="none" stroke="#00a3be" stroke-linecap="round" stroke-linejoin="round" stroke-width="3.248"/>
      <g id="Grupo_181049" data-name="Grupo 181049" transform="translate(0 0)">
        <g id="Grupo_181048" data-name="Grupo 181048" clip-path="url(#clip-path-2)">
          <path id="Trazado_209397" data-name="Trazado 209397" d="M18.692,14.2h-9.3a1.825,1.825,0,0,0-1.845,1.8V86.786a1.825,1.825,0,0,0,1.845,1.8h52.1a1.825,1.825,0,0,0,1.844-1.8V33.59L48.024,18.622" transform="translate(-2.015 -3.794)" fill="none" stroke="#00a3be" stroke-linecap="round" stroke-linejoin="round" stroke-width="3.248"/>
          <line id="Línea_651" data-name="Línea 651" x1="27.729" transform="translate(25.685 73.986)" fill="none" stroke="#00a3be" stroke-linecap="round" stroke-linejoin="round" stroke-width="3.248"/>
          <line id="Línea_652" data-name="Línea 652" x1="27.729" transform="translate(25.685 57.56)" fill="none" stroke="#00a3be" stroke-linecap="round" stroke-linejoin="round" stroke-width="3.248"/>
          <line id="Línea_653" data-name="Línea 653" x1="27.729" transform="translate(25.685 41.133)" fill="none" stroke="#00a3be" stroke-linecap="round" stroke-linejoin="round" stroke-width="3.248"/>
          <line id="Línea_654" data-name="Línea 654" x1="10.227" transform="translate(25.686 24.707)" fill="none" stroke="#00a3be" stroke-linecap="round" stroke-linejoin="round" stroke-width="3.248"/>
          <rect id="Rectángulo_56264" data-name="Rectángulo 56264" width="8.678" height="8.678" transform="translate(13.288 69.647)" fill="none" stroke="#00a3be" stroke-linecap="round" stroke-linejoin="round" stroke-width="3.248"/>
          <path id="Trazado_209398" data-name="Trazado 209398" d="M26.809,50.943v8.136H18.13V54.662" transform="translate(-4.842 -13.606)" fill="none" stroke="#00a3be" stroke-linecap="round" stroke-linejoin="round" stroke-width="3.248"/>
          <line id="Línea_655" data-name="Línea 655" x2="5.061" transform="translate(16.507 36.794)" fill="none" stroke="#00a3be" stroke-linecap="round" stroke-linejoin="round" stroke-width="3.248"/>
          <path id="Trazado_209399" data-name="Trazado 209399" d="M18.291,49.13l4.144,6.446,5.547-8.61" transform="translate(-4.885 -12.544)" fill="none" stroke="#00a3be" stroke-linecap="round" stroke-linejoin="round" stroke-width="3.248"/>
          <path id="Trazado_209400" data-name="Trazado 209400" d="M26.809,73.3v8.136H18.13V77.022" transform="translate(-4.842 -19.578)" fill="none" stroke="#00a3be" stroke-linecap="round" stroke-linejoin="round" stroke-width="3.248"/>
          <line id="Línea_656" data-name="Línea 656" x2="5.061" transform="translate(16.507 53.182)" fill="none" stroke="#00a3be" stroke-linecap="round" stroke-linejoin="round" stroke-width="3.248"/>
          <path id="Trazado_209401" data-name="Trazado 209401" d="M18.291,71.489l4.144,6.446,5.547-8.61" transform="translate(-4.885 -18.516)" fill="none" stroke="#00a3be" stroke-linecap="round" stroke-linejoin="round" stroke-width="3.248"/>
          <path id="Trazado_209402" data-name="Trazado 209402" d="M26.809,28.266V36.4H18.13V31.985" transform="translate(-4.842 -7.55)" fill="none" stroke="#00a3be" stroke-linecap="round" stroke-linejoin="round" stroke-width="3.248"/>
          <line id="Línea_657" data-name="Línea 657" x2="5.061" transform="translate(16.507 20.174)" fill="none" stroke="#00a3be" stroke-linecap="round" stroke-linejoin="round" stroke-width="3.248"/>
          <path id="Trazado_209403" data-name="Trazado 209403" d="M18.291,26.452,22.435,32.9l5.547-8.61" transform="translate(-4.885 -6.487)" fill="none" stroke="#00a3be" stroke-linecap="round" stroke-linejoin="round" stroke-width="3.248"/>
          <path id="Trazado_209404" data-name="Trazado 209404" d="M50.6,9.659H66.091V91.172H1.625V9.659H17.111" transform="translate(-0.434 -2.58)" fill="none" stroke="#00a3be" stroke-linecap="round" stroke-linejoin="round" stroke-width="3.248"/>
          <rect id="Rectángulo_56265" data-name="Rectángulo 56265" width="33.493" height="13.637" transform="translate(16.677 1.19)" fill="none" stroke="#00a3be" stroke-linecap="round" stroke-linejoin="round" stroke-width="3.248"/>
        </g>
      </g>
    </g>
  </g>
</svg>
