<svg xmlns="http://www.w3.org/2000/svg" xmlns:xlink="http://www.w3.org/1999/xlink" width="190" height="208" viewBox="0 0 190 208">
  <defs>
    <clipPath id="clip-path">
      <rect id="Rectángulo_56253" data-name="Rectángulo 56253" width="190" height="208" fill="none"/>
    </clipPath>
  </defs>
  <g id="Grupo_181407" data-name="Grupo 181407" transform="translate(-180 -672)">
    <g id="Grupo_181027" data-name="Grupo 181027" transform="translate(180 672)">
      <g id="Grupo_181026" data-name="Grupo 181026" clip-path="url(#clip-path)">
        <path id="Trazado_209367" data-name="Trazado 209367" d="M138.624,239.083H51.376A51.241,51.241,0,0,1,0,187.978V101.189A51.241,51.241,0,0,1,51.376,50.083h87.248A51.241,51.241,0,0,1,190,101.189v86.789a51.241,51.241,0,0,1-51.376,51.106" transform="translate(0 -30.618)" fill="#e5683c"/>
        <path id="Trazado_209368" data-name="Trazado 209368" d="M138.624,189H51.376A51.241,51.241,0,0,1,0,137.895V51.105A51.241,51.241,0,0,1,51.376,0h87.248A51.241,51.241,0,0,1,190,51.105v86.789A51.241,51.241,0,0,1,138.624,189" fill="#f37f4c"/>
        <path id="Trazado_209369" data-name="Trazado 209369" d="M37.715,161.151V73.964A36.345,36.345,0,0,1,74.156,37.715H161.8a36.345,36.345,0,0,1,36.441,36.249v87.187A36.345,36.345,0,0,1,161.8,197.4H74.156a36.345,36.345,0,0,1-36.441-36.249" transform="translate(-22.98 -23.057)" fill="#fff"/>
      </g>
    </g>
    <g id="Icon_ionic-ios-people" data-name="Icon ionic-ios-people" transform="translate(215.185 728.971)">
      <path id="Trazado_209385" data-name="Trazado 209385" d="M68.6,66.051c-2.909-1.039-7.661-1.091-9.765-1.9-1.454-.571-3.766-1.195-4.519-2.1s-.753-7.4-.753-7.4a11.956,11.956,0,0,0,2.571-3.636c.753-1.9,1.247-7.142,1.247-7.142s1.714.727,2.389-2.7c.571-2.961,1.662-4.519,1.376-6.7-.312-2.181-1.506-1.662-1.506-1.662S61.144,30.6,61.144,23.1c0-7.739-5.843-15.348-16.777-15.348-10.907,0-16.8,7.635-16.8,15.348,0,7.505,1.48,9.713,1.48,9.713s-1.221-.519-1.506,1.662c-.312,2.181.779,3.74,1.376,6.7.675,3.454,2.389,2.7,2.389,2.7s.493,5.22,1.247,7.142a11.956,11.956,0,0,0,2.571,3.636s0,6.493-.753,7.4S31.3,63.584,29.85,64.129c-2.078.805-6.83.909-9.765,1.948A18.328,18.328,0,0,0,8.191,83.529H80.466A18.292,18.292,0,0,0,68.6,66.051Z" transform="translate(16.098 0)" fill="#f37f4c"/>
      <path id="Trazado_209386" data-name="Trazado 209386" d="M30.392,44.086s6.207-.208,8.674-2.415c-4.025-6.1-1.844-13.219-2.675-19.867-.831-6.622-4.6-10.6-12.128-10.6h-.1c-7.272,0-11.193,3.947-12.024,10.6-.831,6.622,1.48,14.543-2.649,19.867,2.467,2.233,8.7,2.156,8.7,2.156h0s.26,3.74-.26,4.363a6.558,6.558,0,0,1-3.116,1.428,60.259,60.259,0,0,0-6.726,1.87c-2.026.7-5.869,4.467-5.869,9.661H23.069c.571-2.078,4.493-5.791,8.31-7.739,2.337-1.195,4.649-1.117,6.415-1.35,0,0,.987-1.558-2.259-2.156,0,0-4.467-1.117-4.986-1.74C30.055,47.592,30.392,44.086,30.392,44.086Z" transform="translate(0 9.318)" fill="#f37f4c"/>
      <path id="Trazado_209387" data-name="Trazado 209387" d="M32.482,44.086s-6.207-.208-8.674-2.415c4.025-6.1,1.844-13.219,2.675-19.867.831-6.622,4.6-10.6,12.128-10.6h.1c7.272,0,11.193,3.947,12.024,10.6.831,6.622-1.48,14.543,2.649,19.867-2.467,2.233-8.7,2.156-8.7,2.156h0s-.26,3.74.26,4.363a6.558,6.558,0,0,0,3.116,1.428,60.26,60.26,0,0,1,6.726,1.87c2.026.7,5.869,4.467,5.869,9.661H39.805c-.571-2.078-4.493-5.791-8.31-7.739-2.337-1.195-4.649-1.117-6.415-1.35,0,0-.987-1.558,2.259-2.156,0,0,4.467-1.117,4.986-1.74C32.819,47.592,32.482,44.086,32.482,44.086Z" transform="translate(58.161 9.318)" fill="#f37f4c"/>
    </g>
  </g>
</svg>
