<svg xmlns="http://www.w3.org/2000/svg" xmlns:xlink="http://www.w3.org/1999/xlink" width="190" height="204.692" viewBox="0 0 190 204.692">
  <defs>
    <clipPath id="clip-path">
      <rect id="Rect치ngulo_56256" data-name="Rect치ngulo 56256" width="190" height="204.692" fill="none"/>
    </clipPath>
    <clipPath id="clip-path-2">
      <rect id="Rect치ngulo_56263" data-name="Rect치ngulo 56263" width="92.565" height="84.661" fill="#00a3be"/>
    </clipPath>
  </defs>
  <g id="Grupo_181412" data-name="Grupo 181412" transform="translate(-810 -563)">
    <g id="Grupo_181033" data-name="Grupo 181033" transform="translate(810 563)">
      <g id="Grupo_181032" data-name="Grupo 181032" clip-path="url(#clip-path)">
        <path id="Trazado_209376" data-name="Trazado 209376" d="M51.376,235.663h87.248C167,235.663,190,213.2,190,185.482V100.264c0-27.714-23-50.181-51.376-50.181H51.376C23,50.083,0,72.549,0,100.264v85.218c0,27.714,23,50.181,51.376,50.181" transform="translate(0 -30.971)" fill="#036872"/>
        <path id="Trazado_209377" data-name="Trazado 209377" d="M51.376,185.58h87.248C167,185.58,190,163.113,190,135.4V50.18C190,22.466,167,0,138.624,0H51.376C23,0,0,22.466,0,50.181V135.4c0,27.714,23,50.181,51.376,50.181" transform="translate(0 0)" fill="#00a3be"/>
        <path id="Trazado_209378" data-name="Trazado 209378" d="M198.244,158.917V73.308c0-19.657-16.315-35.593-36.441-35.593H74.155c-20.126,0-36.441,15.935-36.441,35.593v85.61c0,19.657,16.315,35.593,36.441,35.593H161.8c20.126,0,36.441-15.935,36.441-35.593" transform="translate(-22.979 -23.322)" fill="#fff"/>
      </g>
    </g>
    <g id="Grupo_181047" data-name="Grupo 181047" transform="translate(861.218 622.786)">
      <g id="Grupo_181046" data-name="Grupo 181046" clip-path="url(#clip-path-2)">
        <path id="Trazado_209394" data-name="Trazado 209394" d="M27.061,32.919l6.757,6.757L3.138,42.131,5.592,11.45l6.758,6.757C32.643-3.585,76.672-9.089,92.083,34.391,76.948,15.678,41.174,7.147,27.061,32.919Z" transform="translate(-0.768 -0.405)" fill="#00a3be"/>
        <path id="Trazado_209395" data-name="Trazado 209395" d="M66.678,66.063l-6.757-6.757L90.6,56.851,88.146,87.532l-6.757-6.758C61.1,102.566,17.067,108.07,1.656,64.591,16.791,83.3,52.565,91.834,66.678,66.063Z" transform="translate(-0.405 -13.915)" fill="#00a3be"/>
      </g>
    </g>
  </g>
</svg>
