<svg xmlns="http://www.w3.org/2000/svg" width="139.76" height="139.024" viewBox="0 0 139.76 139.024">
  <g id="Grupo_181586" data-name="Grupo 181586" transform="translate(-284 -672)">
    <path id="Trazado_209368" data-name="Trazado 209368" d="M101.969,139.024H37.791A37.692,37.692,0,0,1,0,101.432V37.592A37.692,37.692,0,0,1,37.791,0h64.178A37.692,37.692,0,0,1,139.76,37.592v63.84a37.692,37.692,0,0,1-37.791,37.592" transform="translate(284 672)" fill="#00a3be"/>
    <path id="Trazado_209369" data-name="Trazado 209369" d="M37.715,128.512V64.379a26.735,26.735,0,0,1,26.8-26.664h64.472a26.735,26.735,0,0,1,26.8,26.664v64.133a26.735,26.735,0,0,1-26.8,26.664H64.52a26.735,26.735,0,0,1-26.8-26.664" transform="translate(257.124 645.067)" fill="#fff"/>
    <g id="Icon_ionic-ios-people" data-name="Icon ionic-ios-people" transform="translate(311.51 719.605)">
      <path id="Trazado_209385" data-name="Trazado 209385" d="M52.625,50.635c-2.14-.764-5.635-.8-7.183-1.395-1.07-.42-2.77-.879-3.324-1.547s-.554-5.444-.554-5.444a8.8,8.8,0,0,0,1.891-2.674,29.723,29.723,0,0,0,.917-5.253s1.261.535,1.757-1.987c.42-2.178,1.223-3.324,1.012-4.929-.229-1.6-1.108-1.223-1.108-1.223s1.108-1.624,1.108-7.145c0-5.693-4.3-11.29-12.341-11.29-8.023,0-12.36,5.616-12.36,11.29,0,5.521,1.089,7.145,1.089,7.145s-.9-.382-1.108,1.223c-.229,1.6.573,2.751,1.012,4.929.5,2.541,1.757,1.987,1.757,1.987a30.01,30.01,0,0,0,.917,5.253A8.8,8.8,0,0,0,28,42.248s0,4.776-.554,5.444-2.254,1.127-3.324,1.528c-1.528.592-5.024.669-7.183,1.433A13.482,13.482,0,0,0,8.191,63.491H61.355A13.455,13.455,0,0,0,52.625,50.635Z" transform="translate(8.046 -7.749)" fill="#00a3be"/>
      <path id="Trazado_209386" data-name="Trazado 209386" d="M22.942,35.392s4.566-.153,6.38-1.777C26.361,29.126,27.966,23.892,27.354,19c-.611-4.871-3.381-7.794-8.921-7.794h-.076c-5.349,0-8.233,2.9-8.845,7.794C8.9,23.873,10.6,29.7,7.564,33.616c1.815,1.643,6.4,1.586,6.4,1.586h0s.191,2.751-.191,3.209a4.824,4.824,0,0,1-2.292,1.051,44.326,44.326,0,0,0-4.948,1.375c-1.49.516-4.317,3.286-4.317,7.106h15.34c.42-1.528,3.3-4.26,6.113-5.693a12.828,12.828,0,0,1,4.718-.993s.726-1.146-1.662-1.586c0,0-3.286-.821-3.668-1.28C22.693,37.971,22.942,35.392,22.942,35.392Z" transform="translate(-2.215 -1.809)" fill="#00a3be"/>
      <path id="Trazado_209387" data-name="Trazado 209387" d="M30.188,35.392s-4.566-.153-6.38-1.777c2.961-4.489,1.356-9.723,1.968-14.614.611-4.871,3.381-7.794,8.921-7.794h.076c5.349,0,8.233,2.9,8.845,7.794.611,4.871-1.089,10.7,1.949,14.614-1.815,1.643-6.4,1.586-6.4,1.586h0s-.191,2.751.191,3.209a4.824,4.824,0,0,0,2.292,1.051A44.326,44.326,0,0,1,46.6,40.836c1.49.516,4.317,3.286,4.317,7.106H35.575c-.42-1.528-3.3-4.26-6.113-5.693a12.828,12.828,0,0,0-4.718-.993s-.726-1.146,1.662-1.586c0,0,3.286-.821,3.668-1.28C30.437,37.971,30.188,35.392,30.188,35.392Z" transform="translate(34.857 -1.809)" fill="#00a3be"/>
    </g>
  </g>
</svg>
