<svg xmlns="http://www.w3.org/2000/svg" xmlns:xlink="http://www.w3.org/1999/xlink" width="296" height="296" viewBox="0 0 296 296">
  <defs>
    <clipPath id="clip-path">
      <rect id="Rectángulo_54586" data-name="Rectángulo 54586" width="131.429" height="103.387" fill="none"/>
    </clipPath>
  </defs>
  <g id="Grupo_181407" data-name="Grupo 181407" transform="translate(-1126 -3193)">
    <circle id="Elipse_5398" data-name="Elipse 5398" cx="148" cy="148" r="148" transform="translate(1126 3193)" fill="#f37f4c"/>
    <g id="Grupo_178149" data-name="Grupo 178149" transform="translate(1204.571 3288.807)">
      <path id="Trazado_205914" data-name="Trazado 205914" d="M250.131,63.551,242.99,78.137l14.3.039Zm0,6.009,2.919,5.962-5.831-.016Z" transform="translate(-210.331 -55.009)" fill="#fff"/>
      <g id="Grupo_178148" data-name="Grupo 178148">
        <g id="Grupo_178147" data-name="Grupo 178147" clip-path="url(#clip-path)">
          <path id="Trazado_205915" data-name="Trazado 205915" d="M534.133,200.871a8.256,8.256,0,1,0-8.256,8.257,8.265,8.265,0,0,0,8.256-8.257m-13.87,0a5.614,5.614,0,1,1,5.614,5.615,5.62,5.62,0,0,1-5.614-5.615" transform="translate(-448.049 -166.726)" fill="#fff"/>
          <path id="Trazado_205916" data-name="Trazado 205916" d="M29.486,103.388H131.429V93.321h-6.757V82.735h6.757V72.669H112.308a15.337,15.337,0,0,0-10.365-26.661H91.874a3.168,3.168,0,0,0,.556-1.732l.061-22.59a3.29,3.29,0,0,0-1-2.331,4.936,4.936,0,0,0-3.5-1.35h-.014c-2.48,0-4.432,1.555-4.5,3.561A13.781,13.781,0,0,0,70.834,46.008H62.708a4.723,4.723,0,0,0,.628-1.55,6.334,6.334,0,0,0-.579-3.992L44.613,3.408A6.273,6.273,0,0,0,41.747.474L41.6.394A3.808,3.808,0,0,0,39.975,0c-.056,0-.112,0-.183,0h-.108A3.9,3.9,0,0,0,38,.393a1.417,1.417,0,0,0-.136.075,6.271,6.271,0,0,0-2.881,2.94L16.843,40.466a6.318,6.318,0,0,0-.578,3.992,4.712,4.712,0,0,0,.627,1.55H0V56.074H6.757V66.661H0V76.727H19.12a15.337,15.337,0,0,0,10.366,26.661m37.2-69.242A11.148,11.148,0,0,1,84.055,24.9a1.32,1.32,0,0,0,2.059-1.092l.006-2.138c0-.419.725-1.024,1.859-1.024h.006a2.365,2.365,0,0,1,1.631.571.7.7,0,0,1,.232.46l-.061,22.591a.876.876,0,0,1-.4.6,2.463,2.463,0,0,1-1.468.426c-1.005,0-1.777-.516-1.841-.975a1.32,1.32,0,0,0-2.045-.913,11.147,11.147,0,0,1-17.355-9.259M19.217,41.628,37.36,4.571a3.646,3.646,0,0,1,1.7-1.741l.08-.039c.031-.016.061-.034.09-.052a1.36,1.36,0,0,1,.5-.1h.149a1.339,1.339,0,0,1,.476.087l.187.1a3.65,3.65,0,0,1,1.7,1.741L60.384,41.628a3.727,3.727,0,0,1,.361,2.309,1.7,1.7,0,0,1-.821,1.226c-.958.469-2.368-.356-3.076-1.8L48.788,26.9l-17.952-.048L22.752,43.36c-.708,1.446-2.117,2.271-3.076,1.8a1.7,1.7,0,0,1-.821-1.226,3.726,3.726,0,0,1,.361-2.309m5.909,2.893L32.482,29.5l14.656.039,7.336,14.985a6.709,6.709,0,0,0,1,1.486H24.108a6.626,6.626,0,0,0,1.018-1.486M4.058,72.669v-1.95H99.447c5.709,0,10.352-4.2,10.352-9.352s-4.643-9.352-10.352-9.352H4.058v-1.95h97.885a11.3,11.3,0,0,1,0,22.6H4.058Zm5.423-6.008V56.074H99.447c3.47,0,6.293,2.375,6.293,5.293s-2.824,5.293-6.293,5.293Zm20,10.066H127.37v1.95H31.982c-5.709,0-10.353,4.2-10.353,9.352s4.644,9.352,10.353,9.352H127.37v1.95H29.486a11.3,11.3,0,1,1,0-22.6m92.461,6.008V93.321H31.982c-3.471,0-6.295-2.375-6.295-5.293s2.824-5.293,6.295-5.293Z" transform="translate(0 0)" fill="#fff"/>
        </g>
      </g>
    </g>
  </g>
</svg>
