<svg xmlns="http://www.w3.org/2000/svg" xmlns:xlink="http://www.w3.org/1999/xlink" width="49.93" height="52.478" viewBox="0 0 49.93 52.478">
  <defs>
    <clipPath id="clip-path">
      <rect id="Rectángulo_56290" data-name="Rectángulo 56290" width="49.93" height="52.478" fill="none"/>
    </clipPath>
  </defs>
  <g id="Grupo_181109" data-name="Grupo 181109" transform="translate(0 0)">
    <rect id="Rectángulo_56286" data-name="Rectángulo 56286" width="8.493" height="11.466" transform="translate(40.89 8.191)" fill="#fff"/>
    <g id="Grupo_181108" data-name="Grupo 181108" transform="translate(0 0)">
      <g id="Grupo_181107" data-name="Grupo 181107" clip-path="url(#clip-path)">
        <path id="Trazado_209416" data-name="Trazado 209416" d="M58.863,22H50.37a.547.547,0,0,1-.547-.547V9.987a.547.547,0,0,1,.547-.547h8.493a.547.547,0,0,1,0,1.094H50.917V20.906h7.946a.547.547,0,0,1,0,1.093" transform="translate(-9.481 -1.796)" fill="#001226"/>
        <rect id="Rectángulo_56287" data-name="Rectángulo 56287" width="11.466" height="8.493" transform="translate(32.821 43.437)" fill="#fff"/>
        <path id="Trazado_209417" data-name="Trazado 209417" d="M51.872,62.558a.546.546,0,0,1-.547-.547V54.065H40.953v7.946a.547.547,0,0,1-1.094,0V53.518a.547.547,0,0,1,.547-.547H51.872a.546.546,0,0,1,.547.547v8.494a.546.546,0,0,1-.547.547" transform="translate(-7.585 -10.08)" fill="#001226"/>
        <rect id="Rectángulo_56288" data-name="Rectángulo 56288" width="8.493" height="11.466" transform="translate(0.547 32.821)" fill="#fff"/>
        <path id="Trazado_209418" data-name="Trazado 209418" d="M9.04,52.418H.547a.547.547,0,1,1,0-1.094H8.494V40.953H.547a.547.547,0,1,1,0-1.094H9.04a.546.546,0,0,1,.547.547V51.872a.546.546,0,0,1-.547.547" transform="translate(0 -7.585)" fill="#001226"/>
        <rect id="Rectángulo_56289" data-name="Rectángulo 56289" width="11.465" height="8.493" transform="translate(5.643 0.547)" fill="#fff"/>
        <path id="Trazado_209419" data-name="Trazado 209419" d="M18.306,9.587H6.84a.547.547,0,0,1-.547-.547V.547a.547.547,0,0,1,1.094,0V8.493H17.759V.547a.547.547,0,0,1,1.093,0V9.04a.546.546,0,0,1-.547.547" transform="translate(-1.198 0)" fill="#001226"/>
        <path id="Trazado_209420" data-name="Trazado 209420" d="M6.145,20.6V32.93s-.532,1.552-.808,2.564a17.073,17.073,0,0,0-.466,3v7.24a1.274,1.274,0,1,0,2.547,0v2.526a1.7,1.7,0,1,0,3.4,0,1.7,1.7,0,1,0,3.4,0,1.7,1.7,0,1,0,3.4,0V36.742h3.415s.083-4.581-2.991-6.244V20.6Z" transform="translate(-0.927 -3.921)" fill="#fff"/>
        <path id="Trazado_209421" data-name="Trazado 209421" d="M15.784,50.382a2.243,2.243,0,0,1-1.7-.778,2.243,2.243,0,0,1-3.4,0,2.245,2.245,0,0,1-3.944-1.467v-.857A1.82,1.82,0,0,1,4.2,45.61V38.369c0-.011,0-.02,0-.031a17.432,17.432,0,0,1,.484-3.118c.243-.89.672-2.165.789-2.51V20.476a.547.547,0,0,1,1.094,0V32.8a.547.547,0,0,1-.03.177c0,.015-.53,1.548-.8,2.53a16.6,16.6,0,0,0-.447,2.878V45.61a.727.727,0,0,0,1.454,0,.547.547,0,1,1,1.094,0v2.526a1.152,1.152,0,0,0,2.3,0,.547.547,0,1,1,1.094,0,1.152,1.152,0,0,0,2.3,0,.547.547,0,1,1,1.093,0,1.152,1.152,0,0,0,2.3,0V36.613a.546.546,0,0,1,.547-.547h2.846c-.089-1.194-.53-4.053-2.682-5.215a.547.547,0,0,1-.287-.481V20.476a.547.547,0,0,1,1.094,0v9.58c3.039,1.908,2.994,6.372,2.99,6.567a.546.546,0,0,1-.547.537H18.029V48.137a2.248,2.248,0,0,1-2.245,2.245" transform="translate(-0.798 -3.792)" fill="#001226"/>
        <path id="Trazado_209422" data-name="Trazado 209422" d="M16.281,53.475a.546.546,0,0,1-.547-.547V45.651a.547.547,0,0,1,1.093,0v7.278a.546.546,0,0,1-.547.547" transform="translate(-2.994 -8.583)" fill="#003887"/>
        <path id="Trazado_209423" data-name="Trazado 209423" d="M12.086,53.475a.546.546,0,0,1-.547-.547V45.651a.547.547,0,0,1,1.093,0v7.278a.546.546,0,0,1-.547.547" transform="translate(-2.196 -8.583)" fill="#003887"/>
        <path id="Trazado_209424" data-name="Trazado 209424" d="M7.89,51.047a.546.546,0,0,1-.547-.547V46.175a.547.547,0,0,1,1.093,0V50.5a.546.546,0,0,1-.547.547" transform="translate(-1.397 -8.682)" fill="#003887"/>
        <path id="Trazado_209425" data-name="Trazado 209425" d="M16.281,53.475a.546.546,0,0,1-.547-.547V45.651a.547.547,0,0,1,1.093,0v7.278a.546.546,0,0,1-.547.547" transform="translate(-2.994 -8.583)" fill="#001226"/>
        <path id="Trazado_209426" data-name="Trazado 209426" d="M12.086,53.475a.546.546,0,0,1-.547-.547V45.651a.547.547,0,0,1,1.093,0v7.278a.546.546,0,0,1-.547.547" transform="translate(-2.196 -8.583)" fill="#001226"/>
        <path id="Trazado_209427" data-name="Trazado 209427" d="M7.89,51.047a.546.546,0,0,1-.547-.547V46.175a.547.547,0,0,1,1.093,0V50.5a.546.546,0,0,1-.547.547" transform="translate(-1.397 -8.682)" fill="#001226"/>
        <path id="Trazado_209428" data-name="Trazado 209428" d="M34.159,9.292H21.834s-1.552-.532-2.564-.808a17.073,17.073,0,0,0-3-.466H9.025a1.274,1.274,0,1,0,0,2.547H6.5a1.7,1.7,0,1,0,0,3.4,1.7,1.7,0,0,0,0,3.4,1.7,1.7,0,1,0,0,3.4H18.022v3.416s4.581.083,6.244-2.991h9.894Z" transform="translate(-0.913 -1.525)" fill="#fff"/>
        <path id="Trazado_209429" data-name="Trazado 209429" d="M17.942,24.592h-.059a.546.546,0,0,1-.537-.547V21.176H6.37A2.244,2.244,0,0,1,4.9,17.232a2.242,2.242,0,0,1,0-3.4A2.244,2.244,0,0,1,6.37,9.89h.857A1.82,1.82,0,0,1,8.9,7.343h7.271a17.331,17.331,0,0,1,3.118.484c.891.243,2.165.671,2.51.789H34.03a.547.547,0,1,1,0,1.093H21.705a.554.554,0,0,1-.177-.029c-.015-.006-1.547-.53-2.53-.8a16.611,16.611,0,0,0-2.878-.447H8.9a.727.727,0,0,0,0,1.454.547.547,0,0,1,0,1.094H6.37a1.152,1.152,0,1,0,0,2.3.547.547,0,0,1,0,1.094,1.152,1.152,0,1,0,0,2.3.547.547,0,0,1,0,1.093,1.152,1.152,0,1,0,0,2.3H17.893a.548.548,0,0,1,.547.547v2.846c1.194-.089,4.052-.53,5.215-2.682a.548.548,0,0,1,.482-.287H34.03a.547.547,0,1,1,0,1.093H24.45c-1.815,2.89-5.938,2.992-6.508,2.992" transform="translate(-0.785 -1.397)" fill="#001226"/>
        <path id="Trazado_209430" data-name="Trazado 209430" d="M14.046,19.974H6.769a.547.547,0,1,1,0-1.094h7.277a.547.547,0,0,1,0,1.094" transform="translate(-1.184 -3.592)" fill="#001226"/>
        <path id="Trazado_209431" data-name="Trazado 209431" d="M14.046,15.779H6.769a.547.547,0,1,1,0-1.094h7.277a.547.547,0,0,1,0,1.094" transform="translate(-1.184 -2.794)" fill="#001226"/>
        <path id="Trazado_209432" data-name="Trazado 209432" d="M14.215,11.583H9.889a.547.547,0,1,1,0-1.094h4.325a.547.547,0,0,1,0,1.094" transform="translate(-1.778 -1.996)" fill="#001226"/>
        <path id="Trazado_209433" data-name="Trazado 209433" d="M51.722,34.758V24.981s.531-1.552.807-2.564a16.988,16.988,0,0,0,.466-3v-7.24a1.274,1.274,0,1,0-2.547,0V9.645a1.7,1.7,0,0,0-3.4,0,1.7,1.7,0,0,0-3.4,0,1.7,1.7,0,0,0-3.4,0V21.169H36.84s-.083,4.581,2.992,6.243v7.346Z" transform="translate(-7.01 -1.512)" fill="#fff"/>
        <path id="Trazado_209434" data-name="Trazado 209434" d="M51.594,35.176a.547.547,0,0,1-.547-.547V24.852a.546.546,0,0,1,.029-.177c.006-.015.53-1.548.8-2.53a16.509,16.509,0,0,0,.448-2.878V12.043a.728.728,0,0,0-1.455,0,.547.547,0,1,1-1.093,0V9.516a1.152,1.152,0,0,0-2.3,0,.546.546,0,1,1-1.092,0,1.152,1.152,0,0,0-2.3,0,.547.547,0,0,1-1.094,0,1.151,1.151,0,1,0-2.3,0V21.04a.548.548,0,0,1-.548.547H37.281c.09,1.194.531,4.053,2.682,5.215a.545.545,0,0,1,.287.481v7.346a.546.546,0,1,1-1.092,0V27.6c-3.04-1.908-3-6.372-2.991-6.567a.546.546,0,0,1,.546-.537H39.58V9.516a2.245,2.245,0,0,1,3.945-1.467,2.243,2.243,0,0,1,3.4,0,2.244,2.244,0,0,1,3.943,1.467v.857a1.821,1.821,0,0,1,2.548,1.669v7.272a17.387,17.387,0,0,1-.485,3.118c-.242.891-.67,2.165-.788,2.51v9.687a.547.547,0,0,1-.547.547" transform="translate(-6.882 -1.383)" fill="#001226"/>
        <path id="Trazado_209435" data-name="Trazado 209435" d="M45.127,17.74a.546.546,0,0,1-.547-.547V9.916a.547.547,0,1,1,1.093,0v7.278a.546.546,0,0,1-.547.547" transform="translate(-8.483 -1.783)" fill="#001226"/>
        <path id="Trazado_209436" data-name="Trazado 209436" d="M49.322,17.74a.546.546,0,0,1-.547-.547V9.916a.547.547,0,1,1,1.093,0v7.278a.546.546,0,0,1-.547.547" transform="translate(-9.282 -1.783)" fill="#001226"/>
        <path id="Trazado_209437" data-name="Trazado 209437" d="M53.518,18.333a.546.546,0,0,1-.547-.547V13.036a.547.547,0,1,1,1.093,0v4.751a.546.546,0,0,1-.547.547" transform="translate(-10.08 -2.376)" fill="#001226"/>
        <path id="Trazado_209438" data-name="Trazado 209438" d="M21.129,51.722h11.9s1.553.532,2.564.808a17.073,17.073,0,0,0,3,.466h7.241a1.274,1.274,0,0,0,0-2.547h2.526a1.7,1.7,0,1,0,0-3.4,1.7,1.7,0,1,0,0-3.4,1.7,1.7,0,1,0,0-3.4H36.841V36.84s-4.581-.083-6.243,2.991h-9.47Z" transform="translate(-4.021 -7.01)" fill="#fff"/>
        <path id="Trazado_209439" data-name="Trazado 209439" d="M45.71,53.414H38.439a17.367,17.367,0,0,1-3.118-.485c-.891-.242-2.165-.671-2.51-.788H21a.547.547,0,0,1,0-1.094H32.9a.533.533,0,0,1,.177.03c.015,0,1.547.53,2.53.8a16.444,16.444,0,0,0,2.878.447H45.71a.727.727,0,0,0,0-1.454.547.547,0,0,1,0-1.093h2.526a1.152,1.152,0,1,0,0-2.3.547.547,0,0,1,0-1.094,1.152,1.152,0,1,0,0-2.3.547.547,0,0,1,0-1.094,1.152,1.152,0,1,0,0-2.3H36.714a.547.547,0,0,1-.547-.547V37.281c-1.194.089-4.052.53-5.215,2.682a.547.547,0,0,1-.481.287H21a.547.547,0,0,1,0-1.094h9.156c1.908-3.039,6.372-3,6.567-2.991a.547.547,0,0,1,.537.547V39.58H48.237A2.245,2.245,0,0,1,49.7,43.525a2.243,2.243,0,0,1,0,3.4,2.245,2.245,0,0,1-1.467,3.944H47.38a1.821,1.821,0,0,1-1.67,2.548" transform="translate(-3.892 -6.881)" fill="#001226"/>
        <path id="Trazado_209440" data-name="Trazado 209440" d="M52.927,45.673H45.65a.547.547,0,1,1,0-1.094h7.277a.547.547,0,0,1,0,1.094" transform="translate(-8.583 -8.483)" fill="#001226"/>
        <path id="Trazado_209441" data-name="Trazado 209441" d="M52.927,49.869H45.65a.547.547,0,1,1,0-1.094h7.277a.547.547,0,0,1,0,1.094" transform="translate(-8.583 -9.281)" fill="#001226"/>
        <path id="Trazado_209442" data-name="Trazado 209442" d="M50.5,54.064H46.175a.547.547,0,1,1,0-1.094H50.5a.547.547,0,0,1,0,1.094" transform="translate(-8.683 -10.08)" fill="#001226"/>
      </g>
    </g>
  </g>
</svg>
