<svg id="Grupo_181111" data-name="Grupo 181111" xmlns="http://www.w3.org/2000/svg" xmlns:xlink="http://www.w3.org/1999/xlink" width="48.311" height="50.168" viewBox="0 0 48.311 50.168">
  <defs>
    <clipPath id="clip-path">
      <rect id="Rectángulo_56291" data-name="Rectángulo 56291" width="48.311" height="50.168" fill="none"/>
    </clipPath>
  </defs>
  <g id="Grupo_181110" data-name="Grupo 181110" clip-path="url(#clip-path)">
    <path id="Trazado_209443" data-name="Trazado 209443" d="M164.169,47.66l.906-2.244.557-1.38a.978.978,0,0,0-1.428-1.2l-1.235.808-2.057,1.346a8.346,8.346,0,0,0-3.564-.8h-6.133L141.49,61.5h15.86a8.67,8.67,0,0,0,6.82-13.84" transform="translate(-118.103 -35.616)" fill="#32d9cb"/>
    <path id="Trazado_209444" data-name="Trazado 209444" d="M154.653,59.333h-15.86a.534.534,0,0,1-.466-.8l9.727-17.312a.534.534,0,0,1,.466-.272h6.133a8.823,8.823,0,0,1,3.517.726l3.046-1.995a1.473,1.473,0,0,1,1.771.1,1.5,1.5,0,0,1,.445,1.756l-1.354,3.351a9.2,9.2,0,0,1-7.425,14.446m-14.947-1.068h14.947a8.136,8.136,0,0,0,6.391-12.987.535.535,0,0,1-.066-.518l1.464-3.624a.446.446,0,0,0-.133-.53.41.41,0,0,0-.508-.028l-3.291,2.155a.533.533,0,0,1-.52.036,7.776,7.776,0,0,0-3.337-.748h-5.82Z" transform="translate(-115.406 -32.916)" fill="#001226"/>
    <path id="Trazado_209445" data-name="Trazado 209445" d="M25.905,5.218H14.385a10.914,10.914,0,0,0-4.66,1.045L7.035,4.5,5.421,3.445A1.279,1.279,0,0,0,3.553,5.02l.729,1.8L5.467,9.759a11.362,11.362,0,0,0,6.841,17.9H29.722l1.989-1.467A11.344,11.344,0,0,0,25.905,5.218" transform="translate(-2.697 -2.698)" fill="#00a3be"/>
    <path id="Trazado_209446" data-name="Trazado 209446" d="M27.025,25.492H9.611a.521.521,0,0,1-.1-.01,11.9,11.9,0,0,1-7.345-18.5L.361,2.521A1.805,1.805,0,0,1,.9.415,1.765,1.765,0,0,1,3.016.3L7.074,2.956a11.383,11.383,0,0,1,4.614-.971H23.208a11.878,11.878,0,0,1,6.106,21.948l-1.972,1.455a.534.534,0,0,1-.317.1M9.663,24.424H26.85L28.7,23.061l.035-.024A10.809,10.809,0,0,0,23.208,3.053H11.688a10.336,10.336,0,0,0-4.433.994.533.533,0,0,1-.52-.036l-4.3-2.818a.7.7,0,0,0-.858.047.747.747,0,0,0-.221.881L3.266,6.86a.534.534,0,0,1-.066.518A10.828,10.828,0,0,0,9.663,24.424" transform="translate(0 0)" fill="#001226"/>
    <path id="Trazado_209447" data-name="Trazado 209447" d="M70.562,140.3l-5.987-8.044a.852.852,0,0,0-1.212-.125L59.99,134.74l-.71.538.026.043a7.049,7.049,0,0,0-7.148-2.138l-7.019,2.478.1-.174-.288-.209-.71-.538-3.373-2.608a.852.852,0,0,0-1.212.125L33.672,140.3a1.1,1.1,0,0,0,.258,1.511l3.206,2.479.386.273a5.362,5.362,0,0,0,.623,2.919h0l-1.466,1.065a1.894,1.894,0,0,0-.209,2.6,1.8,1.8,0,0,0,2.476.653l2.522-1.833.011.009-1.745,1.266a1.861,1.861,0,0,0-.217,2.571h0a1.8,1.8,0,0,0,2.468.624l2.769-2.008h0l-1.246.9a1.884,1.884,0,0,0-.426,2.6,1.822,1.822,0,0,0,2.559.432l.871-.632a1.835,1.835,0,0,0-.26,2.395l.052.074a1.778,1.778,0,0,0,2.5.421l2.143-1.554h0l-.8.583,1.868,1.408c1.272.959,2.887.934,3.588-.055a2.517,2.517,0,0,0-.511-3.057l.109-.074.869.562a2.185,2.185,0,0,0,3-3.174l.066-.044.933.679a2.186,2.186,0,0,0,3.029-.672h0a2.341,2.341,0,0,0,.055-2.715l.1-.066a2.148,2.148,0,0,0,2.948-.772,2.388,2.388,0,0,0,.118-2.723l.013.006a5.1,5.1,0,0,0,.387-2.389l.386-.273,3.206-2.479a1.1,1.1,0,0,0,.258-1.511" transform="translate(-27.942 -110.129)" fill="#fff"/>
    <path id="Trazado_209448" data-name="Trazado 209448" d="M54.63,55.4H53.9V52.387H45.768a2.1,2.1,0,0,0-2.08,2.111v6.137a2.1,2.1,0,0,0,2.08,2.111H53.9V59.167h.735a1.884,1.884,0,0,0,0-3.768" transform="translate(-36.467 -43.728)" fill="#fff"/>
    <path id="Trazado_209449" data-name="Trazado 209449" d="M107.913,255.906a2.346,2.346,0,0,1-.384-.032,2.3,2.3,0,0,1-1.516-.953l-.052-.074a2.371,2.371,0,0,1,.538-3.272l5.094-3.695a2.312,2.312,0,0,1,3.246.546h0l.052.074a2.371,2.371,0,0,1-.539,3.272l-5.094,3.695a2.283,2.283,0,0,1-1.346.439m5.029-7.4a1.224,1.224,0,0,0-.722.235l-5.094,3.695a1.3,1.3,0,0,0-.292,1.793l.052.074a1.243,1.243,0,0,0,.818.514,1.225,1.225,0,0,0,.928-.218l5.094-3.695a1.3,1.3,0,0,0,.292-1.793l-.052-.074a1.253,1.253,0,0,0-1.024-.532" transform="translate(-88.088 -206.541)" fill="#001226"/>
    <path id="Trazado_209450" data-name="Trazado 209450" d="M88.679,240.9a2.38,2.38,0,0,1-.392-.033,2.347,2.347,0,0,1-1.545-.971,2.417,2.417,0,0,1,.549-3.336l5.453-3.955a2.356,2.356,0,0,1,3.309.557A2.417,2.417,0,0,1,95.5,236.5l-5.453,3.955a2.327,2.327,0,0,1-1.372.447m5.44-7.674a1.267,1.267,0,0,0-.748.244l-5.453,3.955a1.345,1.345,0,0,0-.3,1.856,1.288,1.288,0,0,0,.847.533,1.271,1.271,0,0,0,.961-.226l5.453-3.955a1.345,1.345,0,0,0,.3-1.856,1.287,1.287,0,0,0-.847-.533,1.3,1.3,0,0,0-.214-.018" transform="translate(-72.039 -193.782)" fill="#001226"/>
    <path id="Trazado_209451" data-name="Trazado 209451" d="M66.884,224.917a2.213,2.213,0,0,1-.362-.03,2.619,2.619,0,0,1-1.683-1.092,2.389,2.389,0,0,1,.34-3.311l6.49-4.707a2.023,2.023,0,0,1,1.535-.343,2.618,2.618,0,0,1,1.683,1.092,2.389,2.389,0,0,1-.34,3.311l-6.49,4.707a1.985,1.985,0,0,1-1.173.373m5.956-8.446a.91.91,0,0,0-.543.17l-6.49,4.708a1.346,1.346,0,0,0-.094,1.831,1.545,1.545,0,0,0,.985.654.962.962,0,0,0,.732-.154l6.49-4.707a1.346,1.346,0,0,0,.094-1.831,1.545,1.545,0,0,0-.985-.653,1.149,1.149,0,0,0-.189-.016m-.857-.262h0Z" transform="translate(-53.701 -179.799)" fill="#001226"/>
    <path id="Trazado_209452" data-name="Trazado 209452" d="M48.445,208.624a2.21,2.21,0,0,1-.365-.031,2.649,2.649,0,0,1-1.7-1.119,2.423,2.423,0,0,1,.333-3.341l6.491-4.717a2.006,2.006,0,0,1,1.526-.339,2.649,2.649,0,0,1,1.7,1.119,2.423,2.423,0,0,1-.333,3.341l-6.491,4.717a1.962,1.962,0,0,1-1.161.37m5.385-8.343L47.339,205a1.38,1.38,0,0,0-.084,1.866,1.576,1.576,0,0,0,1,.676.941.941,0,0,0,.72-.15l6.491-4.717a1.381,1.381,0,0,0,.084-1.866,1.577,1.577,0,0,0-1-.676.942.942,0,0,0-.72.15" transform="translate(-38.289 -166.146)" fill="#001226"/>
    <path id="Trazado_209453" data-name="Trazado 209453" d="M193.94,144.792a.534.534,0,0,1-.5-.729,4.672,4.672,0,0,0,.356-2.118.539.539,0,0,1,.22-.512l.376-.266,3.2-2.472a.566.566,0,0,0,.156-.77l-5.987-8.044a.262.262,0,0,0-.179-.1.378.378,0,0,0-.278.081l-3.373,2.608-.714.541a.534.534,0,0,1-.645-.851l.71-.538,3.369-2.605a1.454,1.454,0,0,1,1.077-.294,1.324,1.324,0,0,1,.89.523l5.987,8.044a1.637,1.637,0,0,1-.359,2.252l-3.206,2.479-.019.014-.142.1a6.1,6.1,0,0,1-.442,2.32.534.534,0,0,1-.5.339" transform="translate(-155.557 -107.434)" fill="#001226"/>
    <path id="Trazado_209454" data-name="Trazado 209454" d="M145.056,233.576a3.151,3.151,0,0,1-1.831-.6l-1.493-.965a.534.534,0,1,1,.58-.9l1.5.973.024.017a2.028,2.028,0,0,0,1.507.382,1.514,1.514,0,0,0,1.005-.61,1.853,1.853,0,0,0-.6-2.509l-7.278-5.295a.534.534,0,1,1,.628-.864l7.278,5.3a2.92,2.92,0,0,1,.841,3.989,2.573,2.573,0,0,1-1.7,1.047,2.861,2.861,0,0,1-.466.038" transform="translate(-115.406 -186.228)" fill="#001226"/>
    <path id="Trazado_209455" data-name="Trazado 209455" d="M100.7,153.6a2.236,2.236,0,0,1-1.326-.423l-5.8-4.225a.534.534,0,0,1,.629-.863l5.8,4.225a1.22,1.22,0,0,0,.934.2,1.978,1.978,0,0,0,1.262-.845,1.745,1.745,0,0,0-.121-2.362l-7.718-5.626-1.713-1.2-2.5-1.666L81.123,144a2.951,2.951,0,0,1-2.283-.13,3,3,0,0,1-1.544-1.743,3.054,3.054,0,0,1,1.848-3.867l9.275-3.274a6.765,6.765,0,0,1,3.189-.185c1.655.278,4.062,1.28,6.125,4.471a.534.534,0,1,1-.9.58c-3.518-5.441-8.012-3.878-8.057-3.861l-9.28,3.276a1.982,1.982,0,0,0-1.194,2.513,1.945,1.945,0,0,0,1,1.128,1.89,1.89,0,0,0,1.462.085l9.275-3.274a.534.534,0,0,1,.474.059l2.73,1.821,1.732,1.213,7.726,5.632a2.782,2.782,0,0,1,.367,3.837,3.05,3.05,0,0,1-1.962,1.287,2.509,2.509,0,0,1-.413.035" transform="translate(-64.382 -112.432)" fill="#001226"/>
    <path id="Trazado_209456" data-name="Trazado 209456" d="M151.573,213.825a2.431,2.431,0,0,1-1.439-.462l-8.157-5.935a.534.534,0,0,1,.628-.864l8.157,5.935a1.407,1.407,0,0,0,1.066.237,1.885,1.885,0,0,0,1.212-.785,1.723,1.723,0,0,0-.223-2.387l-8.157-5.935a.534.534,0,0,1,.628-.864l8.157,5.935a2.79,2.79,0,0,1,.467,3.867A2.959,2.959,0,0,1,152,213.79a2.64,2.64,0,0,1-.43.036" transform="translate(-118.326 -169.164)" fill="#001226"/>
    <path id="Trazado_209457" data-name="Trazado 209457" d="M35.456,145.321a.534.534,0,0,1-.479-.3,6.293,6.293,0,0,1-.7-2.893l-.142-.1-.019-.014-3.206-2.479a1.637,1.637,0,0,1-.359-2.252l5.987-8.044a1.324,1.324,0,0,1,.89-.523,1.453,1.453,0,0,1,1.077.294l3.373,2.608.985.738a.534.534,0,0,1-.628.864l-.288-.209-.718-.544-3.377-2.611a.377.377,0,0,0-.278-.081.263.263,0,0,0-.179.1l-5.987,8.044a.566.566,0,0,0,.156.77l3.2,2.472.376.266a.534.534,0,0,1,.22.515,4.937,4.937,0,0,0,.573,2.6.534.534,0,0,1-.478.772" transform="translate(-25.254 -107.433)" fill="#001226"/>
    <path id="Trazado_209458" data-name="Trazado 209458" d="M135.424,273.7a3.847,3.847,0,0,1-2.284-.811l-1.868-1.408a.534.534,0,0,1,.643-.853l1.868,1.408a2.67,2.67,0,0,0,1.943.573,1.309,1.309,0,0,0,.888-.511c.529-.745.106-2.03-.923-2.806l-.013-.011-.664-.535a.534.534,0,0,1,.67-.832l.658.53c1.5,1.134,2.012,3.049,1.144,4.272a2.368,2.368,0,0,1-1.6.949,3.047,3.047,0,0,1-.465.035" transform="translate(-109.396 -223.535)" fill="#001226"/>
    <path id="Trazado_209459" data-name="Trazado 209459" d="M88.331,157.092a.534.534,0,0,1-.114-1.056,4.377,4.377,0,0,0,1.09-.339,1.115,1.115,0,0,0,.576-.622,1.971,1.971,0,0,0,.009-.717c-.036-.346-.1-.417-.109-.428a.534.534,0,1,1,.485-.951,1.516,1.516,0,0,1,.686,1.267,2.85,2.85,0,0,1-.046,1.128,2.147,2.147,0,0,1-1.1,1.266,5.259,5.259,0,0,1-1.36.438.542.542,0,0,1-.115.013" transform="translate(-73.285 -127.646)" fill="#001226"/>
    <path id="Trazado_209460" data-name="Trazado 209460" d="M106.412,59.167a1.88,1.88,0,0,0,1.834-2.183,1.9,1.9,0,0,0-1.89-1.586h-.679V52.387H113.8a2.1,2.1,0,0,1,2.08,2.111v6.137a2.1,2.1,0,0,1-2.08,2.111h-8.127V59.167Z" transform="translate(-88.21 -43.728)" fill="#f37f4c"/>
    <path id="Trazado_209461" data-name="Trazado 209461" d="M51.2,60.581H43.07a2.633,2.633,0,0,1-2.614-2.645V51.8a2.633,2.633,0,0,1,2.614-2.645H51.2a.534.534,0,0,1,.534.534v2.478h.2a2.418,2.418,0,0,1,0,4.837h-.2v3.044a.534.534,0,0,1-.534.534M43.07,50.223A1.563,1.563,0,0,0,41.524,51.8v6.137a1.563,1.563,0,0,0,1.546,1.577h7.593V56.469a.534.534,0,0,1,.534-.534h.735a1.35,1.35,0,0,0,0-2.7H51.2a.534.534,0,0,1-.534-.534V50.223Z" transform="translate(-33.769 -41.03)" fill="#003887"/>
    <path id="Trazado_209462" data-name="Trazado 209462" d="M111.107,60.583H102.98a.534.534,0,0,1-.534-.534V56.471a.534.534,0,0,1,.534-.534h.735a1.313,1.313,0,0,0,.995-.463,1.354,1.354,0,0,0,.311-1.1,1.37,1.37,0,0,0-1.362-1.133h-.679a.534.534,0,0,1-.534-.534V49.691a.534.534,0,0,1,.534-.534h8.127a2.632,2.632,0,0,1,2.614,2.645v6.137a2.633,2.633,0,0,1-2.614,2.645m-7.593-1.068h7.593a1.563,1.563,0,0,0,1.546-1.577V51.8a1.563,1.563,0,0,0-1.546-1.577h-7.593v1.944h.145a2.421,2.421,0,0,1,1.862,4,2.38,2.38,0,0,1-1.805.836h-.2Z" transform="translate(-85.513 -41.032)" fill="#003887"/>
  </g>
</svg>
