<svg xmlns="http://www.w3.org/2000/svg" xmlns:xlink="http://www.w3.org/1999/xlink" width="84" height="82.825" viewBox="0 0 84 82.825">
  <defs>
    <clipPath id="clip-path">
      <rect id="Rectángulo_54850" data-name="Rectángulo 54850" width="84" height="82.825" fill="none"/>
    </clipPath>
    <clipPath id="clip-path-3">
      <rect id="Rectángulo_54824" data-name="Rectángulo 54824" width="2.748" height="2.834" fill="none"/>
    </clipPath>
    <clipPath id="clip-path-4">
      <rect id="Rectángulo_54825" data-name="Rectángulo 54825" width="2.749" height="2.832" fill="none"/>
    </clipPath>
    <clipPath id="clip-path-5">
      <rect id="Rectángulo_54826" data-name="Rectángulo 54826" width="2.75" height="2.833" fill="none"/>
    </clipPath>
    <clipPath id="clip-path-6">
      <rect id="Rectángulo_54827" data-name="Rectángulo 54827" width="2.749" height="2.833" fill="none"/>
    </clipPath>
    <clipPath id="clip-path-7">
      <rect id="Rectángulo_54828" data-name="Rectángulo 54828" width="1.923" height="3.529" fill="none"/>
    </clipPath>
    <clipPath id="clip-path-8">
      <rect id="Rectángulo_54830" data-name="Rectángulo 54830" width="2.838" height="2.742" fill="none"/>
    </clipPath>
    <clipPath id="clip-path-9">
      <rect id="Rectángulo_54831" data-name="Rectángulo 54831" width="2.836" height="2.743" fill="none"/>
    </clipPath>
    <clipPath id="clip-path-10">
      <rect id="Rectángulo_54832" data-name="Rectángulo 54832" width="2.837" height="2.745" fill="none"/>
    </clipPath>
    <clipPath id="clip-path-12">
      <rect id="Rectángulo_54834" data-name="Rectángulo 54834" width="3.554" height="1.926" fill="none"/>
    </clipPath>
    <clipPath id="clip-path-13">
      <rect id="Rectángulo_54837" data-name="Rectángulo 54837" width="2.73" height="2.848" fill="none"/>
    </clipPath>
    <clipPath id="clip-path-14">
      <rect id="Rectángulo_54838" data-name="Rectángulo 54838" width="2.73" height="2.847" fill="none"/>
    </clipPath>
    <clipPath id="clip-path-15">
      <rect id="Rectángulo_54839" data-name="Rectángulo 54839" width="2.731" height="2.848" fill="none"/>
    </clipPath>
    <clipPath id="clip-path-16">
      <rect id="Rectángulo_54840" data-name="Rectángulo 54840" width="2.731" height="2.846" fill="none"/>
    </clipPath>
    <clipPath id="clip-path-17">
      <rect id="Rectángulo_54841" data-name="Rectángulo 54841" width="1.94" height="3.607" fill="none"/>
    </clipPath>
    <clipPath id="clip-path-18">
      <rect id="Rectángulo_54844" data-name="Rectángulo 54844" width="2.821" height="2.769" fill="none"/>
    </clipPath>
    <clipPath id="clip-path-19">
      <rect id="Rectángulo_54845" data-name="Rectángulo 54845" width="2.82" height="2.77" fill="none"/>
    </clipPath>
    <clipPath id="clip-path-20">
      <rect id="Rectángulo_54846" data-name="Rectángulo 54846" width="2.819" height="2.771" fill="none"/>
    </clipPath>
    <clipPath id="clip-path-21">
      <rect id="Rectángulo_54847" data-name="Rectángulo 54847" width="2.819" height="2.77" fill="none"/>
    </clipPath>
    <clipPath id="clip-path-22">
      <rect id="Rectángulo_54848" data-name="Rectángulo 54848" width="3.449" height="1.927" fill="none"/>
    </clipPath>
  </defs>
  <g id="Grupo_181483" data-name="Grupo 181483" transform="translate(-286 -6993.72)">
    <g id="Grupo_181478" data-name="Grupo 181478" transform="translate(286 6993.72)">
      <g id="Grupo_178620" data-name="Grupo 178620" clip-path="url(#clip-path)">
        <g id="Grupo_178619" data-name="Grupo 178619">
          <g id="Grupo_178618" data-name="Grupo 178618" clip-path="url(#clip-path)">
            <path id="Trazado_206884" data-name="Trazado 206884" d="M55.553,81.588c.142-1.681.284-2.288-.3-2.717a2.036,2.036,0,0,0-2.783.8c-.471,1.328.3,6.65-2.11,6.623L40.837,77.2a2.127,2.127,0,0,0-2.923-.365,2.129,2.129,0,0,0,.467,2.917l6.573,6.338c-.1.082-.211.179-.319.27l-8.09-7.807a2.132,2.132,0,0,0-2.929-.361,2.13,2.13,0,0,0,.469,2.914l7.948,7.666c-.025.023-.048.044-.073.07-.053.056-.1.109-.156.168l-7.35-7.094a2.126,2.126,0,0,0-2.924-.363,2.125,2.125,0,0,0,.463,2.913l7.464,7.2-.166.209-5.5-5.307a1.8,1.8,0,0,0-2.46,2.549l10.113,9.854c.033.034,3.089,2.537,3.126,2.566a16.849,16.849,0,0,0,3.362,1.933c1.1.446,2.4-.573,5.378-3.47,2.772-2.7,3.715-3.5,3.545-4.591a19.5,19.5,0,0,1-.438-3.064c.421-4.179-.865-10.761-.865-10.761" transform="translate(-13.161 -32.505)" fill="#d48655"/>
            <rect id="Rectángulo_54822" data-name="Rectángulo 54822" width="14.819" height="2.072" transform="translate(34.374 72.533) rotate(-43.48)" fill="#fff"/>
            <rect id="Rectángulo_54823" data-name="Rectángulo 54823" width="16.412" height="11.441" transform="translate(34.64 74.525) rotate(-43.502)" fill="#00a3be"/>
            <g id="Grupo_178560" data-name="Grupo 178560" transform="translate(20.341 45.447)" opacity="0.54">
              <g id="Grupo_178559" data-name="Grupo 178559">
                <g id="Grupo_178558" data-name="Grupo 178558" clip-path="url(#clip-path-3)">
                  <path id="Trazado_206885" data-name="Trazado 206885" d="M37.125,79.12A1.442,1.442,0,0,0,35.464,81a2.22,2.22,0,0,0,.2.256,1.587,1.587,0,0,0,2.158.4,1.587,1.587,0,0,0-.261-2.176,2.338,2.338,0,0,0-.438-.361" transform="translate(-35.403 -79.102)" fill="#ffd8c7"/>
                </g>
              </g>
            </g>
            <g id="Grupo_178563" data-name="Grupo 178563" transform="translate(24.523 44.069)" opacity="0.54">
              <g id="Grupo_178562" data-name="Grupo 178562">
                <g id="Grupo_178561" data-name="Grupo 178561" clip-path="url(#clip-path-4)">
                  <path id="Trazado_206886" data-name="Trazado 206886" d="M44.408,76.721a1.443,1.443,0,0,0-1.663,1.886,2.378,2.378,0,0,0,.2.254,1.363,1.363,0,1,0,1.9-1.782,2.505,2.505,0,0,0-.44-.358" transform="translate(-42.684 -76.703)" fill="#ffd8c7"/>
                </g>
              </g>
            </g>
            <g id="Grupo_178566" data-name="Grupo 178566" transform="translate(18.22 48.821)" opacity="0.54">
              <g id="Grupo_178565" data-name="Grupo 178565">
                <g id="Grupo_178564" data-name="Grupo 178564" clip-path="url(#clip-path-5)">
                  <path id="Trazado_206887" data-name="Trazado 206887" d="M33.435,84.992A1.541,1.541,0,0,0,32.1,85.4a1.52,1.52,0,0,0-.329,1.478,1.91,1.91,0,0,0,.207.255,1.586,1.586,0,0,0,2.155.4,1.589,1.589,0,0,0-.261-2.177,2.222,2.222,0,0,0-.439-.361" transform="translate(-31.711 -84.975)" fill="#ffd8c7"/>
                </g>
              </g>
            </g>
            <g id="Grupo_178569" data-name="Grupo 178569" transform="translate(18.056 54.002)" opacity="0.54">
              <g id="Grupo_178568" data-name="Grupo 178568">
                <g id="Grupo_178567" data-name="Grupo 178567" clip-path="url(#clip-path-6)">
                  <path id="Trazado_206888" data-name="Trazado 206888" d="M33.15,94.009a1.444,1.444,0,0,0-1.664,1.883,2.541,2.541,0,0,0,.206.259,1.6,1.6,0,0,0,2.156.4,1.591,1.591,0,0,0-.259-2.179,2.344,2.344,0,0,0-.439-.362" transform="translate(-31.426 -93.992)" fill="#ffd8c7"/>
                </g>
              </g>
            </g>
            <g id="Grupo_178572" data-name="Grupo 178572" transform="translate(40.594 46.112)" opacity="0.54">
              <g id="Grupo_178571" data-name="Grupo 178571">
                <g id="Grupo_178570" data-name="Grupo 178570" clip-path="url(#clip-path-7)">
                  <path id="Trazado_206889" data-name="Trazado 206889" d="M72.155,80.513a1.831,1.831,0,0,0-1.132-.247,2.426,2.426,0,0,0,.566,3.249,1.909,1.909,0,0,0,.812.273c.033-.354.052-.558.052-.558.142-1.681.284-2.288-.3-2.717" transform="translate(-70.655 -80.259)" fill="#ffd8c7"/>
                </g>
              </g>
            </g>
            <path id="Trazado_206890" data-name="Trazado 206890" d="M42.553,54.379c1.675.179,2.283.333,2.724-.241a2.038,2.038,0,0,0-.747-2.8c-1.317-.5-6.652.161-6.576-2.248l9.289-9.334a2.126,2.126,0,0,0,.427-2.914,2.129,2.129,0,0,0-2.926.406l-6.473,6.441c-.081-.106-.176-.214-.263-.323l7.972-7.929a2.127,2.127,0,0,0,.419-2.919,2.125,2.125,0,0,0-2.921.408L35.65,40.714c-.022-.025-.043-.047-.067-.073l-.164-.159,7.243-7.2a2.123,2.123,0,0,0,.423-2.915,2.123,2.123,0,0,0-2.92.4l-7.355,7.314-.2-.171,5.418-5.39a1.8,1.8,0,0,0-2.5-2.512L25.465,39.914c-.036.033-2.6,3.037-2.633,3.073a16.867,16.867,0,0,0-2,3.323c-.467,1.088.524,2.412,3.358,5.447,2.644,2.828,3.423,3.789,4.515,3.639a19.645,19.645,0,0,1,3.072-.373c4.171.509,10.777-.642,10.777-.642" transform="translate(-8.816 -12.607)" fill="#f99e64"/>
            <path id="Trazado_206891" data-name="Trazado 206891" d="M25.506,70.268,15.535,59.3l1.532-1.391,9.973,10.958Z" transform="translate(-6.609 -24.64)" fill="#fff"/>
            <rect id="Rectángulo_54829" data-name="Rectángulo 54829" width="11.442" height="16.412" transform="translate(0.001 41.198) rotate(-42.31)" fill="#678589"/>
            <g id="Grupo_178575" data-name="Grupo 178575" transform="translate(34.961 19.773)" opacity="0.54">
              <g id="Grupo_178574" data-name="Grupo 178574">
                <g id="Grupo_178573" data-name="Grupo 178573" clip-path="url(#clip-path-8)">
                  <path id="Trazado_206892" data-name="Trazado 206892" d="M63.664,36.169a1.441,1.441,0,0,0-1.848-1.7,1.946,1.946,0,0,0-.26.2,1.589,1.589,0,0,0-.444,2.148,1.589,1.589,0,0,0,2.183-.216,2.214,2.214,0,0,0,.369-.429" transform="translate(-60.851 -34.415)" fill="#ffd8c7"/>
                </g>
              </g>
            </g>
            <g id="Grupo_178578" data-name="Grupo 178578" transform="translate(36.254 23.983)" opacity="0.54">
              <g id="Grupo_178577" data-name="Grupo 178577">
                <g id="Grupo_178576" data-name="Grupo 178576" clip-path="url(#clip-path-9)">
                  <path id="Trazado_206893" data-name="Trazado 206893" d="M65.913,43.5a1.444,1.444,0,0,0-1.85-1.7,2.466,2.466,0,0,0-.259.2,1.362,1.362,0,1,0,1.742,1.935,2.259,2.259,0,0,0,.367-.431" transform="translate(-63.101 -41.743)" fill="#ffd8c7"/>
                </g>
              </g>
            </g>
            <g id="Grupo_178581" data-name="Grupo 178581" transform="translate(31.633 17.582)" opacity="0.54">
              <g id="Grupo_178580" data-name="Grupo 178580">
                <g id="Grupo_178579" data-name="Grupo 178579" clip-path="url(#clip-path-10)">
                  <path id="Trazado_206894" data-name="Trazado 206894" d="M57.871,32.355a1.443,1.443,0,0,0-1.849-1.7,1.967,1.967,0,0,0-.26.2A1.584,1.584,0,0,0,55.32,33a1.584,1.584,0,0,0,2.18-.214,2.167,2.167,0,0,0,.371-.432" transform="translate(-55.058 -30.602)" fill="#ffd8c7"/>
                </g>
              </g>
            </g>
            <g id="Grupo_178584" data-name="Grupo 178584" transform="translate(26.457 17.311)" opacity="0.54">
              <g id="Grupo_178583" data-name="Grupo 178583">
                <g id="Grupo_178582" data-name="Grupo 178582" clip-path="url(#clip-path-9)">
                  <path id="Trazado_206895" data-name="Trazado 206895" d="M48.86,31.884a1.445,1.445,0,0,0-1.848-1.7c-.088.062-.175.126-.26.2a1.591,1.591,0,0,0-.443,2.147,1.588,1.588,0,0,0,2.182-.211,2.32,2.32,0,0,0,.369-.431" transform="translate(-46.048 -30.13)" fill="#ffd8c7"/>
                </g>
              </g>
            </g>
            <g id="Grupo_178587" data-name="Grupo 178587" transform="translate(33.18 40.008)" opacity="0.54">
              <g id="Grupo_178586" data-name="Grupo 178586">
                <g id="Grupo_178585" data-name="Grupo 178585" clip-path="url(#clip-path-12)">
                  <path id="Trazado_206896" data-name="Trazado 206896" d="M61.032,71.158a1.842,1.842,0,0,0,.269-1.126,2.425,2.425,0,0,0-3.258.5,1.906,1.906,0,0,0-.292.808c.354.041.557.062.557.062,1.675.178,2.283.333,2.724-.241" transform="translate(-57.751 -69.636)" fill="#ffd8c7"/>
                </g>
              </g>
            </g>
            <path id="Trazado_206897" data-name="Trazado 206897" d="M70.723,42.714c-.255,1.667-.438,2.266.115,2.734a2.039,2.039,0,0,0,2.83-.617c.56-1.292.146-6.653,2.55-6.465l8.9,9.707a1.843,1.843,0,1,0,2.62-2.379L81.6,38.929c.111-.075.223-.164.335-.247l7.553,8.33a1.845,1.845,0,1,0,2.625-2.385l-7.418-8.179.076-.063c.057-.054.106-.1.166-.159L91.8,43.8a2.122,2.122,0,0,0,2.891.557,2.124,2.124,0,0,0-.265-2.936L87.455,33.73l.178-.2L92.767,39.2a1.8,1.8,0,0,0,2.626-2.38L85.961,26.311c-.032-.038-2.913-2.739-2.949-2.771a16.9,16.9,0,0,0-3.227-2.153c-1.066-.518-2.435.413-5.6,3.1-2.948,2.511-3.944,3.246-3.844,4.343a19.718,19.718,0,0,1,.232,3.085c-.7,4.145.145,10.8.145,10.8" transform="translate(-29.91 -9.041)" fill="#f9c16e"/>
            <rect id="Rectángulo_54835" data-name="Rectángulo 54835" width="14.819" height="2.072" transform="translate(37.646 18.671) rotate(-39.65)" fill="#fff"/>
            <rect id="Rectángulo_54836" data-name="Rectángulo 54836" width="16.411" height="11.442" transform="translate(30.309 10.475) rotate(-39.663)" fill="#f37f4c"/>
            <g id="Grupo_178590" data-name="Grupo 178590" transform="translate(59.941 35.832)" opacity="0.54">
              <g id="Grupo_178589" data-name="Grupo 178589">
                <g id="Grupo_178588" data-name="Grupo 178588" clip-path="url(#clip-path-13)">
                  <path id="Trazado_206898" data-name="Trazado 206898" d="M105.24,65.173a1.441,1.441,0,0,0,1.785-1.767,2.012,2.012,0,0,0-.186-.269,1.361,1.361,0,1,0-2.01,1.648,2.1,2.1,0,0,0,.411.388" transform="translate(-104.328 -62.366)" fill="#ffd8c7"/>
                </g>
              </g>
            </g>
            <g id="Grupo_178593" data-name="Grupo 178593" transform="translate(55.675 36.929)" opacity="0.54">
              <g id="Grupo_178592" data-name="Grupo 178592">
                <g id="Grupo_178591" data-name="Grupo 178591" clip-path="url(#clip-path-14)">
                  <path id="Trazado_206899" data-name="Trazado 206899" d="M97.816,67.084A1.444,1.444,0,0,0,99.6,65.313a2.4,2.4,0,0,0-.185-.267A1.362,1.362,0,1,0,97.4,66.7a2.341,2.341,0,0,0,.414.388" transform="translate(-96.904 -64.276)" fill="#ffd8c7"/>
                </g>
              </g>
            </g>
            <g id="Grupo_178596" data-name="Grupo 178596" transform="translate(62.28 32.608)" opacity="0.54">
              <g id="Grupo_178595" data-name="Grupo 178595">
                <g id="Grupo_178594" data-name="Grupo 178594" clip-path="url(#clip-path-15)">
                  <path id="Trazado_206900" data-name="Trazado 206900" d="M109.314,59.563a1.443,1.443,0,0,0,1.783-1.768,1.907,1.907,0,0,0-.19-.271,1.36,1.36,0,1,0-2.007,1.648,2.139,2.139,0,0,0,.414.391" transform="translate(-108.4 -56.755)" fill="#ffd8c7"/>
                </g>
              </g>
            </g>
            <g id="Grupo_178599" data-name="Grupo 178599" transform="translate(62.791 27.449)" opacity="0.54">
              <g id="Grupo_178598" data-name="Grupo 178598">
                <g id="Grupo_178597" data-name="Grupo 178597" clip-path="url(#clip-path-16)">
                  <path id="Trazado_206901" data-name="Trazado 206901" d="M110.2,50.583a1.444,1.444,0,0,0,1.787-1.769,2.945,2.945,0,0,0-.188-.267,1.362,1.362,0,1,0-2.013,1.648,2.3,2.3,0,0,0,.414.388" transform="translate(-109.289 -47.776)" fill="#ffd8c7"/>
                </g>
              </g>
            </g>
            <g id="Grupo_178602" data-name="Grupo 178602" transform="translate(40.567 33.12)" opacity="0.54">
              <g id="Grupo_178601" data-name="Grupo 178601">
                <g id="Grupo_178600" data-name="Grupo 178600" clip-path="url(#clip-path-17)">
                  <path id="Trazado_206902" data-name="Trazado 206902" d="M70.969,60.932a1.853,1.853,0,0,0,1.112.32,2.426,2.426,0,0,0-.346-3.278,1.9,1.9,0,0,0-.792-.329c-.058.353-.088.553-.088.553-.255,1.667-.438,2.267.115,2.734" transform="translate(-70.608 -57.645)" fill="#ffd8c7"/>
                </g>
              </g>
            </g>
            <path id="Trazado_206903" data-name="Trazado 206903" d="M84.553,71.353c-1.686-.036-2.305-.138-2.693.469a2.032,2.032,0,0,0,.978,2.726c1.355.388,6.614-.722,6.742,1.686L81.111,86.318a1.844,1.844,0,1,0,2.7,2.288l5.905-6.963c.091.1.2.2.291.3l-7.275,8.573a1.845,1.845,0,1,0,2.7,2.291l7.143-8.419c.025.024.047.043.074.068.061.048.115.091.178.143l-6.609,7.787a1.844,1.844,0,1,0,2.7,2.295l6.711-7.908.217.151L90.908,92.75a1.8,1.8,0,0,0,2.7,2.294L102.8,84.325c.032-.036,2.335-3.244,2.361-3.286a16.917,16.917,0,0,0,1.716-3.477c.373-1.125-.727-2.361-3.806-5.145-2.873-2.594-3.733-3.486-4.805-3.246a19.81,19.81,0,0,1-3.03.633c-4.2-.155-10.684,1.549-10.684,1.549" transform="translate(-34.217 -29.414)" fill="#f9b081"/>
            <rect id="Rectángulo_54842" data-name="Rectángulo 54842" width="2.072" height="14.818" transform="translate(63.388 38.365) rotate(-47.137)" fill="#fff"/>
            <rect id="Rectángulo_54843" data-name="Rectángulo 54843" width="11.442" height="16.412" transform="translate(64.185 36.893) rotate(-47.154)" fill="#32d9cb"/>
            <g id="Grupo_178605" data-name="Grupo 178605" transform="translate(48.015 61.32)" opacity="0.54">
              <g id="Grupo_178604" data-name="Grupo 178604">
                <g id="Grupo_178603" data-name="Grupo 178603" clip-path="url(#clip-path-18)">
                  <path id="Trazado_206904" data-name="Trazado 206904" d="M83.578,107.864a1.442,1.442,0,0,0,1.985,1.539,2.154,2.154,0,0,0,.242-.22,1.362,1.362,0,1,0-1.9-1.777,2.231,2.231,0,0,0-.33.458" transform="translate(-83.572 -106.728)" fill="#ffd8c7"/>
                </g>
              </g>
            </g>
            <g id="Grupo_178608" data-name="Grupo 178608" transform="translate(46.373 57.233)" opacity="0.54">
              <g id="Grupo_178607" data-name="Grupo 178607">
                <g id="Grupo_178606" data-name="Grupo 178606" clip-path="url(#clip-path-19)">
                  <path id="Trazado_206905" data-name="Trazado 206905" d="M80.719,100.753a1.443,1.443,0,0,0,1.988,1.54,2.434,2.434,0,0,0,.241-.221,1.362,1.362,0,1,0-1.9-1.78,2.324,2.324,0,0,0-.33.461" transform="translate(-80.713 -99.616)" fill="#ffd8c7"/>
                </g>
              </g>
            </g>
            <g id="Grupo_178611" data-name="Grupo 178611" transform="translate(51.519 63.219)" opacity="0.54">
              <g id="Grupo_178610" data-name="Grupo 178610">
                <g id="Grupo_178609" data-name="Grupo 178609" clip-path="url(#clip-path-20)">
                  <path id="Trazado_206906" data-name="Trazado 206906" d="M89.675,111.172a1.441,1.441,0,0,0,1.986,1.539,2.225,2.225,0,0,0,.242-.223A1.361,1.361,0,1,0,90,110.71a2.146,2.146,0,0,0-.33.461" transform="translate(-89.67 -110.035)" fill="#ffd8c7"/>
                </g>
              </g>
            </g>
            <g id="Grupo_178614" data-name="Grupo 178614" transform="translate(56.7 63.054)" opacity="0.54">
              <g id="Grupo_178613" data-name="Grupo 178613">
                <g id="Grupo_178612" data-name="Grupo 178612" clip-path="url(#clip-path-21)">
                  <path id="Trazado_206907" data-name="Trazado 206907" d="M98.692,110.882a1.444,1.444,0,0,0,1.985,1.541,3.076,3.076,0,0,0,.242-.22,1.363,1.363,0,1,0-1.9-1.783,2.179,2.179,0,0,0-.332.462" transform="translate(-98.687 -109.747)" fill="#ffd8c7"/>
                </g>
              </g>
            </g>
            <g id="Grupo_178617" data-name="Grupo 178617" transform="translate(47.444 41.91)" opacity="0.54">
              <g id="Grupo_178616" data-name="Grupo 178616">
                <g id="Grupo_178615" data-name="Grupo 178615" clip-path="url(#clip-path-22)">
                  <path id="Trazado_206908" data-name="Trazado 206908" d="M82.776,73.444A1.827,1.827,0,0,0,82.6,74.59a2.422,2.422,0,0,0,3.2-.772,1.829,1.829,0,0,0,.223-.827l-.557-.017c-1.685-.036-2.3-.139-2.693.469" transform="translate(-82.578 -72.945)" fill="#ffd8c7"/>
                </g>
              </g>
            </g>
          </g>
        </g>
      </g>
    </g>
  </g>
</svg>
