<svg xmlns="http://www.w3.org/2000/svg" width="63.91" height="72.303" viewBox="0 0 63.91 72.303">
  <g id="Grupo_181508" data-name="Grupo 181508" transform="translate(-924.708 -6986.889)">
    <g id="Grupo_181479" data-name="Grupo 181479" transform="translate(5886.497 12397.596)">
      <path id="Trazado_206911" data-name="Trazado 206911" d="M136.062,502.416c.59-.59,2.508.266,3.336.413,1.817.321,3.341-1.5,3.341-3.341h0c0-1.845-1.524-3.663-3.341-3.341-.828.146-2.746,1-3.336.413-2.109-2.109,0-12.342,0-12.342s-10.233-2.109-12.342,0c-.591.591.325,2.512.413,3.343a3.229,3.229,0,0,1-3.341,3.341h0a3.229,3.229,0,0,1-3.341-3.341c.088-.831,1-2.752.413-3.343-2.109-2.109-12.342,0-12.342,0v28.066A2.476,2.476,0,0,0,108,514.758h28.066s-2.109-10.233,0-12.342" transform="translate(-5067.308 -5856.065)" fill="#32d9cb"/>
      <path id="Trazado_206919" data-name="Trazado 206919" d="M122.442,136.061c.59.59-.266,2.508-.413,3.336-.321,1.817,1.5,3.341,3.341,3.341h0c1.845,0,3.663-1.524,3.341-3.341-.146-.828-1-2.746-.413-3.336,2.109-2.109,12.342,0,12.342,0s2.109-10.233,0-12.342c-.591-.591-2.512.325-3.343.413a3.229,3.229,0,0,1-3.341-3.341v0a3.229,3.229,0,0,1,3.341-3.341c.831.088,2.752,1,3.343.413,2.109-2.109,0-12.342,0-12.342H112.576A2.476,2.476,0,0,0,110.1,108v28.066s10.233-2.109,12.342,0" transform="translate(-5071.428 -5516.226)" fill="#00a3be"/>
      <path id="Trazado_206920" data-name="Trazado 206920" d="M447.705,461.7c-.59-.59.266-2.508.413-3.336.321-1.817-1.5-3.341-3.341-3.341h0c-1.845,0-3.663,1.524-3.341,3.341.146.828,1,2.746.413,3.336-2.109,2.109-12.342,0-12.342,0s-2.109,9.82,0,11.929c.591.591,2.512.088,3.343,0a3.229,3.229,0,0,1,3.341,3.341h0a3.229,3.229,0,0,1-3.341,3.341c-.831-.088-2.752-.591-3.343,0-2.109,2.109,0,11.929,0,11.929h28.066a2.476,2.476,0,0,0,2.476-2.476V461.7s-10.233,2.109-12.342,0" transform="translate(-5357.928 -5830.643)" fill="#678589"/>
      <path id="Trazado_206954" data-name="Trazado 206954" d="M377.45,229.677c-.587.592-2.508-.314-3.338-.4a3.229,3.229,0,0,0-3.327,3.355v0a3.229,3.229,0,0,0,3.355,3.327c.829-.092,2.742-1.014,3.334-.427,2.118,2.1.052,12.342.052,12.342s10.242,2.066,12.342-.052c.588-.593-.277-2.513-.427-3.341-.329-1.816,1.482-3.348,3.327-3.355h0c1.845-.008,3.669,1.509,3.355,3.327-.143.83-.992,2.756-.4,3.345,2.118,2.1,12.342-.052,12.342-.052l-.118-28.066a2.476,2.476,0,0,0-2.487-2.466l-28.066.118s2.152,10.224.052,12.342" transform="translate(-5305.946 -5616.712)" fill="#f37f4c"/>
    </g>
  </g>
</svg>
