<svg id="Grupo_181113" data-name="Grupo 181113" xmlns="http://www.w3.org/2000/svg" xmlns:xlink="http://www.w3.org/1999/xlink" width="52.5" height="49.889" viewBox="0 0 52.5 49.889">
  <defs>
    <clipPath id="clip-path">
      <rect id="Rectángulo_56292" data-name="Rectángulo 56292" width="52.5" height="49.889" fill="none"/>
    </clipPath>
  </defs>
  <g id="Grupo_181112" data-name="Grupo 181112" clip-path="url(#clip-path)">
    <path id="Trazado_209463" data-name="Trazado 209463" d="M23.235,20.469a1.5,1.5,0,0,1-.126,3h-.021a4.842,4.842,0,0,1-9.626,0h-.021a1.5,1.5,0,1,1-.028-3h.028l.03,0h0a3.86,3.86,0,0,1,.1-.524,4.919,4.919,0,0,1,4.7-3.793H21.93a1.15,1.15,0,0,1,1.15,1.15s.024,2.541.013,3.071l.007.1Z" transform="translate(-9.78 -13.256)" fill="#fff"/>
    <path id="Trazado_209464" data-name="Trazado 209464" d="M15.622,25.71A5.438,5.438,0,0,1,10.3,21.337a2.075,2.075,0,0,1,.027-4.053c.01-.044.022-.091.034-.14a5.483,5.483,0,0,1,5.22-4.226l.041,0h3.655a1.731,1.731,0,0,1,1.729,1.729c0,.082.017,1.782.016,2.664a2.074,2.074,0,0,1-.076,4.028,5.438,5.438,0,0,1-5.324,4.373m-4.813-5.474a.579.579,0,0,1,.576.525,4.263,4.263,0,0,0,8.474,0,.579.579,0,0,1,.576-.525h.035a.922.922,0,0,0,.081-1.842l-.115,0a.579.579,0,0,1-.566-.534l-.007-.1q0-.028,0-.056c.01-.516-.013-3.028-.013-3.054a.573.573,0,0,0-.572-.577H15.643a4.318,4.318,0,0,0-4.162,3.359,3.457,3.457,0,0,0-.087.436.576.576,0,0,1-.6.522H10.78a.923.923,0,1,0-.007,1.846h.036" transform="translate(-7.126 -10.604)" fill="#001226"/>
    <path id="Trazado_209465" data-name="Trazado 209465" d="M221.521,20.469a1.5,1.5,0,0,1-.126,3h-.021a4.842,4.842,0,0,1-9.626,0h-.021a1.5,1.5,0,1,1-.028-3h.028l.03,0h0a3.862,3.862,0,0,1,.1-.524,4.919,4.919,0,0,1,4.7-3.793h3.655a1.15,1.15,0,0,1,1.15,1.15s.024,2.541.013,3.071l.007.1Z" transform="translate(-172.557 -13.256)" fill="#fff"/>
    <path id="Trazado_209466" data-name="Trazado 209466" d="M213.909,25.71a5.438,5.438,0,0,1-5.323-4.372,2.075,2.075,0,0,1,.027-4.053c.01-.044.021-.091.034-.14a5.483,5.483,0,0,1,5.221-4.226l.041,0h3.655a1.731,1.731,0,0,1,1.729,1.729c0,.082.017,1.782.016,2.664a2.074,2.074,0,0,1-.076,4.028,5.438,5.438,0,0,1-5.324,4.373M209.1,20.236a.579.579,0,0,1,.576.525,4.263,4.263,0,0,0,8.474,0,.578.578,0,0,1,.576-.525h.035a.922.922,0,0,0,.081-1.842l-.115,0a.579.579,0,0,1-.566-.535l-.007-.1c0-.018,0-.037,0-.055.01-.516-.013-3.029-.014-3.054a.573.573,0,0,0-.572-.577H213.93a4.318,4.318,0,0,0-4.163,3.359,3.5,3.5,0,0,0-.087.436.577.577,0,0,1-.6.522h-.014a.923.923,0,1,0-.007,1.846h.036" transform="translate(-169.904 -10.604)" fill="#001226"/>
    <path id="Trazado_209467" data-name="Trazado 209467" d="M122.931,147.213a1.5,1.5,0,0,1-.126,3h-.021a4.842,4.842,0,0,1-9.626,0h-.021a1.5,1.5,0,1,1-.028-3h.028l.03,0h0a3.859,3.859,0,0,1,.1-.524,4.919,4.919,0,0,1,4.7-3.793h3.655a1.15,1.15,0,0,1,1.15,1.15s.024,2.541.013,3.071l.007.1Z" transform="translate(-91.622 -117.303)" fill="#fff"/>
    <path id="Trazado_209468" data-name="Trazado 209468" d="M115.319,152.455A5.438,5.438,0,0,1,110,148.082a2.075,2.075,0,0,1,.027-4.053q.015-.066.034-.139a5.483,5.483,0,0,1,5.221-4.226h3.7a1.731,1.731,0,0,1,1.729,1.729c0,.082.017,1.782.016,2.664a2.074,2.074,0,0,1-.076,4.028,5.439,5.439,0,0,1-5.324,4.373m-4.813-5.474a.578.578,0,0,1,.576.525,4.263,4.263,0,0,0,8.475,0,.578.578,0,0,1,.576-.525h.034a.922.922,0,0,0,.082-1.842l-.115,0a.579.579,0,0,1-.566-.534l-.007-.1c0-.018,0-.037,0-.056.01-.516-.013-3.028-.013-3.054a.573.573,0,0,0-.572-.577H115.34a4.318,4.318,0,0,0-4.162,3.359,3.476,3.476,0,0,0-.088.439.581.581,0,0,1-.6.519h-.014a.923.923,0,1,0-.006,1.846h.035" transform="translate(-88.97 -114.651)" fill="#001226"/>
    <path id="Trazado_209469" data-name="Trazado 209469" d="M19.065,101.654s-.391-8.454-5.385-8.609c-2.044-.064-3.813-.039-5.3-.01-5.2.1-5.152,8.67-5.152,8.673h0c0,.766,3.545,1.387,7.917,1.387s7.917-.621,7.917-1.387a.259.259,0,0,0-.008-.053Z" transform="translate(-2.652 -76.349)" fill="#f37f4c"/>
    <path id="Trazado_209470" data-name="Trazado 209470" d="M8.5,101.021a34.712,34.712,0,0,1-5.7-.415C.837,100.263,0,99.8,0,99.056c0-.37.018-9.141,5.719-9.252,1.595-.031,3.344-.051,5.326.011,5.466.17,5.928,8.794,5.945,9.161q0,.026,0,.052c0,.009,0,.018,0,.028,0,.743-.837,1.207-2.8,1.55a34.711,34.711,0,0,1-5.7.415M1.159,98.932c.478.341,3,.932,7.337.932s6.846-.588,7.333-.929c-.063-.9-.684-7.835-4.819-7.963-1.957-.061-3.688-.041-5.268-.01-4.262.083-4.562,6.968-4.583,7.971m0,.119v0Z" transform="translate(-0.001 -73.698)" fill="#001226"/>
    <path id="Trazado_209471" data-name="Trazado 209471" d="M217.351,101.654s-.391-8.454-5.385-8.609c-2.044-.064-3.813-.039-5.3-.01-5.2.1-5.152,8.67-5.152,8.673h0c0,.766,3.544,1.387,7.917,1.387s7.917-.621,7.917-1.387a.26.26,0,0,0-.008-.053Z" transform="translate(-165.429 -76.349)" fill="#00a3be"/>
    <path id="Trazado_209472" data-name="Trazado 209472" d="M206.782,101.02a34.731,34.731,0,0,1-5.7-.415c-1.961-.343-2.8-.807-2.8-1.55,0-.372.032-9.141,5.719-9.252,1.595-.031,3.344-.051,5.327.011,5.466.17,5.928,8.794,5.945,9.161,0,.017,0,.035,0,.052s0,.018,0,.028c0,.743-.836,1.207-2.8,1.55a34.732,34.732,0,0,1-5.7.415m-7.337-2.089c.478.341,3,.932,7.337.932s6.846-.588,7.333-.929c-.063-.9-.684-7.834-4.819-7.963-1.957-.061-3.689-.041-5.268-.01-4.262.083-4.562,6.968-4.583,7.971m14.682.2h0m-14.684-.081v0Z" transform="translate(-162.777 -73.697)" fill="#001226"/>
    <path id="Trazado_209473" data-name="Trazado 209473" d="M118.762,227.662s-.391-8.454-5.385-8.609c-2.044-.064-3.813-.039-5.3-.01-5.2.1-5.152,8.67-5.152,8.673h0c0,.766,3.545,1.387,7.917,1.387s7.917-.621,7.917-1.387a.259.259,0,0,0-.008-.053Z" transform="translate(-84.496 -179.792)" fill="#f37f4c"/>
    <path id="Trazado_209474" data-name="Trazado 209474" d="M108.191,227.029a34.732,34.732,0,0,1-5.7-.415c-1.961-.343-2.8-.807-2.8-1.55,0-.371.018-9.141,5.719-9.252,1.595-.031,3.344-.051,5.326.011,5.466.17,5.928,8.794,5.945,9.161q0,.026,0,.052c0,.009,0,.018,0,.028,0,.743-.836,1.207-2.8,1.55a34.729,34.729,0,0,1-5.7.415m-7.337-2.089c.478.341,3,.932,7.337.932s6.846-.588,7.333-.929c-.063-.9-.684-7.835-4.82-7.963-1.957-.061-3.688-.041-5.268-.01-4.262.083-4.562,6.968-4.583,7.971m0,.119v0Z" transform="translate(-81.842 -177.141)" fill="#001226"/>
    <path id="Trazado_209475" data-name="Trazado 209475" d="M23.574,189.084A.577.577,0,0,1,23.28,189a25.1,25.1,0,0,1-11.442-14.958.579.579,0,1,1,1.116-.306,24.022,24.022,0,0,0,10.916,14.268.579.579,0,0,1-.3,1.077" transform="translate(-9.701 -142.277)" fill="#001226"/>
    <path id="Trazado_209476" data-name="Trazado 209476" d="M218.029,187.7a.579.579,0,0,1-.312-1.066,24.053,24.053,0,0,0,9.208-10.886,23.853,23.853,0,0,0,1.085-3.169.578.578,0,1,1,1.118.3,25.038,25.038,0,0,1-6.517,11.3,25.259,25.259,0,0,1-4.272,3.43.576.576,0,0,1-.311.091" transform="translate(-178.509 -141.319)" fill="#001226"/>
    <path id="Trazado_209477" data-name="Trazado 209477" d="M110.266,3.086a.578.578,0,0,1-.225-.046,24.029,24.029,0,0,0-18.643,0,.579.579,0,0,1-.451-1.066,25.189,25.189,0,0,1,19.545,0,.579.579,0,0,1-.225,1.112" transform="translate(-74.37 -0.001)" fill="#001226"/>
    <path id="Trazado_209478" data-name="Trazado 209478" d="M117.7,55.708a1.812,1.812,0,0,1-1.519-.824l-4.1-6.309a1.811,1.811,0,0,1,3.037-1.975l2.585,3.974,5-7.691a1.811,1.811,0,0,1,3.037,1.975l-6.521,10.026a1.811,1.811,0,0,1-1.518.824" transform="translate(-91.769 -34.527)" fill="#ffd354"/>
    <path id="Trazado_209479" data-name="Trazado 209479" d="M115.047,53.632a2.382,2.382,0,0,1-2-1.087l-4.1-6.309a2.39,2.39,0,1,1,4.007-2.606l2.1,3.228,4.517-6.946a2.39,2.39,0,0,1,4.007,2.606l-6.521,10.026a2.381,2.381,0,0,1-2,1.087M110.942,43.7a1.233,1.233,0,0,0-1.031,1.905l4.1,6.309a1.233,1.233,0,0,0,2.067,0L122.6,41.887a1.233,1.233,0,1,0-2.067-1.344l-5,7.691a.579.579,0,0,1-.97,0l-2.585-3.974a1.226,1.226,0,0,0-.778-.534,1.24,1.24,0,0,0-.258-.027" transform="translate(-89.114 -31.872)" fill="#003887"/>
    <path id="Trazado_209480" data-name="Trazado 209480" d="M117.7,55.708a1.812,1.812,0,0,1-1.519-.824l-4.1-6.309a1.811,1.811,0,0,1,3.037-1.975l2.585,3.974,5-7.691a1.811,1.811,0,0,1,3.037,1.975l-6.521,10.026a1.811,1.811,0,0,1-1.518.824" transform="translate(-91.769 -34.527)" fill="#32d9cb"/>
    <path id="Trazado_209481" data-name="Trazado 209481" d="M115.047,53.632a2.382,2.382,0,0,1-2-1.087l-4.1-6.309a2.39,2.39,0,1,1,4.007-2.606l2.1,3.228,4.517-6.946a2.39,2.39,0,0,1,4.007,2.606l-6.521,10.026a2.381,2.381,0,0,1-2,1.087M110.942,43.7a1.233,1.233,0,0,0-1.031,1.905l4.1,6.309a1.233,1.233,0,0,0,2.067,0L122.6,41.887a1.233,1.233,0,1,0-2.067-1.344l-5,7.691a.579.579,0,0,1-.97,0l-2.585-3.974a1.226,1.226,0,0,0-.778-.534,1.24,1.24,0,0,0-.258-.027" transform="translate(-89.114 -31.872)" fill="#001226"/>
  </g>
</svg>
