<svg xmlns="http://www.w3.org/2000/svg" xmlns:xlink="http://www.w3.org/1999/xlink" width="200" height="168.218" viewBox="0 0 200 168.218">
  <defs>
    <clipPath id="clip-path">
      <rect id="Rectángulo_57179" data-name="Rectángulo 57179" width="122.379" height="110.439" fill="none"/>
    </clipPath>
  </defs>
  <g id="Grupo_182109" data-name="Grupo 182109" transform="translate(-600 -424)">
    <path id="Trazado_211887" data-name="Trazado 211887" d="M0,0H67V67H0Z" transform="translate(600 424)" fill="#00a3be"/>
    <path id="Trazado_211888" data-name="Trazado 211888" d="M0,0H67V68H0Z" transform="translate(600 511)" fill="#f37f4c"/>
    <path id="Trazado_211889" data-name="Trazado 211889" d="M0,0H64V64H0Z" transform="translate(608 431)" fill="none" stroke="#12263f" stroke-width="3"/>
    <path id="Trazado_211890" data-name="Trazado 211890" d="M0,0H64V64H0Z" transform="translate(608 518)" fill="none" stroke="#12263f" stroke-width="3"/>
    <path id="Trazado_211891" data-name="Trazado 211891" d="M3.872-4.837H-3.872L-5.611,0H-8.125l7.059-18.484H1.066L8.138,0h-2.5ZM-3.136-6.83H3.148L0-15.476Z" transform="translate(639 470)" fill="#fff"/>
    <path id="Trazado_211892" data-name="Trazado 211892" d="M-.116-7.922A11.021,11.021,0,0,1-4.5-10.052a4.07,4.07,0,0,1-1.373-3.119A4.3,4.3,0,0,1-4.2-16.644,6.671,6.671,0,0,1,.165-18.018a7.281,7.281,0,0,1,3.265.708,5.369,5.369,0,0,1,2.222,1.953,4.994,4.994,0,0,1,.787,2.722H4.083a3.25,3.25,0,0,0-1.025-2.542A4.17,4.17,0,0,0,.165-16.1a4.269,4.269,0,0,0-2.7.764,2.55,2.55,0,0,0-.97,2.122,2.294,2.294,0,0,0,.922,1.841A9.04,9.04,0,0,0,.549-10,14.556,14.556,0,0,1,4.016-8.624,5.261,5.261,0,0,1,5.872-6.873a4.471,4.471,0,0,1,.6,2.356A4.153,4.153,0,0,1,4.791-1.056a7.183,7.183,0,0,1-4.5,1.3,8.354,8.354,0,0,1-3.418-.7A5.752,5.752,0,0,1-5.579-2.38a4.692,4.692,0,0,1-.861-2.771h2.356a3.061,3.061,0,0,0,1.19,2.545,5.011,5.011,0,0,0,3.18.934,4.607,4.607,0,0,0,2.844-.757A2.458,2.458,0,0,0,4.12-4.492,2.413,2.413,0,0,0,3.2-6.512,10.555,10.555,0,0,0-.116-7.922Z" transform="translate(640 555)" fill="#fff"/>
    <g id="Grupo_182090" data-name="Grupo 182090" transform="translate(677.621 481.779)">
      <g id="Grupo_182089" data-name="Grupo 182089" transform="translate(0)">
        <g id="Grupo_182087" data-name="Grupo 182087" clip-path="url(#clip-path)">
          <path id="Trazado_211687" data-name="Trazado 211687" d="M78.066,81.314a1.47,1.47,0,0,0-.208.244,1.381,1.381,0,0,0-.155.274c-1.108,1.862-.973,4.241,1,5.493a4.051,4.051,0,0,0,5.507-1.3,4.581,4.581,0,0,0-.782-5.739c-1.693-1.542-4.08-.524-5.365,1.027m3.861,3.375a1.366,1.366,0,0,1-1.76.429c-.941-.532-.5-1.529-.024-2.226.449-.619,1.346-1.029,1.809-.266a1.843,1.843,0,0,1-.026,2.062" transform="translate(13.59 14.034)" fill="#4d4d4d"/>
          <path id="Trazado_211688" data-name="Trazado 211688" d="M93.642,67.16A1.325,1.325,0,0,0,91.356,68.5q1.1,1.869,2.191,3.739A1.324,1.324,0,0,0,95.831,70.9L93.642,67.16" transform="translate(16.088 11.74)" fill="#4d4d4d"/>
          <path id="Trazado_211689" data-name="Trazado 211689" d="M96.894,66.653a1.333,1.333,0,0,0-1.811-.475,1.359,1.359,0,0,0-.475,1.812q.822,1.839,1.644,3.68a1.332,1.332,0,0,0,1.811.474,1.355,1.355,0,0,0,.475-1.811l-1.644-3.68" transform="translate(16.668 11.649)" fill="#4d4d4d"/>
          <path id="Trazado_211690" data-name="Trazado 211690" d="M51.128,57.955,17.07,25.376s-4.162-4.3-1.172-8.028a6.192,6.192,0,0,1,9.076,0l22.8,22.921s1.664-8.649,9.209-3.627c0,0,2.892-9.871,11.269-2.888,0,0,.746-8.055,8.609-3.025,0,0,12.492,9.887,15.322,19.487,0,0,3.135,11.593,6.32,16.349l3.724-1.164,5.114,3.491h2.429l8.979,8.218S97.579,103.565,89.9,104.264l-9.762-8.089,2.084-3.38L77.23,86.989l3.812-2.169S69.816,75.345,64.3,76.106c0,0-18.151,1.4-23.038-12.8,0,0-2.259-8.44.233-11.169Z" transform="translate(2.615 2.706)" fill="#fff"/>
          <path id="Trazado_211691" data-name="Trazado 211691" d="M119.418,75.975a1.911,1.911,0,0,0-.289-.386,61.968,61.968,0,0,0-9.849-8.281,1.778,1.778,0,0,0-1.781,0,12.825,12.825,0,0,0-1.153.7c-1.48-1.514-2.931-3.409-5.153-2.9a4.8,4.8,0,0,0-1.554.749c-3.4-4.9-4.821-10.1-6.6-15.754a35.2,35.2,0,0,0-8.286-13.441c-2.676-2.845-6.293-7.668-10.461-8.234a6.868,6.868,0,0,0-6.708,3.309c-4.074-2.512-9.162-1.324-11.047,3.025A7.724,7.724,0,0,0,46.7,37.95c-7.274-7.076-13.429-15.755-21.58-21.739-5.748-4.221-14.715-.4-11.178,7.319,2.387,5.207,7.852,9.1,11.784,13.1,2.779,2.831,5.565,5.609,8.244,8.533,2.088,2.279,4.253,4.493,6.44,6.687-3.422,9.688.167,19.1,9.927,23.338,4.994,2.166,10.279,2.948,15.587,3.909,4.875.882,8.524,4.067,11.974,7.478a4.488,4.488,0,0,0-.648,1.313c-.613,2.275,1.778,4.449,3.438,6.075-.175.207-.356.4-.529.614a1.811,1.811,0,0,0,0,2.5c3.312,3.38,6.441,6.931,9.748,10.314a1.82,1.82,0,0,0,2.139.276c3.538-1.665,6.406-5.346,9.033-8.122,3.239-3.421,6.426-6.769,9.839-10.021,2.546-2.425,11.618-8.953,8.506-13.546M80.267,83.984c-4.787-4.615-9.169-7.556-15.9-8.7-11.376-1.927-25.316-7.106-21.231-20.713,1.945,1.92,3.9,3.833,5.832,5.753a1.766,1.766,0,0,0,2.5-2.5c-7.651-7.587-15.051-15.4-22.621-23.058C25.549,31.44,20.378,27.812,18.1,23.7c-1.431-2.579-1.745-5.22,1.748-5.438,2.219-.138,2.856.467,4.435,1.829,1.328,1.147,2.513,2.454,3.759,3.687C34.165,29.847,39.7,36.451,46.1,42.237a1.784,1.784,0,0,0,2.949-.779q1.223-5.257,7.312-2.806A1.792,1.792,0,0,0,59.374,37.4q1.267-5.6,7.641-1.614a1.78,1.78,0,0,0,2.949-.779c1.973-7.736,10.7,2.384,12.609,4.465A31.376,31.376,0,0,1,89.423,50.45c2.188,6.341,3.484,12.154,7.5,17.684-.179.158-.351.3-.515.436-2.576,2.067-5.026,4.282-7.387,6.593-2.113,2.068-4.144,4.221-6.156,6.388-.639.687-1.625,1.528-2.6,2.433m.792,4.975c.016-.742,1.673-2.059,2.448-2.9,2.62-2.846,5.246-5.692,8.012-8.4a104.546,104.546,0,0,1,9.264-8.059c1.742-1.346,1.6-.773,2.835.635-2.7,2.6-5.094,5.925-7.491,8.276C91.714,82.844,87.21,86.8,83.051,91.292a19.76,19.76,0,0,1-1.993-2.333M91.4,103.847c-2.562-2.672-5.051-5.412-7.612-8.084,5.8-6.685,12.574-12.211,18.625-18.666,1.247-1.331,2.453-2.7,3.745-3.987.733-.731,2.345-2.039,2.246-2.044,1.526.078,7.087,5.859,8.232,7.018.469.551-19.486,21.3-25.235,25.762" transform="translate(2.318 2.553)" fill="#12263f"/>
          <path id="Trazado_211692" data-name="Trazado 211692" d="M78.066,81.314a1.47,1.47,0,0,0-.208.244,1.381,1.381,0,0,0-.155.274c-1.108,1.862-.973,4.241,1,5.493a4.051,4.051,0,0,0,5.507-1.3,4.581,4.581,0,0,0-.782-5.739c-1.693-1.542-4.08-.524-5.365,1.027m3.861,3.375a1.366,1.366,0,0,1-1.76.429c-.941-.532-.5-1.529-.024-2.226.449-.619,1.346-1.029,1.809-.266a1.843,1.843,0,0,1-.026,2.062" transform="translate(13.59 14.034)" fill="#4d4d4d"/>
          <path id="Trazado_211693" data-name="Trazado 211693" d="M38.423,21.26C40.034,6.379,20.232,2.467,11.189,11.007,1.1,20.539,5.552,41.019,21.556,39.364c1.678-.173,1.7-2.822,0-2.647-13.761,1.424-17-15.936-8.5-23.838,7.526-6.994,24.074-4.162,22.715,8.381-.184,1.692,2.465,1.679,2.647,0" transform="translate(1.024 1.157)" fill="#12263f"/>
          <path id="Trazado_211694" data-name="Trazado 211694" d="M26.98,42.783c-6.711,2.708-15.088.072-19.952-5.089C-.3,29.918,2.445,16.352,9.09,9.16A20.439,20.439,0,0,1,34.142,5.285c7.585,4.12,12.832,15.325,8.2,23.24a1.324,1.324,0,0,0,2.286,1.335c5.012-8.573.62-20.124-7.144-25.607a23.232,23.232,0,0,0-29.158,1.9C.378,13.7-3.023,27.479,3.259,37.172c4.848,7.48,16.079,11.533,24.425,8.165,1.56-.629.879-3.192-.7-2.553" transform="translate(0 0.001)" fill="#12263f"/>
          <path id="Trazado_211695" data-name="Trazado 211695" d="M93.642,67.16A1.325,1.325,0,0,0,91.356,68.5q1.1,1.869,2.191,3.739A1.324,1.324,0,0,0,95.831,70.9L93.642,67.16" transform="translate(16.088 11.74)" fill="#4d4d4d"/>
          <path id="Trazado_211696" data-name="Trazado 211696" d="M96.894,66.653a1.333,1.333,0,0,0-1.811-.475,1.359,1.359,0,0,0-.475,1.812q.822,1.839,1.644,3.68a1.332,1.332,0,0,0,1.811.474,1.355,1.355,0,0,0,.475-1.811l-1.644-3.68" transform="translate(16.668 11.649)" fill="#4d4d4d"/>
        </g>
      </g>
    </g>
  </g>
</svg>
