<svg xmlns="http://www.w3.org/2000/svg" xmlns:xlink="http://www.w3.org/1999/xlink" width="190" height="172.936" viewBox="0 0 190 172.936">
  <defs>
    <clipPath id="clip-path">
      <rect id="Rectángulo_57178" data-name="Rectángulo 57178" width="68" height="67.903" fill="none"/>
    </clipPath>
    <clipPath id="clip-path-2">
      <rect id="Rectángulo_57179" data-name="Rectángulo 57179" width="104.022" height="93.873" fill="none"/>
    </clipPath>
  </defs>
  <g id="Grupo_182110" data-name="Grupo 182110" transform="translate(-285 -422)">
    <rect id="Rectángulo_57176" data-name="Rectángulo 57176" width="126" height="126" transform="translate(285 422)" fill="#00a3be"/>
    <rect id="Rectángulo_57177" data-name="Rectángulo 57177" width="126" height="126" transform="translate(297 430)" fill="none" stroke="#12263f" stroke-linejoin="round" stroke-width="4"/>
    <g id="Grupo_182086" data-name="Grupo 182086" transform="translate(319 452.097)">
      <g id="Grupo_182085" data-name="Grupo 182085" transform="translate(0 0)" clip-path="url(#clip-path)">
        <path id="Trazado_211675" data-name="Trazado 211675" d="M44.905,33.516A11.623,11.623,0,0,0,34.027,45.489,12.248,12.248,0,0,0,46.246,57.006c16.015.168,14.321-25.375-1.34-23.49m1.34,21.531a10.253,10.253,0,0,1-10.26-9.558,9.628,9.628,0,0,1,8.92-10.014c13.12-1.579,14.856,19.54,1.34,19.573" transform="translate(-11.806 -11.599)" fill="#fff"/>
        <path id="Trazado_211676" data-name="Trazado 211676" d="M67.836,34.245c-.055-1.655.532-4.978-.953-6.224-1.423-1.194-4.792-.92-6.912-.949A50.989,50.989,0,0,0,58.438,22.1c-.26-.627-1.318-1.888-1.123-2.476.288-.874,3.152-2.183,3.785-3.1a2.8,2.8,0,0,0,.583-2.41c-.4-1.566-2.308-2.774-3.388-3.784S55.812,7.387,54.379,6.81c-2.31-.932-4.581,2.234-6.116,3.989-1.857-1.085-3.738-1.675-5.678-2.586-1.384-.65-1.643-.68-1.933-2.076C40.418,5,40.842,3.71,40.567,2.52,39.763-.95,36.137.1,33.4.321c-2.8.226-5.949-.3-6.1,3.2-.048,1.115.526,2.576.133,3.648-.338.921-.594.687-1.849,1.143a27.9,27.9,0,0,0-5.458,2.647c-1.348-1.658-2.9-3.941-5.178-3.831-2.424.118-4.739,3.21-6.267,4.779-3.137,3.221.144,5.425,2.529,7.875a22.443,22.443,0,0,0-3.576,7.551c-2.144-.411-5.157-.714-6.656.777C-.578,29.654.152,33.646.3,35.538c.128,1.657.059,3.8,1.649,4.7,1.566.885,4.165.471,6.059.205a33.694,33.694,0,0,0,1.7,5.048c.167.383.92,1.436.866,1.795-.015.1-.449.42-.612.706-.911,1.6-4.128,3.058-3.338,5.412.742,2.21,5.343,6.169,7.545,7.02,2.449.946,4.5-1.666,6.152-3.372a17.067,17.067,0,0,0,7.615,3.088c-.118,2.167-.95,5.181.382,6.741,1,1.17,3.361.913,4.643.945,1.721.042,3.928.291,5.565-.36a2.971,2.971,0,0,0,2.047-2.382c.265-1.274-.877-3.584-.306-4.611.478-.859,3.347-1.369,4.4-1.928,1.747-.928,3.2-2.646,5.034-1.007,1.93,1.729,2.8,4.719,5.565,3.039a18.514,18.514,0,0,0,5.5-5.612c1.367-2.26.372-3.136-1.408-4.735C57.554,48.6,56.872,48.7,57.94,46.266a57.472,57.472,0,0,0,2.138-6.124c2.086.11,5.151.607,6.774-.431,1.68-1.074,1.037-3.873.985-5.466m-3.181,3.88c-1.423.449-3.8.027-5.292.037a.9.9,0,0,0-.727.336,1,1,0,0,0-.218.383c-.872,2.766-2.134,5.314-3.109,7.983a2.456,2.456,0,0,0,.474,2.811c.849,1.091,2.911,1.81,3.424,3.075.542,1.336-2.115,3.632-2.951,4.463-.439.437-1.208,1.382-1.818,1.545-1.2.32-1.622-.531-2.471-1.519-.862-1-1.743-2.585-3.211-2.766-1.026-.126-2.146.686-3,1.163a19.979,19.979,0,0,1-6.664,2.647.943.943,0,0,0-.684.684,25.321,25.321,0,0,0,.121,3.662c.013,3.326-2.89,3.3-5.563,3.232-2.38-.059-3.274-.056-3.183-2.539a37.29,37.29,0,0,0,.117-4.041,1.012,1.012,0,0,0-.979-.979,14.889,14.889,0,0,1-8-3.225,1.053,1.053,0,0,0-.384-.195.935.935,0,0,0-1,.195c-.861.783-2.465,2.941-3.56,3.261-1.9.556-3.626-1.66-4.842-2.818-.968-.922-2.7-2.049-2.211-3.562.343-1.054,1.916-2.081,2.708-2.832.863-.82,1.182-1.067.911-2.237-.3-1.312-1.244-2.589-1.712-3.869A35.812,35.812,0,0,1,9.685,39.1a.983.983,0,0,0-.944-.719c-1.026.123-2.055.229-3.088.265-1.86.064-2.854.276-3.24-1.791a16.925,16.925,0,0,1-.255-4.861c.108-.846.179-2.247,1.017-2.778.954-.6,3.974-.008,4.923.2a.994.994,0,0,0,1.2-.684,21.423,21.423,0,0,1,4.02-8.544.988.988,0,0,0-.153-1.187c-1.411-1.614-4.637-3.43-3.1-5.719a12.773,12.773,0,0,1,3.3-3.14c2.905-1.359,4.056.68,5.667,2.544a.865.865,0,0,0,1.33.431A31.443,31.443,0,0,1,27.185,9.88a4.389,4.389,0,0,0,1.644-.818,3.95,3.95,0,0,0,.642-2.43,15.52,15.52,0,0,1-.173-2.6c.385-1.638,2.06-1.591,3.507-1.707.925-.074,2.045-.176,2.984-.24a3.878,3.878,0,0,1,2.444.439c.842.475.455,1.391.545,2.492.148,1.2-.456,2.378.209,3.5a3.083,3.083,0,0,0,2.01,1.306,31.051,31.051,0,0,1,6.814,2.988,1.062,1.062,0,0,0,.238.111.9.9,0,0,0,1.086-.177c1.045-1.037,2.254-2.875,3.548-3.526,1.612-.81,2.5.872,3.785,2.072,1.34,1.254,3.744,2.641,2.446,4.679-.637,1-2.169,1.378-2.982,2.266a1.919,1.919,0,0,0-.462,2.419c.366,1.03,1.051,1.917,1.414,2.973.526,1.531.9,3.116,1.408,4.656a1.02,1.02,0,0,0,.945.719,27.043,27.043,0,0,1,4.864.373c2.33.648,1.713,2.848,1.78,4.87.054,1.654.541,3.325-1.222,3.88" transform="translate(0 0)" fill="#fff"/>
        <path id="Trazado_211677" data-name="Trazado 211677" d="M44.546,24.762a11.321,11.321,0,0,1,3.632-.559.98.98,0,0,0,0-1.959,13.107,13.107,0,0,0-4.153.629c-1.194.386-.684,2.277.521,1.889" transform="translate(-15.045 -7.721)" fill="#fff"/>
        <path id="Trazado_211678" data-name="Trazado 211678" d="M61.508,25.943a6.857,6.857,0,0,1,2.774,1.431c.951.819,2.343-.561,1.385-1.385a9.055,9.055,0,0,0-3.637-1.935.98.98,0,0,0-.521,1.889" transform="translate(-21.108 -8.336)" fill="#fff"/>
        <path id="Trazado_211679" data-name="Trazado 211679" d="M77.7,38.708a12.279,12.279,0,0,0-1.8-3.387,1.011,1.011,0,0,0-1.34-.351.985.985,0,0,0-.351,1.34,10.7,10.7,0,0,1,1.607,2.918c.418,1.18,2.311.672,1.889-.52" transform="translate(-25.704 -12.092)" fill="#fff"/>
        <path id="Trazado_211680" data-name="Trazado 211680" d="M78.129,52.58a22.123,22.123,0,0,1-.587,3.4.98.98,0,0,0,1.889.521,25.53,25.53,0,0,0,.657-3.919c.114-1.255-1.846-1.247-1.959,0" transform="translate(-26.903 -17.925)" fill="#fff"/>
        <path id="Trazado_211681" data-name="Trazado 211681" d="M72.325,67.641a.987.987,0,0,0-1.34.351A4.933,4.933,0,0,1,68.87,70.3c-1.1.614-.115,2.306.988,1.691a6.681,6.681,0,0,0,2.817-3.012,1.007,1.007,0,0,0-.351-1.34" transform="translate(-23.738 -23.434)" fill="#fff"/>
        <path id="Trazado_211682" data-name="Trazado 211682" d="M56.545,76.947c-1.119.2-2.241.353-3.375.452-1.246.109-1.257,2.068,0,1.959q1.96-.171,3.9-.522c1.239-.224.714-2.112-.52-1.889" transform="translate(-18.13 -26.702)" fill="#fff"/>
        <path id="Trazado_211683" data-name="Trazado 211683" d="M40.217,75.041a9.625,9.625,0,0,1-3.178-1.561.987.987,0,0,0-1.34.351,1,1,0,0,0,.351,1.34A11.153,11.153,0,0,0,39.7,76.93a.98.98,0,0,0,.521-1.889" transform="translate(-12.344 -25.455)" fill="#fff"/>
        <path id="Trazado_211684" data-name="Trazado 211684" d="M26.582,60.678a.98.98,0,0,0-1.889.521,10.562,10.562,0,0,0,1.954,3.787.987.987,0,0,0,1.385,0,1,1,0,0,0,0-1.385,8.157,8.157,0,0,1-1.451-2.922" transform="translate(-8.557 -20.821)" fill="#fff"/>
        <path id="Trazado_211685" data-name="Trazado 211685" d="M25.2,47.557A20.072,20.072,0,0,1,25.461,44c.208-1.233-1.679-1.763-1.889-.52a22.981,22.981,0,0,0-.334,4.075.98.98,0,0,0,1.959,0" transform="translate(-8.065 -14.846)" fill="#fff"/>
        <path id="Trazado_211686" data-name="Trazado 211686" d="M32.231,28.777A12.151,12.151,0,0,0,29.113,31.5a1.01,1.01,0,0,0,0,1.385.987.987,0,0,0,1.385,0,10.634,10.634,0,0,1,2.721-2.419c1.072-.659.089-2.354-.988-1.691" transform="translate(-10.01 -9.936)" fill="#fff"/>
      </g>
    </g>
    <g id="Grupo_182088" data-name="Grupo 182088" transform="translate(370.978 501.063)">
      <g id="Grupo_182087" data-name="Grupo 182087" clip-path="url(#clip-path-2)">
        <path id="Trazado_211687" data-name="Trazado 211687" d="M77.907,81.045a1.249,1.249,0,0,0-.177.207,1.174,1.174,0,0,0-.132.233,3.311,3.311,0,0,0,.853,4.669,3.444,3.444,0,0,0,4.681-1.1,3.894,3.894,0,0,0-.665-4.878c-1.439-1.311-3.468-.445-4.56.873m3.282,2.869a1.161,1.161,0,0,1-1.5.365c-.8-.452-.422-1.3-.02-1.892.382-.526,1.144-.875,1.538-.226a1.567,1.567,0,0,1-.022,1.753" transform="translate(0 0.001)" fill="#4d4d4d"/>
        <path id="Trazado_211688" data-name="Trazado 211688" d="M93.27,67.064A1.126,1.126,0,0,0,91.327,68.2l1.862,3.178a1.126,1.126,0,0,0,1.942-1.136L93.27,67.064" transform="translate(0 0.001)" fill="#4d4d4d"/>
        <path id="Trazado_211689" data-name="Trazado 211689" d="M96.528,66.556a1.133,1.133,0,0,0-1.539-.4,1.155,1.155,0,0,0-.4,1.54q.7,1.563,1.4,3.128a1.133,1.133,0,0,0,1.539.4,1.152,1.152,0,0,0,.4-1.539l-1.4-3.128" transform="translate(0 0.001)" fill="#4d4d4d"/>
        <path id="Trazado_211690" data-name="Trazado 211690" d="M45.681,51.561,16.732,23.869s-3.538-3.657-1-6.824a5.263,5.263,0,0,1,7.715,0L42.835,36.528s1.414-7.352,7.828-3.083c0,0,2.458-8.39,9.579-2.455,0,0,.634-6.847,7.318-2.571,0,0,10.618,8.4,13.024,16.564,0,0,2.665,9.854,5.372,13.9l3.165-.989,4.347,2.967h2.065l7.632,6.985s-18,22.487-24.528,23.081l-8.3-6.876,1.771-2.873L67.868,76.24l3.24-1.844s-9.542-8.053-14.229-7.406c0,0-15.428,1.186-19.582-10.88,0,0-1.92-7.174.2-9.494Z" transform="translate(0 0.001)" fill="#fff"/>
        <path id="Trazado_211691" data-name="Trazado 211691" d="M103.476,66.749a1.624,1.624,0,0,0-.246-.328,52.673,52.673,0,0,0-8.372-7.039,1.511,1.511,0,0,0-1.514,0,10.9,10.9,0,0,0-.98.592c-1.258-1.287-2.491-2.9-4.38-2.467a4.082,4.082,0,0,0-1.321.637c-2.891-4.161-4.1-8.589-5.613-13.391a29.922,29.922,0,0,0-7.043-11.425c-2.275-2.418-5.349-6.518-8.892-7a5.837,5.837,0,0,0-5.7,2.813c-3.463-2.135-7.788-1.125-9.39,2.571a6.565,6.565,0,0,0-8.361,2.714c-6.183-6.015-11.415-13.392-18.343-18.478-4.886-3.588-12.508-.337-9.5,6.221C15.847,26.6,20.492,29.9,23.834,33.306c2.362,2.406,4.73,4.768,7.007,7.253,1.775,1.937,3.615,3.819,5.474,5.684-2.909,8.235.142,16.236,8.438,19.837C49,67.921,53.49,68.586,58,69.4c4.144.75,7.245,3.457,10.178,6.356a3.815,3.815,0,0,0-.551,1.116c-.521,1.934,1.511,3.782,2.922,5.164-.149.176-.3.344-.45.522a1.539,1.539,0,0,0,0,2.122c2.815,2.873,5.475,5.891,8.286,8.767a1.547,1.547,0,0,0,1.818.235c3.007-1.415,5.445-4.544,7.678-6.9,2.753-2.908,5.462-5.754,8.363-8.518,2.164-2.061,9.875-7.61,7.23-11.514M70.2,73.556c-4.069-3.923-7.794-6.423-13.513-7.391-9.67-1.638-21.519-6.04-18.046-17.606,1.653,1.632,3.312,3.258,4.957,4.89a1.5,1.5,0,0,0,2.121-2.122c-6.5-6.449-12.793-13.091-19.228-19.6-2.8-2.834-7.2-5.918-9.134-9.412-1.216-2.192-1.483-4.437,1.486-4.622,1.886-.117,2.428.4,3.77,1.555,1.129.975,2.136,2.086,3.195,3.134,5.206,5.157,9.909,10.77,15.35,15.688a1.516,1.516,0,0,0,2.507-.662q1.04-4.469,6.215-2.385a1.523,1.523,0,0,0,2.561-1.06q1.077-4.764,6.495-1.372a1.513,1.513,0,0,0,2.507-.662c1.677-6.576,9.091,2.026,10.718,3.795a26.67,26.67,0,0,1,5.822,9.327c1.86,5.39,2.961,10.331,6.376,15.031-.152.134-.3.259-.438.371-2.19,1.757-4.272,3.64-6.279,5.6-1.8,1.758-3.522,3.588-5.233,5.43-.543.584-1.381,1.3-2.209,2.068m.673,4.229c.014-.631,1.422-1.75,2.081-2.467,2.227-2.419,4.459-4.838,6.81-7.139a88.862,88.862,0,0,1,7.874-6.85c1.481-1.144,1.363-.657,2.41.54-2.3,2.212-4.33,5.036-6.367,7.035-3.751,3.683-7.579,7.048-11.114,10.864a16.8,16.8,0,0,1-1.694-1.983M79.658,90.44c-2.178-2.271-4.293-4.6-6.47-6.871C78.116,77.887,83.876,73.19,89.019,67.7c1.06-1.131,2.085-2.294,3.183-3.389.623-.621,1.993-1.733,1.909-1.737,1.3.066,6.024,4.98,7,5.965.4.468-16.563,18.107-21.45,21.9" transform="translate(0 0.001)" fill="#12263f"/>
        <path id="Trazado_211692" data-name="Trazado 211692" d="M77.907,81.045a1.249,1.249,0,0,0-.177.207,1.174,1.174,0,0,0-.132.233,3.311,3.311,0,0,0,.853,4.669,3.444,3.444,0,0,0,4.681-1.1,3.894,3.894,0,0,0-.665-4.878c-1.439-1.311-3.468-.445-4.56.873m3.282,2.869a1.161,1.161,0,0,1-1.5.365c-.8-.452-.422-1.3-.02-1.892.382-.526,1.144-.875,1.538-.226a1.567,1.567,0,0,1-.022,1.753" transform="translate(0 0.001)" fill="#4d4d4d"/>
        <path id="Trazado_211693" data-name="Trazado 211693" d="M33.53,19.054C34.9,6.405,18.068,3.08,10.381,10.339c-8.579,8.1-4.791,25.51,8.812,24.1,1.426-.147,1.442-2.4,0-2.25C7.5,33.4,4.744,18.646,11.972,11.93c6.4-5.945,20.463-3.538,19.308,7.124-.156,1.438,2.095,1.427,2.25,0" transform="translate(0 0.001)" fill="#12263f"/>
        <path id="Trazado_211694" data-name="Trazado 211694" d="M22.933,36.366c-5.7,2.3-12.825.061-16.959-4.326C-.258,25.43,2.078,13.9,7.726,7.786a17.373,17.373,0,0,1,21.3-3.294c6.447,3.5,10.907,13.026,6.973,19.754a1.126,1.126,0,0,0,1.943,1.135c4.26-7.287.527-17.105-6.072-21.766A19.747,19.747,0,0,0,7.081,5.227C.321,11.644-2.57,23.357,2.77,31.6c4.121,6.358,13.667,9.8,20.761,6.94,1.326-.535.747-2.713-.6-2.17" transform="translate(0 0.001)" fill="#12263f"/>
        <path id="Trazado_211695" data-name="Trazado 211695" d="M93.27,67.064A1.126,1.126,0,0,0,91.327,68.2l1.862,3.178a1.126,1.126,0,0,0,1.942-1.136L93.27,67.064" transform="translate(0 0.001)" fill="#4d4d4d"/>
        <path id="Trazado_211696" data-name="Trazado 211696" d="M96.528,66.556a1.133,1.133,0,0,0-1.539-.4,1.155,1.155,0,0,0-.4,1.54q.7,1.563,1.4,3.128a1.133,1.133,0,0,0,1.539.4,1.152,1.152,0,0,0,.4-1.539l-1.4-3.128" transform="translate(0 0.001)" fill="#4d4d4d"/>
      </g>
    </g>
  </g>
</svg>
