<svg xmlns="http://www.w3.org/2000/svg" xmlns:xlink="http://www.w3.org/1999/xlink" width="140" height="141" viewBox="0 0 140 141">
  <defs>
    <clipPath id="clip-path">
      <rect id="Rectángulo_56270" data-name="Rectángulo 56270" width="70.268" height="52.828" fill="none" stroke="#00a3be" stroke-width="1"/>
    </clipPath>
  </defs>
  <g id="Grupo_181590" data-name="Grupo 181590" transform="translate(-1125 -672)">
    <path id="Trazado_209380" data-name="Trazado 209380" d="M102.144,141H37.856A37.992,37.992,0,0,1,0,102.874V38.126A37.991,37.991,0,0,1,37.856,0h64.288A37.992,37.992,0,0,1,140,38.126v64.747A37.992,37.992,0,0,1,102.144,141" transform="translate(1125 672)" fill="#00a3be"/>
    <path id="Trazado_209381" data-name="Trazado 209381" d="M37.715,129.8V64.758A26.93,26.93,0,0,1,64.531,37.715h64.5a26.93,26.93,0,0,1,26.816,27.043V129.8a26.93,26.93,0,0,1-26.816,27.043h-64.5A26.93,26.93,0,0,1,37.715,129.8" transform="translate(1098.221 645.221)" fill="#fff"/>
    <g id="Grupo_181059" data-name="Grupo 181059" transform="translate(1163.435 720.282)">
      <g id="Grupo_181058" data-name="Grupo 181058" transform="translate(0 0)" clip-path="url(#clip-path)">
        <path id="Trazado_209409" data-name="Trazado 209409" d="M48.657,43.364a14.588,14.588,0,0,0,4.743.825c4.4,0,7.6-2.249,7.6-5.346,0-3.823-3.465-5.69-6.593-7.133-2.876-1.356-5.71-3.256-5.71-6.723,0-3.1,3.2-5.346,7.6-5.346a14.61,14.61,0,0,1,4.744.825" transform="translate(-20.761 -8.38)" fill="none" stroke="#00a3be" stroke-linecap="round" stroke-linejoin="round" stroke-width="3.313"/>
        <line id="Línea_658" data-name="Línea 658" y2="3.707" transform="translate(34.716 7.581)" fill="none" stroke="#00a3be" stroke-linecap="round" stroke-linejoin="round" stroke-width="3.313"/>
        <line id="Línea_659" data-name="Línea 659" y2="3.53" transform="translate(34.716 35.63)" fill="none" stroke="#00a3be" stroke-linecap="round" stroke-linejoin="round" stroke-width="3.313"/>
        <path id="Trazado_209410" data-name="Trazado 209410" d="M57.358,12.993c.973-2.679,2.868-7.1,5.338-9.062-1.707-.406-4.561.655-6.987,2.708a3.4,3.4,0,0,1-4.274.161A25.219,25.219,0,0,0,35.4,1.656c-18.325,0-26.287,11.88-26.287,21.61,0,.839.022,1.632.06,2.39a4.314,4.314,0,0,1-.645,2.6,1.5,1.5,0,0,1-1.69.822c-1.828-.5-3.032-4.424-5.18-4.424,1.643,0,2.274,5.182,5.055,5.813a3.127,3.127,0,0,0,2.894-.545c1.681,10.337,7.09,12.307,7.09,22.66h8.736a9.826,9.826,0,0,1,18.672,0h8.1c0-3.791,3.917-15.291,17.819-15.291V28.827C65.252,28.827,62.852,20.446,57.358,12.993Z" transform="translate(-0.707 -0.706)" fill="none" stroke="#00a3be" stroke-linecap="round" stroke-linejoin="round" stroke-width="3.313"/>
      </g>
    </g>
  </g>
</svg>
