<svg xmlns="http://www.w3.org/2000/svg" xmlns:xlink="http://www.w3.org/1999/xlink" width="139" height="141" viewBox="0 0 139 141">
  <defs>
    <clipPath id="clip-path">
      <rect id="Rectángulo_56268" data-name="Rectángulo 56268" width="48.736" height="76.532" fill="none" stroke="#00a3be" stroke-width="1"/>
    </clipPath>
  </defs>
  <g id="Grupo_181587" data-name="Grupo 181587" transform="translate(-495 -672)">
    <path id="Trazado_209371" data-name="Trazado 209371" d="M37.586,141h63.829C122.172,141,139,123.93,139,102.874V38.126C139,17.07,122.172,0,101.414,0H37.586C16.828,0,0,17.07,0,38.126v64.748C0,123.93,16.828,141,37.586,141" transform="translate(495 672)" fill="#00a3be"/>
    <path id="Trazado_209372" data-name="Trazado 209372" d="M154.313,129.392V64.637a26.7,26.7,0,0,0-26.468-26.922H64.182A26.7,26.7,0,0,0,37.714,64.637v64.755a26.7,26.7,0,0,0,26.468,26.922h63.663a26.7,26.7,0,0,0,26.468-26.922" transform="translate(468.485 645.485)" fill="#fff"/>
    <g id="Grupo_181057" data-name="Grupo 181057" transform="translate(541.573 706.169)">
      <g id="Grupo_181054" data-name="Grupo 181054" transform="translate(0 0)">
        <g id="Grupo_181053" data-name="Grupo 181053" clip-path="url(#clip-path)">
          <path id="Trazado_209406" data-name="Trazado 209406" d="M51.321,70.48l8.061,26.311-10.626-4.51-6.276,9.689L38.209,88.027" transform="translate(-14.35 -26.471)" fill="none" stroke="#00a3be" stroke-linecap="round" stroke-linejoin="round" stroke-width="3.313"/>
        </g>
      </g>
      <path id="Trazado_209407" data-name="Trazado 209407" d="M30.383,73.415l-5.97,22.3L17.795,86.26,7.336,91.146l5.91-22.078" transform="translate(-2.755 -25.94)" fill="none" stroke="#00a3be" stroke-linecap="round" stroke-linejoin="round" stroke-width="3.313"/>
      <g id="Grupo_181056" data-name="Grupo 181056" transform="translate(0 0)">
        <g id="Grupo_181055" data-name="Grupo 181055" clip-path="url(#clip-path)">
          <circle id="Elipse_5419" data-name="Elipse 5419" cx="23.333" cy="23.333" r="23.333" transform="translate(-8.63 24.368) rotate(-45)" fill="none" stroke="#00a3be" stroke-linecap="round" stroke-linejoin="round" stroke-width="3.313"/>
          <path id="Trazado_209408" data-name="Trazado 209408" d="M45.772,28.1A16.97,16.97,0,1,1,28.1,11.863,16.969,16.969,0,0,1,45.772,28.1Z" transform="translate(-4.45 -4.45)" fill="none" stroke="#00a3be" stroke-linecap="round" stroke-linejoin="round" stroke-width="3.313"/>
        </g>
      </g>
    </g>
  </g>
</svg>
