<svg xmlns="http://www.w3.org/2000/svg" width="141.333" height="151.61" viewBox="0 0 141.333 151.61">
  <g id="Grupo_181594" data-name="Grupo 181594" transform="translate(-1018 -946)">
    <path id="Trazado_209371" data-name="Trazado 209371" d="M38.216,151.61h64.9c21.106,0,38.216-18.354,38.216-41V41c0-22.641-17.11-41-38.216-41h-64.9C17.11,0,0,18.354,0,41v69.62c0,22.641,17.11,41,38.216,41" transform="translate(1018 946)" fill="#00a3be"/>
    <path id="Trazado_209372" data-name="Trazado 209372" d="M160.579,140.634v-72.7c0-16.692-12.487-30.224-27.891-30.224H65.6c-15.4,0-27.891,13.532-27.891,30.224v72.7c0,16.692,12.487,30.224,27.891,30.224h67.084c15.4,0,27.891-13.532,27.891-30.224" transform="translate(989.52 917.52)" fill="#fff"/>
    <g id="Grupo_181045" data-name="Grupo 181045" transform="translate(1063.818 1000.683)">
      <rect id="Rectángulo_56259" data-name="Rectángulo 56259" width="14.019" height="32.117" transform="translate(2.803 10.962)" fill="#00a3be"/>
      <rect id="Rectángulo_56260" data-name="Rectángulo 56260" width="14.019" height="21.156" transform="translate(19.244 21.923)" fill="#00a3be"/>
      <rect id="Rectángulo_56261" data-name="Rectángulo 56261" width="14.019" height="43.078" transform="translate(35.684 0)" fill="#00a3be"/>
      <rect id="Rectángulo_56262" data-name="Rectángulo 56262" width="52.762" height="2.548" transform="translate(0 45.246)" fill="#00a3be"/>
    </g>
  </g>
</svg>
