<svg xmlns="http://www.w3.org/2000/svg" xmlns:xlink="http://www.w3.org/1999/xlink" width="83.706" height="63.535" viewBox="0 0 83.706 63.535">
  <defs>
    <clipPath id="clip-path">
      <rect id="Rectángulo_54962" data-name="Rectángulo 54962" width="47.426" height="16.261" fill="none"/>
    </clipPath>
    <clipPath id="clip-path-2">
      <rect id="Rectángulo_54963" data-name="Rectángulo 54963" width="47.426" height="17.817" fill="none"/>
    </clipPath>
    <clipPath id="clip-path-3">
      <rect id="Rectángulo_54973" data-name="Rectángulo 54973" width="23.503" height="25.332" fill="none"/>
    </clipPath>
    <clipPath id="clip-path-4">
      <rect id="Rectángulo_54974" data-name="Rectángulo 54974" width="19.682" height="21.904" fill="none"/>
    </clipPath>
  </defs>
  <g id="Grupo_181481" data-name="Grupo 181481" transform="translate(-1231.628 -6995.658)">
    <g id="Grupo_181480" data-name="Grupo 181480" transform="translate(3545 11577.144)">
      <path id="Trazado_207301" data-name="Trazado 207301" d="M2791.643,956.437v49.473a2.833,2.833,0,0,1-2.841,2.81h-40a2.833,2.833,0,0,1-2.841-2.81V956.437a2.833,2.833,0,0,1,2.841-2.81h40a2.833,2.833,0,0,1,2.841,2.81" transform="translate(-5059.336 -5528.296)" fill="#21394c"/>
      <path id="Trazado_207302" data-name="Trazado 207302" d="M2791.643,956.437v13.519h-45.678V956.437a2.833,2.833,0,0,1,2.841-2.81h40a2.833,2.833,0,0,1,2.841,2.81" transform="translate(-5059.336 -5528.296)" fill="#2d4c60"/>
      <path id="Trazado_207303" data-name="Trazado 207303" d="M2823.347,1002.658h-36.8a1.144,1.144,0,0,1-1.151-1.138v-7.751a1.145,1.145,0,0,1,1.151-1.138h36.8a1.144,1.144,0,0,1,1.15,1.138v7.751a1.144,1.144,0,0,1-1.15,1.138" transform="translate(-5095.478 -5564.085)" fill="#afc5b0"/>
      <path id="Trazado_207304" data-name="Trazado 207304" d="M2792.677,1187.323h-6.1a1.181,1.181,0,0,1-1.184-1.17V1182.3a1.181,1.181,0,0,1,1.184-1.17h6.1a1.18,1.18,0,0,1,1.183,1.17v3.856a1.18,1.18,0,0,1-1.183,1.17" transform="translate(-5095.478 -5737.042)" fill="#647f87"/>
      <path id="Trazado_207305" data-name="Trazado 207305" d="M2914.278,1187.323h-6.1a1.18,1.18,0,0,1-1.184-1.17V1182.3a1.18,1.18,0,0,1,1.184-1.17h6.1a1.18,1.18,0,0,1,1.183,1.17v3.856a1.18,1.18,0,0,1-1.183,1.17" transform="translate(-5206.941 -5737.042)" fill="#647f87"/>
      <path id="Trazado_207306" data-name="Trazado 207306" d="M3035.88,1187.323h-6.1a1.18,1.18,0,0,1-1.183-1.17V1182.3a1.18,1.18,0,0,1,1.183-1.17h6.1a1.179,1.179,0,0,1,1.182,1.17v3.856a1.179,1.179,0,0,1-1.182,1.17" transform="translate(-5318.409 -5737.042)" fill="#647f87"/>
      <path id="Trazado_207307" data-name="Trazado 207307" d="M3157.482,1187.323h-6.1a1.18,1.18,0,0,1-1.183-1.17V1182.3a1.18,1.18,0,0,1,1.183-1.17h6.1a1.18,1.18,0,0,1,1.183,1.17v3.856a1.18,1.18,0,0,1-1.183,1.17" transform="translate(-5429.875 -5737.042)" fill="#647f87"/>
      <path id="Trazado_207308" data-name="Trazado 207308" d="M2792.677,1291.909h-6.1a1.181,1.181,0,0,1-1.184-1.17v-3.856a1.181,1.181,0,0,1,1.184-1.17h6.1a1.18,1.18,0,0,1,1.183,1.17v3.856a1.18,1.18,0,0,1-1.183,1.17" transform="translate(-5095.478 -5833.006)" fill="#647f87"/>
      <path id="Trazado_207309" data-name="Trazado 207309" d="M2914.278,1291.909h-6.1a1.18,1.18,0,0,1-1.184-1.17v-3.856a1.181,1.181,0,0,1,1.184-1.17h6.1a1.18,1.18,0,0,1,1.183,1.17v3.856a1.18,1.18,0,0,1-1.183,1.17" transform="translate(-5206.941 -5833.006)" fill="#647f87"/>
      <path id="Trazado_207310" data-name="Trazado 207310" d="M3035.88,1291.909h-6.1a1.18,1.18,0,0,1-1.183-1.17v-3.856a1.181,1.181,0,0,1,1.183-1.17h6.1a1.18,1.18,0,0,1,1.182,1.17v3.856a1.179,1.179,0,0,1-1.182,1.17" transform="translate(-5318.409 -5833.006)" fill="#647f87"/>
      <path id="Trazado_207311" data-name="Trazado 207311" d="M3157.482,1291.909h-6.1a1.18,1.18,0,0,1-1.183-1.17v-3.856a1.18,1.18,0,0,1,1.183-1.17h6.1a1.18,1.18,0,0,1,1.183,1.17v3.856a1.18,1.18,0,0,1-1.183,1.17" transform="translate(-5429.875 -5833.006)" fill="#647f87"/>
      <path id="Trazado_207312" data-name="Trazado 207312" d="M2792.677,1396.5h-6.1a1.181,1.181,0,0,1-1.184-1.17v-3.856a1.181,1.181,0,0,1,1.184-1.17h6.1a1.18,1.18,0,0,1,1.183,1.17v3.856a1.18,1.18,0,0,1-1.183,1.17" transform="translate(-5095.478 -5928.972)" fill="#647f87"/>
      <path id="Trazado_207313" data-name="Trazado 207313" d="M2914.278,1396.5h-6.1a1.18,1.18,0,0,1-1.184-1.17v-3.856a1.18,1.18,0,0,1,1.184-1.17h6.1a1.18,1.18,0,0,1,1.183,1.17v3.856a1.18,1.18,0,0,1-1.183,1.17" transform="translate(-5206.941 -5928.972)" fill="#647f87"/>
      <path id="Trazado_207314" data-name="Trazado 207314" d="M3035.88,1396.5h-6.1a1.18,1.18,0,0,1-1.183-1.17v-3.856a1.18,1.18,0,0,1,1.183-1.17h6.1a1.179,1.179,0,0,1,1.182,1.17v3.856a1.179,1.179,0,0,1-1.182,1.17" transform="translate(-5318.409 -5928.972)" fill="#647f87"/>
      <path id="Trazado_207315" data-name="Trazado 207315" d="M3157.482,1396.5h-6.1a1.18,1.18,0,0,1-1.183-1.17v-3.856a1.18,1.18,0,0,1,1.183-1.17h6.1a1.18,1.18,0,0,1,1.183,1.17v3.856a1.18,1.18,0,0,1-1.183,1.17" transform="translate(-5429.875 -5928.972)" fill="#647f87"/>
      <path id="Trazado_207316" data-name="Trazado 207316" d="M2792.677,1501.082h-6.1a1.181,1.181,0,0,1-1.184-1.17v-3.856a1.181,1.181,0,0,1,1.184-1.169h6.1a1.179,1.179,0,0,1,1.183,1.169v3.856a1.18,1.18,0,0,1-1.183,1.17" transform="translate(-5095.478 -6024.936)" fill="#647f87"/>
      <path id="Trazado_207317" data-name="Trazado 207317" d="M2914.278,1501.082h-6.1a1.18,1.18,0,0,1-1.184-1.17v-3.856a1.18,1.18,0,0,1,1.184-1.169h6.1a1.18,1.18,0,0,1,1.183,1.169v3.856a1.18,1.18,0,0,1-1.183,1.17" transform="translate(-5206.941 -6024.936)" fill="#647f87"/>
      <path id="Trazado_207318" data-name="Trazado 207318" d="M3035.88,1501.082h-6.1a1.18,1.18,0,0,1-1.183-1.17v-3.856a1.18,1.18,0,0,1,1.183-1.169h6.1a1.179,1.179,0,0,1,1.182,1.169v3.856a1.179,1.179,0,0,1-1.182,1.17" transform="translate(-5318.409 -6024.936)" fill="#e5003b"/>
      <path id="Trazado_207319" data-name="Trazado 207319" d="M3157.482,1501.082h-6.1a1.18,1.18,0,0,1-1.183-1.17v-3.856a1.18,1.18,0,0,1,1.183-1.169h6.1a1.18,1.18,0,0,1,1.183,1.169v3.856a1.18,1.18,0,0,1-1.183,1.17" transform="translate(-5429.875 -6024.936)" fill="#647f87"/>
      <path id="Trazado_207320" data-name="Trazado 207320" d="M2825.017,1411.5h-.01l-.52.259-.091-.4.69-.337h.45v2.807h-.52Z" transform="translate(-5131.231 -5947.986)" fill="#fff"/>
      <path id="Trazado_207321" data-name="Trazado 207321" d="M2823.3,1516.312c0,.9-.358,1.468-1.035,1.468-.656,0-1.005-.587-1.009-1.443,0-.872.376-1.46,1.039-1.46.687,0,1.005.6,1.005,1.435m-1.5.025c0,.683.188,1.037.485,1.037.314,0,.48-.38.48-1.054,0-.652-.158-1.037-.48-1.037-.289,0-.49.35-.485,1.054" transform="translate(-5128.348 -6043.279)" fill="#fff"/>
      <path id="Trazado_207322" data-name="Trazado 207322" d="M2944.623,1413.3v-.324l.336-.307c.669-.613.982-.95.987-1.322a.444.444,0,0,0-.506-.471,1.039,1.039,0,0,0-.608.234l-.157-.376a1.416,1.416,0,0,1,.874-.289.837.837,0,0,1,.934.851c0,.493-.357.89-.851,1.343l-.249.212v.009h1.165v.441Z" transform="translate(-5241.437 -5947.458)" fill="#fff"/>
      <path id="Trazado_207323" data-name="Trazado 207323" d="M3067.488,1412.754a1.42,1.42,0,0,0,.646.173c.411,0,.577-.229.572-.449,0-.332-.314-.475-.642-.475h-.25v-.388h.24c.249,0,.563-.112.563-.393,0-.19-.144-.35-.454-.35a1.149,1.149,0,0,0-.581.177l-.123-.384a1.548,1.548,0,0,1,.817-.216c.585,0,.886.32.886.687a.687.687,0,0,1-.524.657v.008a.711.711,0,0,1,.624.7c0,.475-.4.851-1.1.851a1.569,1.569,0,0,1-.8-.194Z" transform="translate(-5353.948 -5947.458)" fill="#fff"/>
      <path id="Trazado_207324" data-name="Trazado 207324" d="M2821.8,1309.967v-.713h-1.284v-.345l1.157-1.749h.633v1.693h.366v.4h-.366v.713Zm0-1.114v-.765c0-.16,0-.324.018-.488h-.018c-.087.177-.161.32-.249.475l-.52.769,0,.009Z" transform="translate(-5127.677 -5852.685)" fill="#fff"/>
      <path id="Trazado_207325" data-name="Trazado 207325" d="M2946.379,1307.6h-1.092l-.083.562a1.46,1.46,0,0,1,.205-.013,1.276,1.276,0,0,1,.69.181.8.8,0,0,1,.371.713,1.033,1.033,0,0,1-1.148.972,1.653,1.653,0,0,1-.751-.164l.108-.4a1.451,1.451,0,0,0,.625.147.552.552,0,0,0,.615-.514c0-.32-.24-.531-.808-.531a2.479,2.479,0,0,0-.388.026l.188-1.417h1.467Z" transform="translate(-5241.389 -5852.685)" fill="#fff"/>
      <path id="Trazado_207326" data-name="Trazado 207326" d="M3068.724,1307.073a2.156,2.156,0,0,0-.275.013,1,1,0,0,0-.952.82h.013a.821.821,0,0,1,.638-.272.85.85,0,0,1,.869.916.98.98,0,0,1-1,1,1.074,1.074,0,0,1-1.071-1.21,1.71,1.71,0,0,1,.494-1.261,1.654,1.654,0,0,1,1.009-.415,1.588,1.588,0,0,1,.271-.009Zm-.253,1.507a.5.5,0,0,0-.494-.557.522.522,0,0,0-.463.289.358.358,0,0,0-.035.168c.008.372.188.674.533.674.279,0,.458-.238.458-.575" transform="translate(-5353.562 -5852.223)" fill="#fff"/>
      <path id="Trazado_207327" data-name="Trazado 207327" d="M2824.156,1203.294v.341l-1.2,2.466h-.568l1.2-2.358v-.009h-1.337v-.44Z" transform="translate(-5129.262 -5757.382)" fill="#fff"/>
      <path id="Trazado_207328" data-name="Trazado 207328" d="M2944.153,1204.852a.776.776,0,0,1,.532-.73v-.013a.684.684,0,0,1-.432-.622c0-.458.41-.769.947-.769.611,0,.891.363.891.708a.7.7,0,0,1-.437.635v.012a.756.756,0,0,1,.541.709c0,.5-.427.838-1.035.838-.663,0-1.008-.376-1.008-.769m1.5-.026c0-.285-.213-.441-.527-.527a.514.514,0,0,0-.419.492.444.444,0,0,0,.476.454.427.427,0,0,0,.471-.419m-.885-1.361c0,.229.191.367.462.44a.457.457,0,0,0,.354-.423.378.378,0,0,0-.406-.4.374.374,0,0,0-.41.38" transform="translate(-5241.005 -5756.853)" fill="#fff"/>
      <path id="Trazado_207329" data-name="Trazado 207329" d="M3067.356,1205.193a1.442,1.442,0,0,0,.3-.008,1.083,1.083,0,0,0,.577-.216,1.035,1.035,0,0,0,.362-.622l-.009,0a.789.789,0,0,1-.62.25.834.834,0,0,1-.861-.873,1,1,0,0,1,1.026-1c.659,0,1.014.514,1.014,1.2a1.724,1.724,0,0,1-.494,1.3,1.572,1.572,0,0,1-.97.384,2.114,2.114,0,0,1-.323.009Zm.28-1.5a.468.468,0,0,0,.467.514.522.522,0,0,0,.459-.233.328.328,0,0,0,.03-.151c0-.38-.14-.708-.489-.708-.271,0-.467.238-.467.579" transform="translate(-5353.706 -5756.853)" fill="#fff"/>
      <path id="Trazado_207330" data-name="Trazado 207330" d="M3065.4,1513.856a2.063,2.063,0,0,1-.834.142,1.518,1.518,0,0,1-1.651-1.608,1.618,1.618,0,0,1,1.728-1.688,1.871,1.871,0,0,1,.787.142l-.129.465a1.6,1.6,0,0,0-.634-.123,1.07,1.07,0,0,0-1.132,1.176,1.055,1.055,0,0,0,1.128,1.153,1.658,1.658,0,0,0,.642-.119Z" transform="translate(-5349.872 -6039.447)" fill="#fff"/>
      <rect id="Rectángulo_54964" data-name="Rectángulo 54964" width="3.243" height="0.458" transform="translate(-2277.065 -4527.246)" fill="#fff"/>
      <rect id="Rectángulo_54965" data-name="Rectángulo 54965" width="3.243" height="0.458" transform="translate(-2297.509 -4527.737)" fill="#fff"/>
      <rect id="Rectángulo_54966" data-name="Rectángulo 54966" width="3.243" height="0.458" transform="translate(-2277.026 -4535.803)" fill="#fff"/>
      <rect id="Rectángulo_54967" data-name="Rectángulo 54967" width="3.243" height="0.458" transform="translate(-2297.509 -4526.647)" fill="#fff"/>
      <rect id="Rectángulo_54968" data-name="Rectángulo 54968" width="3.243" height="0.458" transform="translate(-2277.065 -4553.046)" fill="#fff"/>
      <rect id="Rectángulo_54969" data-name="Rectángulo 54969" width="0.463" height="3.208" transform="translate(-2275.675 -4528.622)" fill="#fff"/>
      <path id="Trazado_207349" data-name="Trazado 207349" d="M0,0,.461,0,.478,3.228l-.461,0Z" transform="translate(-2276.754 -4544.986) rotate(-45)" fill="#fff"/>
      <path id="Trazado_207350" data-name="Trazado 207350" d="M0,0,3.225.018l0,.461L0,.461Z" transform="translate(-2276.754 -4543.042) rotate(-45)" fill="#fff"/>
      <path id="Trazado_207331" data-name="Trazado 207331" d="M3197.171,1199.433a.429.429,0,1,1-.429-.424.426.426,0,0,1,.429.424" transform="translate(-5472.147 -5753.45)" fill="#fff"/>
      <path id="Trazado_207332" data-name="Trazado 207332" d="M3197.171,1228.539a.429.429,0,1,1-.429-.424.426.426,0,0,1,.429.424" transform="translate(-5472.147 -5780.156)" fill="#fff"/>
      <path id="Trazado_207333" data-name="Trazado 207333" d="M3008.725,1021.1v-1.67l.241-.637a.514.514,0,0,1,.4.4v2.227l-.16.159Zm.482.636.16.159v2.227a.513.513,0,0,1-.4.4l-.241-.636v-1.67Z" transform="translate(-5300.195 -5588.088)" fill="#282828"/>
      <rect id="Rectángulo_54972" data-name="Rectángulo 54972" width="0.643" height="0.636" transform="translate(-2290.022 -4564.208)" fill="#282828"/>
      <path id="Trazado_207334" data-name="Trazado 207334" d="M3044.1,1019.587v1.511l-.482.477-.162-.159v-2.068Zm-.644,4.375v-2.068l.162-.159.482.477v1.511Zm2.816.557h-2.413a.515.515,0,0,1-.4-.4l.644-.239h1.93Zm0-5.09h-2.164l-.643-.239a.515.515,0,0,1,.4-.4h2.646Zm-.081,1.909.322.318-.322.318H3044.1l-.321-.318.321-.318Zm.482.4.161.159v2.227a.514.514,0,0,1-.4.4l-.241-.636v-1.67Z" transform="translate(-5332.033 -5588.088)" fill="#282828"/>
      <path id="Trazado_207335" data-name="Trazado 207335" d="M3094.271,1019.587v1.511l-.483.477-.161-.159v-2.068Zm1.929-.159h-1.922l-.643-.239a.515.515,0,0,1,.4-.4h2.4Zm.161,1.67v-1.67l.241-.637a.515.515,0,0,1,.4.4v2.227l-.161.159Zm.483.636.161.159v2.227a.514.514,0,0,1-.4.4l-.241-.636v-1.67Z" transform="translate(-5378.02 -5588.088)" fill="#282828"/>
      <path id="Trazado_207336" data-name="Trazado 207336" d="M3144.441,1019.587v1.511l-.483.477-.161-.159v-2.068Zm-.644,4.375v-2.068l.161-.159.483.477v1.511Zm2.815.557H3144.2a.513.513,0,0,1-.4-.4l.644-.239h1.93Zm-.241-5.09h-1.922l-.643-.239a.514.514,0,0,1,.4-.4h2.4Zm.161,1.909.322.318-.322.318h-2.091l-.322-.318.322-.318Zm0-.239v-1.67l.241-.637a.512.512,0,0,1,.4.4v2.227l-.16.159Zm.482.636.16.159v2.227a.511.511,0,0,1-.4.4l-.241-.636v-1.67Z" transform="translate(-5424.008 -5588.088)" fill="#282828"/>
      <path id="Trazado_207337" data-name="Trazado 207337" d="M3196.781,1024.518h-2.412a.513.513,0,0,1-.4-.4l.644-.239h1.93Zm-.241-5.09h-1.922l-.643-.239a.515.515,0,0,1,.4-.4h2.4Zm.162,1.909.321.318-.321.318h-2.091l-.321-.318.321-.318Zm0-.239v-1.67l.241-.637a.515.515,0,0,1,.4.4v2.227l-.161.159Zm.482.636.161.159v2.227a.515.515,0,0,1-.4.4l-.241-.636v-1.67Z" transform="translate(-5469.996 -5588.088)" fill="#282828"/>
      <g id="Grupo_181480-2" data-name="Grupo 181480" transform="translate(-2277.598 -4581.486)">
        <path id="Trazado_207296" data-name="Trazado 207296" d="M373.639,1075.306v26.675a.835.835,0,0,1-.275.618.852.852,0,0,1-.575.223h-46.23a.852.852,0,0,1-.621-.268.831.831,0,0,1-.23-.573v-26.675a.849.849,0,0,1,.851-.841h46.23a.849.849,0,0,1,.851.841" transform="translate(-325.708 -1039.288)" fill="#ffc11f"/>
        <g id="Grupo_178758" data-name="Grupo 178758" transform="translate(0.23 47.273)" clip-path="url(#clip-path)">
          <path id="Trazado_207297" data-name="Trazado 207297" d="M375.891,1237.241a.852.852,0,0,1-.575.224h-46.23a.853.853,0,0,1-.621-.268l23.713-15.993Z" transform="translate(-328.465 -1221.203)" fill="#080909"/>
        </g>
        <path id="Trazado_207298" data-name="Trazado 207298" d="M375.891,1241.687a.851.851,0,0,1-.575.223h-46.23a.853.853,0,0,1-.621-.268l23.736-15.593Z" transform="translate(-328.235 -1178.376)" fill="#f8b109"/>
        <g id="Grupo_178761" data-name="Grupo 178761" transform="translate(0.23 35.177)" clip-path="url(#clip-path-2)">
          <path id="Trazado_207299" data-name="Trazado 207299" d="M375.891,1074.689a.852.852,0,0,0-.575-.224h-46.23a.853.853,0,0,0-.621.269L350.43,1091.7a2.961,2.961,0,0,0,3.538,0Z" transform="translate(-328.465 -1074.466)" fill="#080909"/>
        </g>
        <path id="Trazado_207300" data-name="Trazado 207300" d="M375.891,1074.689a.852.852,0,0,0-.575-.224h-46.23a.853.853,0,0,0-.621.269l21.965,16.375a2.96,2.96,0,0,0,3.538,0Z" transform="translate(-328.235 -1039.289)" fill="#ffdd37"/>
        <path id="Trazado_207338" data-name="Trazado 207338" d="M582.87,661.742a14.056,14.056,0,0,1-14.133,13.981,14.339,14.339,0,0,1-2.649-.245,14.1,14.1,0,0,1-3.727-1.257c-.293-.145-.576-.3-.857-.464a14.121,14.121,0,0,1-5.4-5.736,13.8,13.8,0,0,1-1.5-6.28,14.058,14.058,0,0,1,14.137-13.978,14.259,14.259,0,0,1,4.3.661,14.11,14.11,0,0,1,6.565,4.385c.208.245.41.5.6.764a13.795,13.795,0,0,1,2.665,8.168" transform="translate(-535.521 -647.764)" fill="#ffd200"/>
        <path id="Trazado_207339" data-name="Trazado 207339" d="M612.8,694.688a11.143,11.143,0,1,1-11.142-11.019A11.081,11.081,0,0,1,612.8,694.688" transform="translate(-568.447 -680.709)" fill="#eca009"/>
        <path id="Trazado_207340" data-name="Trazado 207340" d="M609.41,698.082a11.143,11.143,0,1,1-11.142-11.019,11.081,11.081,0,0,1,11.142,11.019" transform="translate(-565.336 -683.824)" fill="#ffb000"/>
        <g id="Grupo_178764" data-name="Grupo 178764" transform="translate(20.581 0.661)" clip-path="url(#clip-path-3)">
          <path id="Trazado_207341" data-name="Trazado 207341" d="M596.123,660.163l-1.981,2.294-.261.3L580,678.817l-.254.293-1.727,2a14.122,14.122,0,0,1-5.4-5.736l1.893-2.191.27-.313,12.364-14.3.248-.287,2.163-2.5a14.11,14.11,0,0,1,6.565,4.385" transform="translate(-572.62 -655.778)" fill="#ffb000"/>
        </g>
        <g id="Grupo_178767" data-name="Grupo 178767" transform="translate(26.84 5.81)" clip-path="url(#clip-path-4)">
          <path id="Trazado_207342" data-name="Trazado 207342" d="M667.385,721.681l-2.349,2.716-.274.319-10.98,12.705-.244.28-2.108,2.439a14.11,14.11,0,0,1-3.727-1.257l1.763-2.043.254-.293,13.547-15.67.264-.309,2.017-2.333a13.8,13.8,0,0,1,1.837,3.444" transform="translate(-647.704 -718.237)" fill="#ffb000"/>
        </g>
        <path id="Trazado_207343" data-name="Trazado 207343" d="M670.7,734.8v-1.979a8.58,8.58,0,0,1-3.569-.893l.627-2.429a7.652,7.652,0,0,0,3.495.911c1.2,0,2.021-.468,2.021-1.289,0-.8-.675-1.283-2.238-1.8-2.249-.752-3.782-1.8-3.782-3.8,0-1.841,1.3-3.277,3.554-3.706v-1.976h2.066v1.837a7.618,7.618,0,0,1,3.046.679l-.627,2.351a6.788,6.788,0,0,0-3.02-.718c-1.353,0-1.8.594-1.8,1.175,0,.677.732,1.125,2.516,1.778,2.5.87,3.5,2.016,3.5,3.9,0,1.849-1.313,3.413-3.728,3.828V734.8Z" transform="translate(-638.672 -712.06)" fill="#b67b1c"/>
      </g>
    </g>
  </g>
</svg>
