<svg id="Grupo_181115" data-name="Grupo 181115" xmlns="http://www.w3.org/2000/svg" xmlns:xlink="http://www.w3.org/1999/xlink" width="42.5" height="39.227" viewBox="0 0 42.5 39.227">
  <defs>
    <clipPath id="clip-path">
      <rect id="Rectángulo_56293" data-name="Rectángulo 56293" width="42.5" height="39.227" fill="none"/>
    </clipPath>
  </defs>
  <g id="Grupo_181114" data-name="Grupo 181114" clip-path="url(#clip-path)">
    <path id="Trazado_209482" data-name="Trazado 209482" d="M155.9,5.127a3.137,3.137,0,0,0-3.137-3.137h-.327A3.137,3.137,0,0,0,149.3,5.127V7.85a.888.888,0,0,0-.888-.888,1.264,1.264,0,0,0-1.264,1.264v4.88a2.691,2.691,0,0,0,1,2.1,2.691,2.691,0,0,1,1,2.1V19.84h5.061V17.158a2.692,2.692,0,0,1,.828-1.942l.028-.027a2.692,2.692,0,0,0,.828-1.942Z" transform="translate(-113.847 -1.54)" fill="#fff"/>
    <path id="Trazado_209483" data-name="Trazado 209483" d="M152.671,18.751H147.61a.451.451,0,0,1-.451-.45V15.76a2.23,2.23,0,0,0-.836-1.746,3.127,3.127,0,0,1-1.172-2.447V6.686a1.716,1.716,0,0,1,1.714-1.715,1.335,1.335,0,0,1,.438.074V3.588A3.592,3.592,0,0,1,150.892,0h.327a3.592,3.592,0,0,1,3.588,3.588v8.12a3.158,3.158,0,0,1-.967,2.267l-.028.027a2.252,2.252,0,0,0-.69,1.617V18.3a.45.45,0,0,1-.451.45m-4.61-.9h4.16V15.619a3.156,3.156,0,0,1,.967-2.267l.028-.026a2.253,2.253,0,0,0,.69-1.618V3.588A2.69,2.69,0,0,0,151.219.9h-.327a2.69,2.69,0,0,0-2.687,2.687V6.31a.451.451,0,1,1-.9,0,.438.438,0,0,0-.438-.438.814.814,0,0,0-.813.813v4.88a2.231,2.231,0,0,0,.836,1.746,3.128,3.128,0,0,1,1.172,2.448Z" transform="translate(-112.306)" fill="#001226"/>
    <path id="Trazado_209484" data-name="Trazado 209484" d="M156.654,27.885v0Z" transform="translate(-121.206 -21.575)" fill="#001226"/>
    <path id="Trazado_209485" data-name="Trazado 209485" d="M155.114,29.435a.45.45,0,0,1-.451-.451V26.345a.451.451,0,0,1,.9,0v2.639a.45.45,0,0,1-.451.451" transform="translate(-119.665 -20.035)" fill="#001226"/>
    <path id="Trazado_209486" data-name="Trazado 209486" d="M28.656,96.869V90.416h6.982a7.737,7.737,0,0,0,7.737-7.737v-7.6H35.637v6.7a.9.9,0,0,1-.9.9H11.485a9.33,9.33,0,0,0-9.494,9.1v5.09Z" transform="translate(-1.54 -58.093)" fill="#f37f4c"/>
    <path id="Trazado_209487" data-name="Trazado 209487" d="M27.115,95.78a.45.45,0,0,1-.451-.45V88.877a.45.45,0,0,1,.451-.451H34.1a7.294,7.294,0,0,0,7.286-7.286V73.994H34.547v6.25A1.348,1.348,0,0,1,33.2,81.59H9.945A8.863,8.863,0,0,0,.9,90.239v5.09a.451.451,0,0,1-.9,0v-5.09A9.764,9.764,0,0,1,9.945,80.69H33.2a.446.446,0,0,0,.446-.446v-6.7a.45.45,0,0,1,.451-.451h7.737a.45.45,0,0,1,.451.451v7.6A8.2,8.2,0,0,1,34.1,89.327H27.566v6a.45.45,0,0,1-.451.45" transform="translate(0 -56.553)" fill="#001226"/>
    <path id="Trazado_209488" data-name="Trazado 209488" d="M51.666,102.5v1.67c0,1.411-1.719,2.566-3.821,2.566s-3.821-1.155-3.821-2.566V102.5Z" transform="translate(-34.063 -79.308)" fill="#fff"/>
    <path id="Trazado_209489" data-name="Trazado 209489" d="M46.305,105.648c-2.355,0-4.271-1.353-4.271-3.017v-1.67a.45.45,0,1,1,.9,0v1.67c0,1.147,1.543,2.116,3.37,2.116s3.37-.968,3.37-2.116v-1.67a.45.45,0,1,1,.9,0v1.67c0,1.663-1.916,3.017-4.271,3.017" transform="translate(-32.522 -77.767)" fill="#001226"/>
    <path id="Trazado_209490" data-name="Trazado 209490" d="M19.331,7.631h0a9.177,9.177,0,0,0-9.2,8.166l-.041,0a2.842,2.842,0,1,0,0,5.682l.041,0a9.265,9.265,0,0,0,18.4,0l.041,0a2.842,2.842,0,1,0,0-5.682l-.041,0Z" transform="translate(-5.548 -5.904)" fill="#fff"/>
    <path id="Trazado_209491" data-name="Trazado 209491" d="M17.791,28.551a9.794,9.794,0,0,1-6.537-2.487,9.358,9.358,0,0,1-3.066-5.7,3.284,3.284,0,0,1,0-6.545,9.358,9.358,0,0,1,3.066-5.7A9.794,9.794,0,0,1,17.791,5.64a.45.45,0,1,1,0,.9A8.762,8.762,0,0,0,9.04,14.3a.445.445,0,0,1-.455.408l-.043,0a2.392,2.392,0,1,0,0,4.781l.043,0h.007a.451.451,0,0,1,.448.408,8.815,8.815,0,0,0,17.5,0,.451.451,0,0,1,.448-.408H27l.043,0a2.392,2.392,0,1,0,0-4.781l-.043,0a.45.45,0,0,1-.013-.9l.047,0a3.289,3.289,0,0,1,.362,6.564,9.359,9.359,0,0,1-3.066,5.7,9.794,9.794,0,0,1-6.537,2.487" transform="translate(-4.008 -4.364)" fill="#001226"/>
    <path id="Trazado_209492" data-name="Trazado 209492" d="M35.019,12.211V17.69a1.835,1.835,0,0,0,2.084,1.8,1.87,1.87,0,0,0,1.59-1.87V9.808a2.188,2.188,0,0,0-2.2-2.176H29.508A9.454,9.454,0,0,0,20.325,15.8h0V17.69a1.835,1.835,0,0,0,2.084,1.8A1.87,1.87,0,0,0,24,17.622V14.737a13.991,13.991,0,0,0,11.02-1.648Z" transform="translate(-15.726 -5.905)" fill="#001226"/>
    <path id="Trazado_209493" data-name="Trazado 209493" d="M35.319,18.417a2.3,2.3,0,0,1-1.517-.57,2.262,2.262,0,0,1-.774-1.7v-3.8a14.413,14.413,0,0,1-10.119,1.434v2.3a2.289,2.289,0,0,1-3.8,1.766,2.262,2.262,0,0,1-.774-1.7V14.258c0-.016,0-.032,0-.048a10.36,10.36,0,0,1,1.516-4.074,9.88,9.88,0,0,1,8.083-4.494h7.017A2.641,2.641,0,0,1,37.6,8.268v7.814a2.282,2.282,0,0,1-2.283,2.336m-1.391-6.862v4.594A1.361,1.361,0,0,0,34.4,17.17,1.382,1.382,0,0,0,35.5,17.5a1.414,1.414,0,0,0,1.2-1.423V8.268a1.739,1.739,0,0,0-1.748-1.726H27.985a8.967,8.967,0,0,0-7.372,4.078,9.607,9.607,0,0,0-1.378,3.664v1.865A1.361,1.361,0,0,0,19.7,17.17a1.382,1.382,0,0,0,1.107.334,1.414,1.414,0,0,0,1.2-1.423V13.2a.451.451,0,0,1,.588-.429A13.674,13.674,0,0,0,33.028,11.3v-.63a.451.451,0,0,1,.9,0v.885Z" transform="translate(-14.185 -4.365)" fill="#001226"/>
  </g>
</svg>
