<svg xmlns="http://www.w3.org/2000/svg" xmlns:xlink="http://www.w3.org/1999/xlink" width="74.891" height="74.907" viewBox="0 0 74.891 74.907">
  <defs>
    <clipPath id="clip-path">
      <rect id="Rectángulo_54918" data-name="Rectángulo 54918" width="6.087" height="2.356" fill="none"/>
    </clipPath>
    <clipPath id="clip-path-2">
      <rect id="Rectángulo_54919" data-name="Rectángulo 54919" width="0.8" height="11.55" fill="none"/>
    </clipPath>
    <clipPath id="clip-path-4">
      <rect id="Rectángulo_54927" data-name="Rectángulo 54927" width="53.299" height="37.806" fill="none"/>
    </clipPath>
  </defs>
  <g id="Grupo_181507" data-name="Grupo 181507" transform="translate(-630.109 -6964.5)">
    <g id="Grupo_181482" data-name="Grupo 181482" transform="translate(24.109 -22.389)">
      <path id="Trazado_207114" data-name="Trazado 207114" d="M246.309,360.874q-.31.183-.63.367a30.862,30.862,0,1,1,.63-.367" transform="translate(412.996 6690.095)" fill="#fff"/>
      <path id="Trazado_207115" data-name="Trazado 207115" d="M284.584,474.537q-.31.183-.63.367a30.861,30.861,0,0,1-28.606.968,20.489,20.489,0,0,1,29.236-1.335" transform="translate(374.721 6576.431)" fill="#d93838"/>
      <path id="Trazado_207116" data-name="Trazado 207116" d="M273.517,384.857H254.069a7.2,7.2,0,0,1-7.173-7.173v-20.91a7.2,7.2,0,0,1,7.173-7.174h19.448a7.2,7.2,0,0,1,7.173,7.174v20.91a7.2,7.2,0,0,1-7.173,7.173" transform="translate(380.525 6658.454)" fill="#b95241"/>
      <rect id="Rectángulo_54917" data-name="Rectángulo 54917" width="12.529" height="19.602" transform="translate(638.773 7036.588)" fill="#f4a891"/>
      <path id="Trazado_207117" data-name="Trazado 207117" d="M353.585,387.509a3.24,3.24,0,0,1-2.525,3.147,3.041,3.041,0,0,1-.415.062,1.145,1.145,0,0,1-.212.013l-.979.009-.019-2.045,0-.458-.027-3.711.985-.008a1.861,1.861,0,0,1,.257.011h.006a2.642,2.642,0,0,1,.37.045s.006-.005.006,0a3.031,3.031,0,0,1,2.557,2.934" transform="translate(310.134 6634.477)" fill="#f4a891"/>
      <path id="Trazado_207118" data-name="Trazado 207118" d="M241.7,387.509a3.24,3.24,0,0,0,2.525,3.147,3.04,3.04,0,0,0,.415.062,1.167,1.167,0,0,0,.212.014l.979.009.019-2.045,0-.458.027-3.711-.985-.008a1.86,1.86,0,0,0-.257.011h-.006a2.642,2.642,0,0,0-.37.045s-.006-.005-.006,0a3.031,3.031,0,0,0-2.557,2.934" transform="translate(384.095 6634.477)" fill="#f4a891"/>
      <path id="Trazado_207119" data-name="Trazado 207119" d="M282.312,349.584v.515l-.006.109c0,.218,0,.436-.018.649,0,.182-.018.358-.03.546,0,.055-.012.109-.018.169a15.529,15.529,0,0,1-1.946,6.311c-.055.1-.109.194-.164.285a16.15,16.15,0,0,1-7.632,6.669.02.02,0,0,1-.012.006,15.391,15.391,0,0,1-3.947,1.085c-.509.073-1.018.121-1.534.151-.206.012-.412.012-.624.012a14.953,14.953,0,0,1-2.219-.139c-.206-.024-.418-.049-.618-.091a15.965,15.965,0,0,1-13.143-13.3,15.72,15.72,0,0,1-.17-2.219l-.012-1.14-.036-5.074-.018-2.534c-.006-.388,0-.776.018-1.158a18.244,18.244,0,0,1,.212-2.177,12.064,12.064,0,0,1,.661-2.437,18.864,18.864,0,0,1,1.267-2.667,13.421,13.421,0,0,1,2.134-2.807,16.277,16.277,0,0,1,20.37-2.122c.376.249.74.509,1.1.782a15.85,15.85,0,0,1,3.765,4.147c.194.3.376.606.546.922a.021.021,0,0,1,.006.012,13.894,13.894,0,0,1,.752,1.607,2.776,2.776,0,0,1,.115.3,17.433,17.433,0,0,1,.679,2.061,12.787,12.787,0,0,1,.455,3.134l.006.158.006.618.006.679.006.861v.006l.006.049v.145l.006.406.018,3.7v.412Z" transform="translate(378.283 6674.938)" fill="#ffc7b0"/>
      <path id="Trazado_207120" data-name="Trazado 207120" d="M295.5,347.022a.115.115,0,0,0-.006.042c-.049.412-.085.788-.109,1.1a.265.265,0,0,0-.006.048,1.33,1.33,0,0,1-1.164,1.213.046.046,0,0,0-.03.006,1.343,1.343,0,0,1-1.3-.636l-1.843-3.043c-2.516-4.808-18.442-5.25-18.442-5.25a4.053,4.053,0,0,1-2.91-1.055,3.913,3.913,0,0,1-.879-1.158,4,4,0,0,1-.412-2.383,4.171,4.171,0,0,1,3.989-3.51l17.484-.818c5.735,4.808,5.832,12.519,5.632,15.447" transform="translate(365.789 6670.831)" fill="#db734c"/>
      <path id="Trazado_207121" data-name="Trazado 207121" d="M293.938,408.226s.209,1.146,1.833,1.059c1.429-.077,1.551-1.08,1.551-1.08Z" transform="translate(348.222 6618.211)" fill="#f4a891"/>
      <path id="Trazado_207122" data-name="Trazado 207122" d="M272.891,378.169a5.567,5.567,0,0,1,5.12.137" transform="translate(362.675 6639.227)" fill="none" stroke="#db734c" stroke-linecap="round" stroke-miterlimit="10" stroke-width="3.651"/>
      <g id="Grupo_178678" data-name="Grupo 178678" transform="translate(634.58 7023.73)" opacity="0.18">
        <g id="Grupo_178677" data-name="Grupo 178677">
          <g id="Grupo_178676" data-name="Grupo 178676" clip-path="url(#clip-path)">
            <path id="Trazado_207123" data-name="Trazado 207123" d="M275.833,400.859c-.011.65-1.382,1.155-3.062,1.128s-3.035-.576-3.024-1.226,1.381-1.155,3.062-1.128,3.035.576,3.024,1.226" transform="translate(-269.747 -399.632)" fill="#d93838"/>
          </g>
        </g>
      </g>
      <path id="Trazado_207124" data-name="Trazado 207124" d="M293.583,469.1l-.165.974-2.6,14.768h-9.744c-1.225-6.411-2.307-11.757-2.812-14.521-.188-1.031-.295-1.642-.295-1.708Z" transform="translate(359.188 6576.727)" fill="#ffc050"/>
      <g id="Grupo_178681" data-name="Grupo 178681" transform="translate(644.512 7045.613)" opacity="0.56">
        <g id="Grupo_178680" data-name="Grupo 178680">
          <g id="Grupo_178679" data-name="Grupo 178679" clip-path="url(#clip-path-2)">
            <line id="Línea_630" data-name="Línea 630" x2="0.253" y2="11.538" transform="translate(0.273 0.006)" fill="none" stroke="#fff" stroke-miterlimit="10" stroke-width="1.746"/>
          </g>
        </g>
      </g>
      <path id="Trazado_207125" data-name="Trazado 207125" d="M307.96,491.442c.012.373-.191.683-.454.691s-.486-.287-.5-.66.191-.682.454-.691.487.287.5.66" transform="translate(339.248 6561.506)" fill="#fff"/>
      <path id="Trazado_207126" data-name="Trazado 207126" d="M308.376,504.044c.012.373-.191.683-.454.691s-.486-.287-.5-.66.191-.682.454-.691.487.287.5.66" transform="translate(338.963 6552.854)" fill="#fff"/>
      <path id="Trazado_207127" data-name="Trazado 207127" d="M308.792,516.646c.012.374-.191.683-.454.692s-.486-.287-.5-.66.191-.682.454-.691.487.287.5.66" transform="translate(338.678 6544.2)" fill="#fff"/>
      <path id="Trazado_207128" data-name="Trazado 207128" d="M312.319,470.5l-6.725.5a3.251,3.251,0,0,1-3.522-3.18l9.241-.23A1.241,1.241,0,0,1,312.555,469Z" transform="translate(342.637 6577.433)" fill="#fff"/>
      <path id="Trazado_207129" data-name="Trazado 207129" d="M269.97,471.268l6.725.495a3.516,3.516,0,0,0,3.542-3.49l-.571-.044-8.691.125a1.241,1.241,0,0,0-1.242,1.411Z" transform="translate(364.853 6576.994)" fill="#fff"/>
      <path id="Trazado_207130" data-name="Trazado 207130" d="M282.357,381.372V384.3l-.006.109c0,.218,0,.436-.018.649,0,.182-.018.358-.03.545,0,.055-.012.109-.018.17a15.526,15.526,0,0,1-1.946,6.311c-.055.1-.109.194-.164.285a16.15,16.15,0,0,1-7.632,6.669.02.02,0,0,1-.012.006,15.392,15.392,0,0,1-3.947,1.085c-.509.073-1.018.121-1.534.152-.206.012-.412.012-.624.012a14.949,14.949,0,0,1-2.219-.139c-.206-.024-.418-.049-.618-.091a15.966,15.966,0,0,1-13.143-13.3,15.72,15.72,0,0,1-.17-2.219l-.012-1.14-.036-5.074V375.4l.036,5.074.012,1.14a15.728,15.728,0,0,0,.17,2.219,15.966,15.966,0,0,0,13.143,13.3c.2.042.412.067.618.091a14.916,14.916,0,0,0,2.219.139c.212,0,.419,0,.624-.012.515-.03,1.025-.079,1.534-.152a15.39,15.39,0,0,0,3.947-1.085.019.019,0,0,0,.012-.006,16.149,16.149,0,0,0,7.632-6.669c.055-.091.109-.188.164-.285a15.528,15.528,0,0,0,1.946-6.311c.006-.061.018-.115.018-.17.012-.188.03-.364.03-.545a.751.751,0,0,0,.006-.115c.012-.176.012-.352.012-.534Z" transform="translate(378.238 6640.737)" fill="#f4a891"/>
      <path id="Trazado_207131" data-name="Trazado 207131" d="M280.133,338.12a.114.114,0,0,0-.006.042c-.036.582-.091.964-.109,1.1a.263.263,0,0,0-.006.048c-.9-5.826-15.32-11-23.958-10.542a7.25,7.25,0,0,0-2.613.618c-6.135,2.753-6.547,13.568-6.632,13.174-5.153-23.492,15.459-23.947,15.459-23.947,5.662.206,9.561,1.819,12.234,4.062,5.735,4.808,5.832,12.519,5.632,15.447" transform="translate(381.153 6679.733)" fill="#db734c"/>
      <path id="Trazado_207132" data-name="Trazado 207132" d="M278.289,387.154V385.2a.64.64,0,0,1,.639-.639h.087a.641.641,0,0,1,.639.639v1.956a.641.641,0,0,1-.639.638h-.087a.64.64,0,0,1-.639-.638" transform="translate(358.969 6634.448)" fill="#07113d"/>
      <path id="Trazado_207133" data-name="Trazado 207133" d="M313.282,378.169a5.567,5.567,0,0,1,5.12.137" transform="translate(334.939 6639.227)" fill="none" stroke="#db734c" stroke-linecap="round" stroke-miterlimit="10" stroke-width="3.651"/>
      <g id="Grupo_178684" data-name="Grupo 178684" transform="translate(647.236 7023.73)" opacity="0.18">
        <g id="Grupo_178683" data-name="Grupo 178683">
          <g id="Grupo_178682" data-name="Grupo 178682" clip-path="url(#clip-path)">
            <path id="Trazado_207134" data-name="Trazado 207134" d="M316.224,400.859c-.011.65-1.382,1.155-3.062,1.128s-3.035-.576-3.024-1.226,1.381-1.155,3.062-1.128,3.035.576,3.024,1.226" transform="translate(-310.138 -399.632)" fill="#d93838"/>
          </g>
        </g>
      </g>
      <path id="Trazado_207135" data-name="Trazado 207135" d="M318.68,387.154V385.2a.64.64,0,0,1,.639-.639h.087a.64.64,0,0,1,.638.639v1.956a.64.64,0,0,1-.638.638h-.087a.64.64,0,0,1-.639-.638" transform="translate(331.232 6634.448)" fill="#07113d"/>
      <path id="Trazado_207136" data-name="Trazado 207136" d="M284.094,414.922l9.8-.05a5.559,5.559,0,0,1-4.7,3.435c-3.738.2-5.1-3.385-5.1-3.385" transform="translate(354.981 6613.633)" fill="#fff"/>
      <path id="Trazado_207144" data-name="Trazado 207144" d="M248.479,300.975a37.062,37.062,0,0,0-9.76-11.22,37.525,37.525,0,1,0,9.76,11.22M231.2,346.344a30.876,30.876,0,1,1,11.615-42.117A30.916,30.916,0,0,1,231.2,346.344" transform="translate(427.472 6704.838)" fill="#638896"/>
      <path id="Trazado_207163" data-name="Trazado 207163" d="M238.719,289.755l-2.707,3.525,0,0a32.88,32.88,0,0,0-36.282-2.444c-.229.128-.454.26-.68.4a32.38,32.38,0,0,0-5.9,4.477,33.08,33.08,0,0,0-5.831,40.124,32.73,32.73,0,0,0,8.516,9.791l0,0-2.71,3.531a37.368,37.368,0,0,1,3.418-61.668c.3-.182.6-.36.909-.533a37.4,37.4,0,0,1,41.267,2.8" transform="translate(427.473 6704.838)" fill="#9dbfc1"/>
      <g id="Grupo_178702" data-name="Grupo 178702" transform="translate(621.021 6993.463)" opacity="0.3" style="mix-blend-mode: multiply;isolation: isolate">
        <g id="Grupo_178701" data-name="Grupo 178701">
          <g id="Grupo_178700" data-name="Grupo 178700" clip-path="url(#clip-path-4)">
            <path id="Trazado_207165" data-name="Trazado 207165" d="M229.257,310.947a33.267,33.267,0,0,1,49.705,29.891A30.879,30.879,0,0,0,226.47,312.7q1.335-.937,2.787-1.757" transform="translate(-226.47 -303.032)" fill="#5d5d5d"/>
          </g>
        </g>
      </g>
      <path id="Trazado_207166" data-name="Trazado 207166" d="M221.023,310.858a31.366,31.366,0,0,0-2.873,2.447c-.417-.417-.837-.837-1.256-1.253-.645-.642-1.294-1.278-1.955-1.9a37.323,37.323,0,0,1,2.851-2.478c.467.439.927.887,1.382,1.338q.926.916,1.852,1.842" transform="translate(402.47 6687.241)" fill="#c1e5e5"/>
      <path id="Trazado_207167" data-name="Trazado 207167" d="M246.9,291.265a33.071,33.071,0,0,0-7.689,3.177c-.229.128-.454.26-.68.4q-1.269-1.861-2.5-3.741c.3-.182.6-.36.909-.533a37.609,37.609,0,0,1,7.532-3.259q1.292,1.936,2.431,3.957" transform="translate(387.987 6701.229)" fill="#c1e5e5"/>
    </g>
  </g>
</svg>
