<svg id="Grupo_181117" data-name="Grupo 181117" xmlns="http://www.w3.org/2000/svg" xmlns:xlink="http://www.w3.org/1999/xlink" width="40.5" height="43.107" viewBox="0 0 40.5 43.107">
  <defs>
    <clipPath id="clip-path">
      <rect id="Rectángulo_56294" data-name="Rectángulo 56294" width="40.5" height="43.107" fill="none"/>
    </clipPath>
  </defs>
  <g id="Grupo_181116" data-name="Grupo 181116" clip-path="url(#clip-path)">
    <path id="Trazado_209494" data-name="Trazado 209494" d="M33.944,45.569A16.946,16.946,0,0,1,27.7,45.8a10.718,10.718,0,0,0-3.429-.185,9.306,9.306,0,0,0-2.755.8l-4.64,2.144a1.667,1.667,0,0,0-.616,2.359v0a1.876,1.876,0,0,0,2.494.583l5.517-2.645,8.577,6.419,1.631-2.05h6.248a.831.831,0,0,0,.713-1.32c-4.188-5.5-7.272-9.332-6.619-14.27h4.237a.478.478,0,0,0,.4-.771L31.1,26.537l-2.05,2.532L14.492,29,12.5,26.537,4.134,36.865a.478.478,0,0,0,.4.771H8.772c.653,4.939-2.431,8.77-6.619,14.27a.831.831,0,0,0,.713,1.32h6.22L12,55.44l9.447,6.734,1.319.94a1.329,1.329,0,0,0,1.874-.364,1.226,1.226,0,0,0,.287-.9,1.563,1.563,0,0,0-.581-1.167l1.234.982a1.493,1.493,0,0,0,2.136-.311,1.647,1.647,0,0,0,.324-1.047,1.562,1.562,0,0,0-.581-1.167l.68.541a1.492,1.492,0,0,0,2.136-.311,1.613,1.613,0,0,0-.256-2.214,1.493,1.493,0,0,0,2.136-.312,1.613,1.613,0,0,0-.256-2.214l-.944-.739-.118-.12Z" transform="translate(-1.548 -20.696)" fill="#fff"/>
    <path id="Trazado_209495" data-name="Trazado 209495" d="M21.956,62.251a1.719,1.719,0,0,1-.992-.33L10.193,54.245l-.011-.008L7.39,52.112H1.317a1.311,1.311,0,0,1-1.188-.723,1.232,1.232,0,0,1,.127-1.3L.7,49.507c3.779-4.957,6.539-8.576,6.133-12.985H2.987a.938.938,0,0,1-.857-.532.892.892,0,0,1,.115-.953l8.364-10.328a.438.438,0,0,1,.681,0l1.864,2.3,14.138.066,1.918-2.368a.438.438,0,0,1,.681,0l8.364,10.328a.892.892,0,0,1,.115.953.938.938,0,0,1-.858.532H33.668c-.407,4.409,2.353,8.028,6.132,12.985l.443.582a1.232,1.232,0,0,1,.127,1.3,1.312,1.312,0,0,1-1.188.723H33.145L31.645,54a.437.437,0,0,1-.288.162,2.079,2.079,0,0,1-.4,1.4,1.97,1.97,0,0,1-1.333.79,1.889,1.889,0,0,1-.192.015,2.085,2.085,0,0,1-.355,1.72,1.968,1.968,0,0,1-1.332.79,1.894,1.894,0,0,1-.816-.07,2.092,2.092,0,0,1-.411,1.264,1.969,1.969,0,0,1-1.332.791,1.883,1.883,0,0,1-1.372-.354,1.638,1.638,0,0,1-.375.964,1.911,1.911,0,0,1-1.48.788M10.707,53.535l10.761,7.67a.907.907,0,0,0,1.271-.272.8.8,0,0,0,.2-.617,1.126,1.126,0,0,0-.416-.841.438.438,0,0,1,.545-.686l1.234.981a1.018,1.018,0,0,0,.77.214,1.1,1.1,0,0,0,.742-.444,1.213,1.213,0,0,0,.237-.768,1.125,1.125,0,0,0-.416-.841.438.438,0,0,1,.545-.686h0l.68.54a1.013,1.013,0,0,0,.77.215,1.1,1.1,0,0,0,.742-.444,1.174,1.174,0,0,0-.178-1.609.438.438,0,1,1,.545-.686,1.015,1.015,0,0,0,.769.214,1.1,1.1,0,0,0,.743-.445,1.174,1.174,0,0,0-.178-1.609l-.941-.737a.424.424,0,0,1-.042-.038l-.117-.118-6.3-4.713-5.264,2.524a2.322,2.322,0,0,1-3.066-.736l0-.007a2.065,2.065,0,0,1-.266-1.614,2.148,2.148,0,0,1,1.038-1.356l.033-.017,4.64-2.144a9.731,9.731,0,0,1,2.883-.839,10.377,10.377,0,0,1,3.29.143l.265.045a16.763,16.763,0,0,0,6.082-.225.438.438,0,0,1,.177.858,17.636,17.636,0,0,1-6.4.231l-.272-.046a9.611,9.611,0,0,0-3.031-.137,8.868,8.868,0,0,0-2.625.765L15.533,47.4a1.278,1.278,0,0,0-.606.8,1.2,1.2,0,0,0,.158.938l0,.006a1.436,1.436,0,0,0,1.9.434l.028-.015,5.516-2.645a.438.438,0,0,1,.452.044l8.236,6.164,1.28-1.609a.439.439,0,0,1,.406-.274h6.271a.435.435,0,0,0,.4-.236.347.347,0,0,0-.039-.38l-.443-.581c-4.015-5.266-6.915-9.07-6.262-14.012a.438.438,0,0,1,.434-.381h4.236a.066.066,0,0,0,.066-.033c0-.009,0-.012,0-.024L29.55,25.681l-1.71,2.111a.439.439,0,0,1-.341.162h0l-14.556-.068a.437.437,0,0,1-.339-.162l-1.654-2.043L2.925,35.588c-.01.012-.009.015,0,.024a.066.066,0,0,0,.066.033H7.223a.438.438,0,0,1,.434.381c.654,4.942-2.247,8.747-6.262,14.013l-.443.581A.348.348,0,0,0,.914,51a.435.435,0,0,0,.4.236H7.588a.438.438,0,0,1,.375.212Z" transform="translate(0 -19.144)" fill="#001226"/>
    <path id="Trazado_209496" data-name="Trazado 209496" d="M118.438,157.46a.436.436,0,0,1-.264-.089l-2.635-1.994a.438.438,0,1,1,.529-.7l2.635,1.994a.438.438,0,0,1-.265.788" transform="translate(-89.971 -120.562)" fill="#001226"/>
    <path id="Trazado_209497" data-name="Trazado 209497" d="M108.976,167.852a.437.437,0,0,1-.272-.095l-2.024-1.606a.438.438,0,1,1,.545-.687l2.024,1.606a.438.438,0,0,1-.272.781" transform="translate(-83.069 -128.97)" fill="#001226"/>
    <path id="Trazado_209498" data-name="Trazado 209498" d="M100.394,179.088a.436.436,0,0,1-.295-.114l-.455-.414a.438.438,0,1,1,.59-.648l.455.414a.438.438,0,0,1-.295.762" transform="translate(-77.6 -138.662)" fill="#001226"/>
    <path id="Trazado_209499" data-name="Trazado 209499" d="M79.5,175.118a1.441,1.441,0,0,1,2,.149,1.372,1.372,0,0,1-.148,1.962l-1.386,1.061a1.441,1.441,0,0,1-1.753-.317,1.37,1.37,0,0,1,.148-1.962Z" transform="translate(-60.73 -136.31)" fill="#fff"/>
    <path id="Trazado_209500" data-name="Trazado 209500" d="M77.747,177.347a1.882,1.882,0,0,1-1.413-.632,1.808,1.808,0,0,1,.2-2.586l.012-.009,1.131-.888a1.883,1.883,0,0,1,2.608.2,1.81,1.81,0,0,1-.195,2.586l-.016.013-1.386,1.062a.447.447,0,0,1-.061.039,1.861,1.861,0,0,1-.875.217m-.659-2.543a.935.935,0,0,0-.332.737.925.925,0,0,0,.235.6,1.006,1.006,0,0,0,1.189.235l1.346-1.031a.934.934,0,0,0,.094-1.332,1,1,0,0,0-1.391-.1l-.012.01Zm.86-1.233h0Z" transform="translate(-59.177 -134.763)" fill="#001226"/>
    <path id="Trazado_209501" data-name="Trazado 209501" d="M48.825,153a1.37,1.37,0,0,0,.148-1.962,1.44,1.44,0,0,0-1.753-.317l-1.946,1.513a1.372,1.372,0,0,0-.148,1.962,1.441,1.441,0,0,0,2,.149Z" transform="translate(-34.924 -117.417)" fill="#fff"/>
    <path id="Trazado_209502" data-name="Trazado 209502" d="M44.655,153.577a1.876,1.876,0,0,1-1.412-.633,1.811,1.811,0,0,1,.195-2.587l.014-.011,1.946-1.513a.475.475,0,0,1,.063-.041,1.889,1.889,0,0,1,2.289.414,1.808,1.808,0,0,1-.2,2.586l-.01.008-1.7,1.345a1.842,1.842,0,0,1-1.192.431M44,151.032a.934.934,0,0,0-.1,1.333,1,1,0,0,0,1.39.1l1.7-1.349a.932.932,0,0,0,.1-1.333,1.006,1.006,0,0,0-1.188-.235Zm3.275.426h0Z" transform="translate(-33.371 -115.872)" fill="#001226"/>
    <path id="Trazado_209503" data-name="Trazado 209503" d="M67.095,163.992l.611-.515a1.441,1.441,0,0,1,2,.148,1.372,1.372,0,0,1-.148,1.962l-1.7,1.345-1.11.935a1.441,1.441,0,0,1-2-.148,1.372,1.372,0,0,1,.148-1.962Z" transform="translate(-50.23 -127.231)" fill="#fff"/>
    <path id="Trazado_209504" data-name="Trazado 209504" d="M64.277,167.095a1.871,1.871,0,0,1-1.409-.632,1.81,1.81,0,0,1,.195-2.586l2.2-1.768.607-.512a1.884,1.884,0,0,1,2.615.194,1.81,1.81,0,0,1-.195,2.587l-.011.009-1.7,1.345-1.1.927a1.865,1.865,0,0,1-1.206.438m2.8-5.062a.993.993,0,0,0-.642.233l-.611.515-.008.007-2.195,1.765a.934.934,0,0,0-.094,1.331,1,1,0,0,0,1.391.1l1.11-.935,1.7-1.348a.934.934,0,0,0,.1-1.334,1,1,0,0,0-.749-.336m-1.536.414h0Z" transform="translate(-48.677 -125.685)" fill="#001226"/>
    <path id="Trazado_209505" data-name="Trazado 209505" d="M55.395,157.167l1.109-.935a1.441,1.441,0,0,1,2,.149,1.37,1.37,0,0,1-.148,1.962l-2.195,1.765-.611.516a1.441,1.441,0,0,1-2-.149,1.372,1.372,0,0,1,.148-1.962Z" transform="translate(-41.494 -121.581)" fill="#fff"/>
    <path id="Trazado_209506" data-name="Trazado 209506" d="M53.076,159.847a1.87,1.87,0,0,1-1.409-.632,1.81,1.81,0,0,1,.194-2.586l1.7-1.349,1.1-.931a1.883,1.883,0,0,1,2.614.194,1.809,1.809,0,0,1-.2,2.586l-2.2,1.771-.6.509a1.864,1.864,0,0,1-1.205.437m2.8-5.061a.993.993,0,0,0-.642.233l-1.109.935-.01.008-1.7,1.345a.934.934,0,0,0-.091,1.329,1,1,0,0,0,1.391.1l.611-.516,2.2-1.771a.933.933,0,0,0,.094-1.331,1,1,0,0,0-.749-.336m-2.034.833h0Z" transform="translate(-39.941 -120.033)" fill="#001226"/>
    <path id="Trazado_209507" data-name="Trazado 209507" d="M53.89,161.9a.438.438,0,0,1-.273-.782l1.7-1.345a.438.438,0,1,1,.544.687l-1.7,1.345a.437.437,0,0,1-.272.095" transform="translate(-41.686 -124.533)" fill="#001226"/>
    <path id="Trazado_209508" data-name="Trazado 209508" d="M53.89,161.9a.438.438,0,0,1-.273-.782l1.7-1.345a.438.438,0,1,1,.544.687l-1.7,1.345a.437.437,0,0,1-.272.095" transform="translate(-41.686 -124.533)" fill="#001226"/>
    <path id="Trazado_209509" data-name="Trazado 209509" d="M49.423,111.6c-4.949-.894-6.453,0-12.962-.982Z" transform="translate(-28.435 -86.266)" fill="#001226"/>
    <path id="Trazado_209510" data-name="Trazado 209510" d="M47.87,110.48a.434.434,0,0,1-.078-.007,29.252,29.252,0,0,0-5.7-.45,44.877,44.877,0,0,1-7.246-.529.438.438,0,0,1,.131-.867,44.123,44.123,0,0,0,7.12.52,30.35,30.35,0,0,1,5.854.464.438.438,0,0,1-.077.869" transform="translate(-26.882 -84.713)" fill="#001226"/>
    <path id="Trazado_209511" data-name="Trazado 209511" d="M65.166,24.627c-2.65-2.461-3.96-7.655-3.452-11.2H66.7a.477.477,0,0,0,.384-.792L57.4,1.991,47.717,12.637a.477.477,0,0,0,.384.792h5c.508,3.543-.67,8.737-3.321,11.2Z" transform="translate(-37.117 -1.553)" fill="#00a3be"/>
    <path id="Trazado_209512" data-name="Trazado 209512" d="M63.611,23.513a.437.437,0,0,1-.3-.117c-2.86-2.656-4.09-8.08-3.588-11.582a.438.438,0,0,1,.434-.376h4.988c.045,0,.061-.021.067-.034s.005-.012-.007-.025L55.846,1.09l-9.36,10.29c-.012.013-.011.017-.007.025s.022.034.067.034h5a.438.438,0,0,1,.434.376c.52,3.632-.63,8.957-3.456,11.582a.438.438,0,1,1-.6-.642c2.486-2.308,3.581-7.108,3.232-10.439H46.546a.945.945,0,0,1-.868-.556.889.889,0,0,1,.16-.969L55.522.144a.438.438,0,0,1,.648,0L65.854,10.79a.889.889,0,0,1,.16.969.945.945,0,0,1-.868.556h-4.6c-.334,3.3.889,8.142,3.362,10.439a.438.438,0,0,1-.3.759" transform="translate(-35.563)" fill="#001226"/>
  </g>
</svg>
